<?xml version="1.0" encoding="utf-8"?>
<!-- Generator: Adobe Illustrator 21.1.0, SVG Export Plug-In . SVG Version: 6.00 Build 0)  -->
<svg version="1.1" id="Layer_1" xmlns="http://www.w3.org/2000/svg" xmlns:xlink="http://www.w3.org/1999/xlink" x="0px" y="0px"
	 viewBox="0 0 160 50" style="enable-background:new 0 0 160 50;" xml:space="preserve">
<style type="text/css">
	.st0{fill:#F6F6F4;}
</style>
<path id="sub-zero" class="st0" d="M154.97,0.89c0,0-33.2,7.04-77.39,6.72l0,0h-0.18l0,0C33.2,7.93,0,0.89,0,0.89
	S7.39,13.59,7.43,25C7.39,36.41,0,49.11,0,49.11s33.2-7.04,77.39-6.73l0,0h0.18l0,0c44.19-0.32,77.39,6.73,77.39,6.73
	s-7.39-12.7-7.43-24.11C147.57,13.59,154.97,0.89,154.97,0.89z M77.48,40.84c-37.94,0-68.7-7.09-68.7-15.84
	c0-8.75,30.76-15.84,68.7-15.84c37.94,0,68.7,7.09,68.7,15.84C146.18,33.75,115.43,40.84,77.48,40.84z M26.33,26.51
	c-2.11-0.32-2.98-1.54-2.98-3.07c0-2.83,2.76-3.59,6.31-3.59c4.85,0,6.85,1.27,7.01,3.57h-5.01c0-0.44-0.26-0.72-0.66-0.87
	c-0.38-0.17-0.87-0.23-1.34-0.23c-1.28,0-1.73,0.32-1.73,0.78c0,0.3,0.14,0.5,0.56,0.57l5.15,0.76c2.17,0.32,3.51,1.33,3.51,3.18
	c0,2.66-2.17,3.91-7.01,3.91c-3.31,0-6.93-0.46-6.95-3.67h5.19c0.02,0.37,0.15,0.61,0.46,0.78c0.32,0.15,0.79,0.23,1.46,0.23
	c1.34,0,1.71-0.37,1.71-0.88c0-0.32-0.2-0.64-0.78-0.73L26.33,26.51z M38.35,20.23h4.31v6.6c0,1.4,0.81,1.85,2.21,1.85
	c1.41,0,2.22-0.44,2.22-1.85v-6.6h4.31V27c0,3.46-2.09,4.52-6.52,4.52c-4.43,0-6.52-1.05-6.52-4.52V20.23z M53.28,20.23h9.8
	c2.23,0,3.22,0.98,3.22,2.72c0,0.96-0.47,1.8-1.3,2.12v0.03c1.4,0.37,1.86,1.68,1.86,2.49c0,2.14-1.07,3.54-4.26,3.54h-9.33V20.23z
	 M57.49,24.29h3.25c0.87,0,1.07-0.29,1.07-0.72c0-0.4-0.2-0.69-1.07-0.69h-3.25V24.29z M57.49,28.48h3.68
	c0.85,0,1.12-0.37,1.12-0.86c0-0.47-0.26-0.86-1.12-0.86h-3.68V28.48z M68.4,25.32h5.54v2.66H68.4V25.32z M75.18,28.83l6.53-5.85
	h-6.09v-2.75h11.89v2.38l-6.38,5.77h6.21v2.75H75.18V28.83z M88.91,20.23h11.59v2.66h-7.28v1.47h5.96v2.66h-5.96v1.47h7.28v2.66
	H88.91V20.23z M109.01,27.58h-2.78v3.55h-4.31v-10.9H111c1.23,0,1.99,0.11,2.58,0.4c0.81,0.4,1.39,1.84,1.48,3.02
	c0.08,1.13-0.01,3.11-1.81,3.6v0.03l2.12,3.85h-4.74L109.01,27.58z M106.24,25.03h3.05c0.84,0,1.19-0.34,1.19-1.02
	c0-0.83-0.53-1.02-1.25-1.02h-2.99V25.03z M123.5,19.85c2.61,0,7.45,0.18,7.45,5.83c0,5.65-4.84,5.83-7.45,5.83
	c-2.61,0-7.45-0.18-7.45-5.83C116.04,20.03,120.89,19.85,123.5,19.85z M123.5,28.77c1.76,0,2.87-0.87,2.87-3.08
	c0-2.22-1.11-3.09-2.87-3.09c-1.76,0-2.87,0.87-2.87,3.09C120.63,27.9,121.74,28.77,123.5,28.77z M157.71,44.2
	c1.26,0,2.29,1.02,2.29,2.29c0,1.26-1.02,2.29-2.29,2.29c-1.26,0-2.29-1.02-2.29-2.29C155.43,45.22,156.45,44.2,157.71,44.2z
	 M157.71,48.09c0.84,0,1.53-0.62,1.53-1.6c0-0.99-0.69-1.6-1.53-1.6c-0.85,0-1.53,0.62-1.53,1.6
	C156.18,47.47,156.87,48.09,157.71,48.09z M157.48,46.73h-0.13v0.97h-0.57v-2.44h0.93c0.66,0,1.06,0.17,1.06,0.76
	c0,0.49-0.27,0.66-0.68,0.68l0.59,1.01h-0.64L157.48,46.73z M157.82,46.26c0.22,0,0.34-0.06,0.34-0.31c0-0.21-0.28-0.23-0.46-0.23
	h-0.34v0.54H157.82z"/>
</svg>
