<?xml version="1.0" encoding="utf-8"?>
<!-- Generator: Adobe Illustrator 21.1.0, SVG Export Plug-In . SVG Version: 6.00 Build 0)  -->
<svg version="1.1" id="Layer_1" xmlns="http://www.w3.org/2000/svg" xmlns:xlink="http://www.w3.org/1999/xlink" x="0px" y="0px"
	 viewBox="0 0 160 50" style="enable-background:new 0 0 160 50;" xml:space="preserve">
<style type="text/css">
	.st0{fill:#F6F6F4;}
</style>
<path id="silestone" class="st0" d="M122.69,7.32l35.67,0v35.41l-35.67-0.05V7.32z M144.56,36.88c8.4-1.41,8.51-6.73,7.52-9.81
	l-1.3-4.08c-0.68-2.14-0.99-4.84,1.72-5.64L152.34,13c-6.4,1.33-7.42,6.46-6.02,10.62c0.14,0.43,1.36,4.21,1.36,4.21
	c0.54,1.65,0.24,4.76-3.88,4.88L144.56,36.88z M0,6.01h160v37.98H0V6.01z M1.63,42.68h156.74V7.32H1.63V42.68z M47.8,26.07v2.27
	h-7.08V15.42h6.89l-0.66,2.27h-3.63v2.93h3.63v2.23h-3.63v3.22H47.8z M16.36,20.16c-0.73-0.33-1.19-0.64-1.19-1.34
	c0-0.94,0.83-1.36,1.98-1.36c0.88,0,1.63,0.35,2.42,0.69l0.88-2.21c-1.23-0.5-2.07-0.76-3.42-0.76c-2.29,0-4.4,1.34-4.4,3.76
	c0,1.96,1.03,2.85,2.42,3.49l1.79,0.83c0.95,0.44,1.46,0.79,1.46,1.54c0,0.96-0.67,1.44-1.98,1.44c-1.03,0-1.97-0.39-2.88-0.82
	l-0.85,2.29c1.32,0.6,2.46,0.84,3.91,0.84c2.66,0,4.36-1.77,4.36-4.17c0-1.7-1.09-2.67-2.65-3.39L16.36,20.16z M27.12,15.42h-3.29
	v12.92h3.29V15.42z M33.51,26.07V15.42h-2.63v12.92h7.22v-2.27H33.51z M54.16,20.16c-0.73-0.33-1.2-0.64-1.2-1.34
	c0-0.94,0.83-1.36,1.98-1.36c0.88,0,1.63,0.35,2.42,0.69l0.88-2.21c-1.23-0.5-2.07-0.76-3.42-0.76c-2.29,0-4.4,1.34-4.4,3.76
	c0,1.96,1.03,2.85,2.42,3.49l1.79,0.83c0.95,0.44,1.46,0.79,1.46,1.54c0,0.96-0.68,1.44-1.98,1.44c-1.03,0-1.97-0.39-2.88-0.82
	l-0.85,2.29c1.32,0.6,2.46,0.84,3.91,0.84c2.67,0,4.36-1.77,4.36-4.17c0-1.7-1.09-2.67-2.65-3.39L54.16,20.16z M60.27,15.42v2.29
	h3.43v10.63h2.63V17.71h3.45v-2.29H60.27z M77.59,15.19c-4.49,0-6.02,3.37-6.02,6.69c0,3.32,1.52,6.69,6.02,6.69
	c4.47,0,6-3.41,6-6.69C83.59,18.52,82.14,15.19,77.59,15.19 M77.59,26.3c-2.2,0-3.27-1.63-3.27-4.42c0-2.74,1.09-4.42,3.27-4.42
	c2.24,0,3.27,1.61,3.27,4.42C80.86,24.62,79.77,26.3,77.59,26.3 M94.18,28.57l2.15-0.41V15.42h-2.44l0.1,8.23l-5.09-8.23h-2.33
	v12.92h2.42l-0.08-8.35L94.18,28.57z M103.04,26.07v-3.22h3.64v-2.23h-3.64v-2.93h3.64l0.65-2.27h-6.89v12.92h7.08v-2.27H103.04z
	 M111.75,16.58c0,0.75-0.61,1.35-1.35,1.35c-0.75,0-1.36-0.61-1.36-1.35c0-0.74,0.61-1.35,1.36-1.35
	C111.14,15.23,111.75,15.83,111.75,16.58 M111.44,16.58c0-0.58-0.46-1.05-1.04-1.05c-0.58,0-1.05,0.47-1.05,1.05
	c0,0.58,0.47,1.04,1.05,1.04C110.98,17.62,111.44,17.15,111.44,16.58 M110.59,17.36l-0.34-0.6h-0.06v0.6h-0.35V15.8h0.56
	c0.42,0,0.61,0.15,0.61,0.47c0,0.26-0.13,0.43-0.37,0.47l0.37,0.62H110.59z M110.62,16.3c0-0.14-0.1-0.22-0.27-0.22h-0.17v0.45h0.17
	C110.52,16.53,110.62,16.44,110.62,16.3 M39.34,35.01c0,0.3-0.06,0.56-0.18,0.79c-0.12,0.23-0.28,0.41-0.49,0.54
	c-0.21,0.13-0.47,0.2-0.76,0.2c-0.1,0-0.21-0.02-0.33-0.05c-0.12-0.03-0.23-0.07-0.32-0.13l-0.52,0.24v-4.13l0.75-0.23v1.78
	c0.09-0.1,0.2-0.18,0.33-0.24c0.13-0.06,0.26-0.09,0.37-0.09c0.26,0,0.48,0.06,0.64,0.18c0.17,0.12,0.3,0.28,0.38,0.48
	C39.3,34.55,39.34,34.77,39.34,35.01 M38.59,35.19c0-0.17-0.02-0.33-0.08-0.48c-0.05-0.15-0.14-0.27-0.26-0.36
	c-0.12-0.09-0.28-0.14-0.48-0.14c-0.06,0-0.1,0-0.15,0.01c-0.04,0.01-0.09,0.02-0.14,0.04v1.61c0.05,0.06,0.11,0.11,0.18,0.15
	c0.07,0.04,0.14,0.06,0.21,0.06c0.2,0,0.37-0.09,0.5-0.26C38.51,35.66,38.58,35.45,38.59,35.19 M41.75,33.78l-0.57,1.69l-0.57-1.69
	h-0.79l0.98,2.83c-0.05,0.16-0.13,0.27-0.23,0.31c-0.11,0.04-0.25,0.06-0.42,0.05h-0.3l0.21,0.74c0.25,0,0.46-0.06,0.63-0.18
	c0.16-0.11,0.3-0.27,0.4-0.46c0.11-0.19,0.2-0.39,0.28-0.62l1.04-2.67H41.75z M48.56,35.33c-0.26,0.19-0.5,0.32-0.74,0.39
	c-0.24,0.06-0.49,0.09-0.76,0.09c-0.28-0.01-0.54-0.08-0.76-0.23c-0.22-0.15-0.39-0.34-0.52-0.58c-0.13-0.24-0.19-0.51-0.2-0.8
	c0.01-0.48,0.16-0.86,0.45-1.14c0.29-0.28,0.66-0.43,1.1-0.44c0.28,0,0.52,0.03,0.74,0.1c0.22,0.07,0.45,0.18,0.68,0.34v-1
	c-0.37-0.2-0.86-0.3-1.48-0.3c-0.5,0-0.94,0.11-1.33,0.33c-0.38,0.21-0.68,0.51-0.9,0.88c-0.22,0.38-0.33,0.8-0.33,1.29
	c0,0.47,0.11,0.89,0.32,1.25c0.21,0.36,0.51,0.65,0.89,0.86c0.38,0.21,0.83,0.31,1.35,0.32c0.29,0,0.56-0.02,0.81-0.07
	c0.25-0.05,0.47-0.15,0.67-0.29V35.33z M54.39,34.23c0,0.5-0.1,0.93-0.3,1.3c-0.2,0.37-0.47,0.65-0.83,0.86
	c-0.35,0.21-0.77,0.31-1.25,0.31c-0.48,0-0.89-0.11-1.25-0.31c-0.36-0.2-0.63-0.49-0.83-0.86c-0.2-0.37-0.29-0.8-0.3-1.3
	c0.01-0.75,0.23-1.35,0.65-1.79c0.42-0.44,1-0.66,1.72-0.67c0.72,0.01,1.3,0.23,1.72,0.67C54.16,32.88,54.38,33.48,54.39,34.23
	 M53.32,34.23c0-0.49-0.12-0.88-0.34-1.18c-0.23-0.29-0.55-0.44-0.96-0.45c-0.42,0.01-0.74,0.16-0.96,0.45
	c-0.22,0.29-0.34,0.68-0.34,1.18c0,0.49,0.12,0.88,0.34,1.17c0.23,0.29,0.55,0.44,0.96,0.45c0.42-0.01,0.74-0.15,0.96-0.45
	C53.2,35.11,53.32,34.72,53.32,34.23 M58.77,35.25c-0.01-0.3-0.09-0.55-0.26-0.76c-0.16-0.2-0.36-0.36-0.59-0.46L57.2,33.7
	c-0.14-0.06-0.26-0.14-0.35-0.24c-0.09-0.1-0.14-0.22-0.14-0.35c0-0.17,0.07-0.29,0.21-0.39c0.13-0.09,0.31-0.14,0.53-0.14
	c0.19,0,0.37,0.02,0.55,0.08c0.18,0.06,0.39,0.18,0.63,0.36v-0.96c-0.14-0.07-0.31-0.13-0.53-0.19c-0.22-0.06-0.44-0.08-0.66-0.09
	c-0.51,0-0.93,0.14-1.25,0.39c-0.32,0.25-0.49,0.61-0.5,1.06c0,0.26,0.07,0.5,0.22,0.71c0.15,0.21,0.39,0.39,0.72,0.55l0.63,0.3
	c0.15,0.07,0.27,0.14,0.35,0.23c0.08,0.09,0.12,0.2,0.12,0.33c0,0.15-0.07,0.28-0.2,0.39c-0.13,0.11-0.29,0.17-0.49,0.17
	c-0.29,0-0.56-0.04-0.79-0.11c-0.24-0.07-0.45-0.17-0.63-0.29l0.09,1.02c0.22,0.08,0.45,0.13,0.68,0.15
	c0.23,0.02,0.46,0.03,0.69,0.03c0.32,0,0.6-0.06,0.85-0.18c0.25-0.12,0.45-0.29,0.6-0.5C58.69,35.79,58.76,35.54,58.77,35.25
	 M61.4,35.77v-1.18h1.29l0.27-0.8H61.4v-1.14H63l0.27-0.81h-2.89v4.76h2.7l0.3-0.83H61.4z M68.94,31.85h-0.91v2.74l-2.17-2.74h-1.29
	l0.5,0.61v4.14h0.9v-3.01l2.41,3.01h0.56V31.85z M70.1,31.85v0.85h1.27v3.9h1.02v-3.9h1.18l0.27-0.85H70.1z M76.01,31.84h-1.02v4.76
	h1.02V31.84z M81.84,31.85h-0.91v2.74l-2.17-2.74h-1.29l0.5,0.61v4.14h0.9v-3.01l2.41,3.01h0.56V31.85z M87.91,34.23
	c0,0.5-0.1,0.93-0.3,1.3c-0.2,0.37-0.47,0.65-0.82,0.86c-0.36,0.21-0.77,0.31-1.25,0.31c-0.48,0-0.89-0.11-1.25-0.31
	c-0.36-0.2-0.63-0.49-0.83-0.86c-0.2-0.37-0.3-0.8-0.3-1.3c0.01-0.75,0.23-1.35,0.65-1.79c0.42-0.44,1-0.66,1.72-0.67
	c0.72,0.01,1.29,0.23,1.72,0.67C87.68,32.88,87.9,33.48,87.91,34.23 M86.84,34.23c0-0.49-0.12-0.88-0.34-1.18
	c-0.23-0.29-0.55-0.44-0.96-0.45c-0.42,0.01-0.74,0.16-0.96,0.45c-0.23,0.29-0.34,0.68-0.34,1.18c0,0.49,0.12,0.88,0.34,1.17
	c0.22,0.29,0.55,0.44,0.96,0.45c0.41-0.01,0.73-0.15,0.96-0.45C86.73,35.11,86.84,34.72,86.84,34.23"/>
</svg>
