<?xml version="1.0" encoding="utf-8"?>
<!-- Generator: Adobe Illustrator 21.1.0, SVG Export Plug-In . SVG Version: 6.00 Build 0)  -->
<svg version="1.1" id="Layer_1" xmlns="http://www.w3.org/2000/svg" xmlns:xlink="http://www.w3.org/1999/xlink" x="0px" y="0px"
	 viewBox="0 0 160 33" style="enable-background:new 0 0 160 33;" xml:space="preserve">
<style type="text/css">
	.st0{fill:#F6F6F4;}
</style>
<path id="toto" class="st0" d="M74.42,16.52c0,9.3-7.48,16.4-18.76,16.4c-11.28,0-18.76-7.1-18.76-16.4
	c0-9.3,7.48-16.45,18.76-16.45C66.94,0.08,74.42,7.23,74.42,16.52z M45.06,16.52c0,6.68,2.39,12.75,10.76,12.75
	c8.21,0,10.45-6.07,10.45-12.75c0-6.68-2.24-12.8-10.6-12.8C47.45,3.72,45.06,9.84,45.06,16.52z M150.48,16.52
	c0,9.3-7.48,16.4-18.76,16.4c-11.28,0-18.76-7.1-18.76-16.4c0-9.3,7.48-16.45,18.76-16.45C142.99,0.08,150.48,7.23,150.48,16.52z
	 M121.11,16.52c0,6.68,2.39,12.75,10.76,12.75c8.21,0,10.45-6.07,10.45-12.75c0-6.68-2.23-12.8-10.6-12.8
	C123.5,3.72,121.11,9.84,121.11,16.52z M150.67,27.6c0-2.6,2.02-4.64,4.66-4.64c2.66,0,4.67,2.04,4.67,4.64s-2,4.63-4.67,4.63
	C152.69,32.23,150.67,30.2,150.67,27.6z M159.05,27.6c0-2.15-1.59-3.97-3.72-3.97c-2.11,0-3.72,1.82-3.72,3.97
	c0,2.15,1.61,3.95,3.72,3.95C157.44,31.56,159.05,29.75,159.05,27.6z M153.09,25.03h2.6c0.83,0,1.54,0.38,1.54,1.27
	c0,0.62-0.42,1.16-1.07,1.36l0.78,1.08c0.32,0.43,0.67,0.86,0.93,1.09v0.16h-1.08c-0.42,0-0.8-1.12-1.52-2.19h-0.49v1.37
	c0,0.49-0.01,0.54,0.62,0.58v0.24h-2.32v-0.24c0.63-0.04,0.62-0.09,0.62-0.58v-3.33c0-0.47,0.01-0.53-0.62-0.57V25.03z
	 M154.79,27.52h0.46c0.63,0,0.84-0.57,0.84-1.17c0-0.77-0.34-1.02-0.83-1.02h-0.47V27.52z M21.98,26.84V4.47
	c6.42,0,9.6,2.24,9.6,7.19v1.22h4.28V1.01H0v11.87h4.28v-1.22c0-4.95,3.18-7.19,9.6-7.19v22.38c0,1.22-0.58,1.68-2.37,1.68h-4.4
	v3.46h21.63v-3.46h-4.4C22.56,28.53,21.98,28.06,21.98,26.84z M97.57,26.84V4.47c6.42,0,9.6,2.24,9.6,7.19v1.22h4.28V1.01H75.59
	v11.87h4.28v-1.22c0-4.95,3.18-7.19,9.6-7.19v22.38c0,1.22-0.58,1.68-2.37,1.68h-4.4v3.46h21.63v-3.46h-4.4
	C98.15,28.53,97.57,28.06,97.57,26.84z"/>
</svg>
