<?xml version="1.0" encoding="utf-8"?>
<!-- Generator: Adobe Illustrator 21.1.0, SVG Export Plug-In . SVG Version: 6.00 Build 0)  -->
<svg version="1.1" id="Layer_1" xmlns="http://www.w3.org/2000/svg" xmlns:xlink="http://www.w3.org/1999/xlink" x="0px" y="0px"
	 viewBox="0 0 160 52" style="enable-background:new 0 0 160 52;" xml:space="preserve">
<style type="text/css">
	.st0{fill:#F6F6F4;}
</style>
<path id="trex" class="st0" d="M25.69,30.61c0-6.5,0.01-13-0.02-19.49c0-0.7,0.14-0.94,0.9-0.94c4.05,0.04,8.1,0.01,12.14,0.03
	c0.49,0,0.7-0.08,0.69-0.65c-0.03-2.82-0.02-5.65-0.01-8.47c0-0.48-0.08-0.69-0.65-0.69c-12.7,0.02-25.41,0.02-38.11,0
	C0.12,0.41,0,0.57,0,1.08c0.02,2.8,0.03,5.59,0,8.39c-0.01,0.6,0.14,0.75,0.74,0.75c3.57-0.03,7.14-0.02,10.71-0.01
	c1.16,0,1-0.11,1,1.04c0,12.94,0.01,25.88-0.01,38.83c0,0.65,0.14,0.85,0.82,0.84c3.89-0.03,7.78-0.03,11.66,0
	c0.65,0.01,0.79-0.2,0.78-0.81C25.69,43.6,25.69,37.11,25.69,30.61z M147.19,13.86c-5.25,0-10.28,0-15.31-0.01
	c-0.37,0-0.58,0.18-0.81,0.42c-2.87,2.97-5.74,5.93-8.62,8.89c-0.42,0.43-0.8,1.18-1.33,1.16c-0.44-0.02-0.87-0.71-1.27-1.13
	c-0.51-0.53-1.04-0.86-1.86-0.85c-4.31,0.05-8.63,0.02-12.95,0.03c-0.25,0-0.53-0.1-1.03,0.31c0.74,0.63,1.48,1.2,2.14,1.85
	c0.35,0.34,0.68,0.51,1.18,0.51c4.16-0.02,8.31-0.01,12.47-0.01c0.22,0,0.47-0.1,0.67,0.09c-0.73,1.08-1.61,1.65-3.03,1.57
	c-2.55-0.13-5.11-0.04-7.67-0.04c-0.38,0-0.77,0-1.22,0c1.3,1.68,2.54,3.22,4.93,2.69c0.56-0.12,1.17-0.03,1.75-0.01
	c0.34,0.01,0.71-0.09,0.98,0.04c-0.68,1.43-1.84,1.86-3.28,1.55c-0.03,0.33,0.16,0.44,0.29,0.54c0.51,0.41,0.45,0.71-0.01,1.19
	c-5.05,5.15-10.08,10.34-15.11,15.51c-0.84,0.86-1.67,1.74-2.53,2.64c0.16,0.05,0.2,0.08,0.25,0.08c4.9,0,9.8,0,14.7,0.01
	c0.39,0,0.64-0.16,0.89-0.42c2.98-3.05,5.96-6.09,8.93-9.15c1.34-1.39,1.33-1.4,2.68,0.02c0.09,0.1,0.2,0.18,0.28,0.28
	c0.38,0.52,0.89,0.64,1.52,0.63c4.37-0.03,8.74-0.02,13.11-0.02c0.25,0,0.51,0,0.9,0c-0.65-0.88-1.44-1.43-2.07-2.13
	c-0.37-0.41-0.76-0.56-1.32-0.56c-4.16,0.02-8.31,0.01-12.47,0.01c-0.24,0-0.52,0.1-0.83-0.17c0.24-0.2,0.5-0.33,0.64-0.54
	c0.54-0.81,1.28-0.94,2.19-0.92c2.96,0.05,5.91,0.02,8.87,0.01c0.22,0,0.47,0.11,0.67-0.1c-0.68-0.69-1.37-1.35-2.01-2.06
	c-0.35-0.39-0.74-0.53-1.26-0.52c-1.58,0.03-3.17,0.01-4.78,0.01c0.78-1.63,2.13-1.88,3.86-1.62c-0.27-0.3-0.36-0.4-0.45-0.49
	c-0.77-0.74-0.79-0.76-0.04-1.53c5.1-5.22,10.21-10.43,15.31-15.65C145.79,15.35,146.42,14.67,147.19,13.86z M43.69,18.86
	c-0.07-0.01-0.15-0.03-0.22-0.04c0-1.43-0.01-2.85,0.01-4.28c0.01-0.53-0.15-0.73-0.72-0.73c-3.76,0.03-7.51,0.02-11.27,0
	c-0.53,0-0.66,0.16-0.65,0.67c0.01,11.88,0.01,23.76,0,35.64c0,0.58,0.18,0.69,0.72,0.69c3.7-0.02,7.41-0.03,11.11,0.01
	c0.67,0.01,0.78-0.23,0.77-0.82c-0.03-3.22-0.03-6.45-0.01-9.67c0.02-3.35-0.02-6.7,0.19-10.06c0.25-3.97,2.79-6.18,6.13-6.68
	c2.36-0.35,4.75-0.59,7.15-0.48c0.37,0.02,0.66,0.06,0.65-0.49c-0.02-3.06-0.02-6.13,0-9.19c0-0.37-0.11-0.5-0.5-0.53
	c-2.7-0.21-5.3,0.23-7.83,1.15c-1.95,0.71-3.6,1.82-4.7,3.64C44.27,18.1,43.97,18.47,43.69,18.86z M125.61,43.89
	c0.81,0.83,1.48,1.47,2.08,2.16c0.33,0.39,0.69,0.5,1.17,0.49c4.49-0.02,8.99-0.01,13.48-0.02c0.22,0,0.47,0.11,0.66-0.1
	c-2.28-2.54-2.28-2.54-5.59-2.54c-0.24,0-0.48,0-0.72,0C133.08,43.89,129.47,43.89,125.61,43.89z M99.94,18.15
	c0.63,0.66,1.28,1.31,1.89,2c0.36,0.41,0.76,0.56,1.31,0.56c4.47-0.02,8.93-0.01,13.4-0.01c0.22,0,0.45,0,0.65,0
	c-0.74-0.79-1.45-1.53-2.13-2.29c-0.28-0.31-0.58-0.39-0.98-0.39c-4.55,0.01-9.09,0.01-13.64,0.01
	C100.29,18.02,100.13,17.95,99.94,18.15z M95.81,13.62c-0.08,0.11-0.15,0.22-0.23,0.34c0.68,0.59,1.38,1.15,2.02,1.79
	c0.34,0.35,0.66,0.52,1.16,0.52c4.55-0.02,9.11-0.01,13.66-0.02c0.17,0,0.37,0.08,0.53-0.09c-0.67-0.68-1.34-1.35-1.99-2.04
	c-0.35-0.38-0.75-0.5-1.27-0.5c-4.34,0.02-8.68,0.01-13.02,0.01C96.38,13.62,96.09,13.62,95.81,13.62z M129.85,48.17
	c0.75,0.78,1.39,1.41,1.98,2.09c0.37,0.42,0.77,0.55,1.32,0.55c4.42-0.02,8.84-0.01,13.26-0.02c0.25,0,0.52,0.08,0.7-0.03
	c-0.75-0.81-1.51-1.62-2.26-2.43c-0.17-0.18-0.38-0.16-0.59-0.16C139.53,48.17,134.79,48.17,129.85,48.17z M25.68,11.11
	c0-0.7,0.14-0.94,0.9-0.94c4.05,0.04,8.1,0.01,12.14,0.03c0.49,0,0.7-0.08,0.69-0.65c-0.03-2.82-0.02-5.65-0.01-8.47
	c0-0.48-0.08-0.69-0.65-0.69c-12.7,0.02-25.41,0.02-38.11,0C0.12,0.41,0,0.57,0,1.08c0.02,2.8,0.03,5.59,0,8.39
	c-0.01,0.6,0.14,0.75,0.74,0.75c3.57-0.03,7.14-0.02,10.71-0.01c1.16,0,1-0.11,1,1.04c0,12.94,0.01,25.88-0.01,38.83
	c0,0.65,0.14,0.85,0.82,0.84c3.89-0.03,7.78-0.03,11.66,0c0.65,0.01,0.79-0.2,0.78-0.81c-0.02-6.5-0.01-13-0.01-19.49
	C25.69,24.11,25.7,17.61,25.68,11.11z M131.87,13.86c-0.37,0-0.58,0.18-0.81,0.42c-2.87,2.97-5.74,5.93-8.62,8.89
	c-0.42,0.43-0.8,1.18-1.33,1.16c-0.44-0.02-0.87-0.71-1.27-1.13c-0.51-0.53-1.04-0.86-1.86-0.85c-4.31,0.05-8.63,0.02-12.95,0.03
	c-0.25,0-0.53-0.1-1.03,0.31c0.74,0.63,1.48,1.2,2.14,1.85c0.35,0.34,0.68,0.51,1.18,0.51c4.16-0.02,8.31-0.01,12.47-0.01
	c0.22,0,0.47-0.1,0.67,0.09c-0.73,1.08-1.61,1.65-3.03,1.57c-2.55-0.13-5.11-0.04-7.67-0.04c-0.38,0-0.77,0-1.22,0
	c1.3,1.68,2.54,3.22,4.93,2.69c0.56-0.12,1.17-0.03,1.75-0.01c0.34,0.01,0.71-0.09,0.98,0.04c-0.68,1.43-1.84,1.86-3.28,1.55
	c-0.03,0.33,0.16,0.44,0.29,0.54c0.51,0.41,0.45,0.71-0.01,1.19c-5.05,5.15-10.08,10.34-15.11,15.51c-0.84,0.86-1.67,1.74-2.53,2.64
	c0.16,0.05,0.2,0.08,0.25,0.08c4.9,0,9.8,0,14.7,0.01c0.39,0,0.64-0.16,0.89-0.42c2.98-3.05,5.96-6.09,8.93-9.15
	c1.34-1.39,1.33-1.4,2.68,0.02c0.09,0.1,0.2,0.18,0.28,0.28c0.38,0.52,0.89,0.64,1.52,0.63c4.37-0.03,8.74-0.02,13.11-0.02
	c0.25,0,0.51,0,0.9,0c-0.65-0.88-1.44-1.43-2.07-2.13c-0.37-0.41-0.76-0.56-1.32-0.56c-4.16,0.02-8.31,0.01-12.47,0.01
	c-0.24,0-0.52,0.1-0.83-0.17c0.24-0.2,0.5-0.33,0.64-0.54c0.54-0.81,1.28-0.94,2.19-0.92c2.96,0.05,5.91,0.02,8.87,0.01
	c0.22,0,0.47,0.11,0.67-0.1c-0.68-0.69-1.37-1.35-2.01-2.06c-0.35-0.39-0.74-0.53-1.26-0.52c-1.58,0.03-3.17,0.01-4.78,0.01
	c0.78-1.63,2.13-1.88,3.86-1.62c-0.27-0.3-0.36-0.4-0.45-0.49c-0.77-0.74-0.79-0.76-0.04-1.53c5.1-5.22,10.21-10.43,15.31-15.65
	c0.64-0.66,1.27-1.33,2.04-2.14C141.94,13.86,136.91,13.87,131.87,13.86z M69.62,34.46c-0.71,0-0.81,0.22-0.74,0.85
	c0.4,3.26,2.88,6.19,6.23,7.08c2.85,0.75,5.7,0.61,8.45-0.51c1.6-0.65,2.9-1.69,3.6-3.33c0.16-0.39,0.41-0.41,0.75-0.41
	c3.78,0.01,7.57,0.01,11.35-0.01c0.58,0,0.74,0.12,0.57,0.72c-1.08,3.8-3.33,6.74-6.59,8.92c-3.14,2.11-6.68,3.14-10.4,3.55
	c-4.5,0.49-8.99,0.4-13.34-1.04c-7.45-2.46-11.51-7.78-12.55-15.4c-0.71-5.2,0.45-10.07,3.6-14.33c2.69-3.64,6.43-5.67,10.79-6.58
	c5.89-1.23,11.76-1.11,17.44,1c6.37,2.36,9.97,7.09,11.27,13.68c0.33,1.68,0.4,3.38,0.38,5.08c-0.01,0.54-0.15,0.77-0.77,0.76
	c-5.03-0.03-10.07-0.02-15.1-0.02C79.58,34.48,74.6,34.49,69.62,34.46z M78.42,26.88c2.82,0,5.65-0.01,8.47,0.01
	c0.55,0,0.75-0.07,0.58-0.71c-0.53-2-1.76-3.42-3.61-4.21c-3.41-1.46-6.93-1.58-10.43-0.34c-2.08,0.74-3.45,2.23-4.06,4.4
	c-0.17,0.62-0.11,0.88,0.65,0.87C72.83,26.85,75.63,26.88,78.42,26.88z M43.47,18.82c0-1.43-0.01-2.85,0.01-4.28
	c0.01-0.53-0.15-0.73-0.72-0.73c-3.76,0.03-7.51,0.02-11.27,0c-0.53,0-0.66,0.16-0.65,0.67c0.01,11.88,0.01,23.76,0,35.64
	c0,0.58,0.18,0.69,0.72,0.69c3.7-0.02,7.41-0.03,11.11,0.01c0.67,0.01,0.78-0.23,0.77-0.82c-0.03-3.22-0.03-6.45-0.01-9.67
	c0.02-3.35-0.02-6.7,0.19-10.06c0.25-3.97,2.79-6.18,6.13-6.68c2.36-0.35,4.75-0.59,7.15-0.48c0.37,0.02,0.66,0.06,0.65-0.49
	c-0.02-3.06-0.02-6.13,0-9.19c0-0.37-0.11-0.5-0.5-0.53c-2.7-0.21-5.3,0.23-7.83,1.15c-1.95,0.71-3.6,1.82-4.7,3.64
	c-0.24,0.41-0.55,0.78-0.82,1.16C43.62,18.84,43.55,18.83,43.47,18.82z M127.68,46.05c0.33,0.39,0.69,0.5,1.17,0.49
	c4.49-0.02,8.99-0.01,13.48-0.02c0.22,0,0.47,0.11,0.66-0.1c-2.28-2.54-2.28-2.54-5.59-2.54c-0.24,0-0.48,0-0.72,0
	c-3.61,0-7.22,0-11.09,0C126.41,44.72,127.08,45.35,127.68,46.05z M101.83,20.14c0.36,0.41,0.76,0.56,1.31,0.56
	c4.47-0.02,8.93-0.01,13.4-0.01c0.22,0,0.45,0,0.65,0c-0.74-0.79-1.45-1.53-2.13-2.29c-0.28-0.31-0.58-0.39-0.98-0.39
	c-4.55,0.01-9.09,0.01-13.64,0.01c-0.14,0-0.31-0.07-0.5,0.13C100.57,18.81,101.22,19.46,101.83,20.14z M95.58,13.95
	c0.68,0.59,1.38,1.15,2.02,1.79c0.34,0.35,0.66,0.52,1.16,0.52c4.55-0.02,9.11-0.01,13.66-0.02c0.17,0,0.37,0.08,0.53-0.09
	c-0.67-0.68-1.34-1.35-1.99-2.04c-0.35-0.38-0.75-0.5-1.27-0.5c-4.34,0.02-8.68,0.01-13.02,0.01c-0.29,0-0.57,0-0.86,0
	C95.73,13.73,95.65,13.84,95.58,13.95z M131.83,50.26c0.37,0.42,0.77,0.55,1.32,0.55c4.42-0.02,8.84-0.01,13.26-0.02
	c0.25,0,0.52,0.08,0.7-0.03c-0.75-0.81-1.51-1.62-2.26-2.43c-0.17-0.18-0.38-0.16-0.59-0.16c-4.74,0-9.48,0-14.41,0
	C130.6,48.96,131.24,49.59,131.83,50.26z M154.34,13.86c-3.24-0.01-5.87,2.58-5.87,5.78c0,3.16,2.65,5.82,5.78,5.81
	c3.16-0.01,5.75-2.63,5.75-5.82C160,16.44,157.48,13.87,154.34,13.86z M154.27,24.41c-2.24,0.08-4.73-1.55-4.78-4.81
	c-0.04-2.64,2.18-4.78,4.78-4.78c2.63,0,4.73,2.14,4.73,4.81C159,22.32,156.94,24.4,154.27,24.41z M155.95,20.74
	c-0.21-0.28-0.19-0.42,0.11-0.62c0.8-0.5,1.03-1.26,0.82-2.15c-0.2-0.89-0.85-1.29-1.71-1.44c-0.85-0.15-1.7-0.03-2.55-0.09
	c-0.54-0.04-0.75,0.12-0.73,0.7c0.04,1.52,0.03,3.04,0,4.55c-0.01,0.54,0.06,0.79,0.72,0.8c0.71,0.01,0.71-0.34,0.67-0.83
	c-0.02-0.24,0.01-0.48-0.01-0.72c-0.02-0.31,0.11-0.38,0.41-0.42c0.77-0.11,0.96,0.51,1.19,0.96c0.45,0.91,1.12,1.18,2.19,0.87
	C156.67,21.78,156.33,21.25,155.95,20.74z M154.04,19.42c-0.89,0.07-0.76-0.45-0.75-0.98c0.01-0.76,0-0.76,0.94-0.76
	c0.94,0,1.36,0.27,1.35,0.86C155.56,19.16,155.11,19.34,154.04,19.42z"/>
</svg>
