<?xml version="1.0" encoding="utf-8"?>
<!-- Generator: Adobe Illustrator 21.1.0, SVG Export Plug-In . SVG Version: 6.00 Build 0)  -->
<svg version="1.1" id="Layer_1" xmlns="http://www.w3.org/2000/svg" xmlns:xlink="http://www.w3.org/1999/xlink" x="0px" y="0px"
	 viewBox="0 0 160 80" style="enable-background:new 0 0 160 80;" xml:space="preserve">
<style type="text/css">
	.st0{fill:#F6F6F4;}
</style>
<path id="grohe" class="st0" d="M155.52,48.36l-0.32,0.53c-0.72,1.19-1.04,1.64-2.11,2.91c-1.36,0.19-1.91,0.23-2.98,0.23
	c-3.42,0-9.02-1.07-13.5-2.58l-7.68-2.59c-5.22-1.76-9.98-2.73-13.43-2.73c-2.9,0-7.99,0.93-11.51,2.11l-9.59,3.21
	c-4.52,1.51-10.07,2.58-13.43,2.58c-3.36,0-8.91-1.07-13.44-2.58l-9.59-3.21c-3.52-1.18-8.6-2.11-11.51-2.11
	c-3.44,0-8.22,0.97-13.43,2.73l-7.68,2.59c-4.48,1.51-10.08,2.58-13.51,2.58c-1.08,0-1.62-0.04-2.97-0.23
	c-1-1.15-1.39-1.68-2.12-2.91L6.4,48.36c2.6,0.42,4.05,0.58,5.48,0.58c3.42,0,8.31-0.99,13.43-2.73l7.68-2.6
	c4.06-1.38,10.12-2.51,13.43-2.51c3.3,0,9.36,1.14,13.42,2.51l7.68,2.6c5.12,1.74,10.02,2.73,13.44,2.73
	c3.42,0,8.31-0.99,13.43-2.73l7.68-2.6c4.05-1.37,10.12-2.51,13.41-2.51c3.32,0,9.37,1.13,13.44,2.51l7.68,2.6
	c5.12,1.74,10.01,2.73,13.43,2.73C151.46,48.94,152.92,48.79,155.52,48.36L155.52,48.36z M144.06,59.17l-11.18-3.43
	c-5.03-1.54-6.97-2.09-9.65-2.68c-2.84-0.63-5.68-0.99-7.74-0.99c-3.24,0-9.43,1.15-13.42,2.5l-7.68,2.6
	c-5.2,1.76-9.98,2.73-13.47,2.73c-3.51,0-8.25-0.96-13.47-2.73l-7.68-2.6c-3.98-1.35-10.19-2.5-13.43-2.5
	c-2.04,0-4.91,0.37-7.73,0.99c-2.65,0.59-4.75,1.17-9.65,2.68l-11.17,3.43c1.19,1.09,1.51,1.34,2.85,2.24l6.21-1.89l5.13-1.51
	l2.06-0.61c5.46-1.61,9.16-2.3,12.31-2.3c2.87,0,8.05,0.95,11.51,2.11l9.6,3.22C71.94,61.94,77.51,63,80.92,63
	c3.4,0,9.01-1.07,13.47-2.57l9.59-3.22c3.44-1.16,8.66-2.11,11.51-2.11c3.17,0,6.84,0.69,12.31,2.3l2.06,0.61l5.13,1.51l6.22,1.89
	C142.55,60.5,142.86,60.25,144.06,59.17L144.06,59.17z M131.55,66.44l-0.7-0.26l-1.92-0.64c-5.57-1.68-10.03-2.52-13.43-2.52
	c-2.85,0-7.68,0.82-11.51,1.95l-1.91,0.56c-0.97,0.32-1.62,0.53-1.93,0.64l-1.92,0.66l-1.91,0.65l-1.92,0.65
	c-5.83,1.89-9.98,2.73-13.43,2.73c-2.97,0-7.38-0.81-11.52-2.12l-1.92-0.61L65.6,67.5l-1.91-0.65l-1.92-0.66l-1.93-0.64
	c-5.56-1.68-10.03-2.52-13.42-2.52c-2.87,0-7.69,0.82-11.52,1.95l-1.91,0.56c-1.36,0.44-1.64,0.54-2.63,0.9l3.86,2l0.87-0.26
	c4.5-1.39,8.38-2.12,11.34-2.12c2.49,0,6.38,0.63,9.58,1.56l1.92,0.56l1.91,0.62l1.93,0.64l1.92,0.66l1.91,0.65l1.92,0.64
	c5.77,1.77,10.01,2.58,13.44,2.58c2.94,0,7.44-0.79,11.51-2.01l1.92-0.58l1.92-0.64l1.91-0.65l1.92-0.66l1.93-0.64l1.91-0.62
	c4.9-1.45,8.51-2.12,11.51-2.11c2.96,0,6.83,0.72,11.33,2.11l0.86,0.26L131.55,66.44L131.55,66.44z M21.88,21.07v8.41
	c-1.92,0.81-3.84,1.21-5.75,1.21c-4.93,0-8.39-3.8-8.39-9.22c0-5.83,4.14-9.9,10.08-9.9c3.32,0,6.61,0.93,10.6,2.98V8.97
	c-5.09-2.08-7.61-2.68-11.37-2.68C6.64,6.29,0,12.17,0,21.38c0,8.76,6.44,14.59,16.13,14.59c4.32,0,9.44-1.39,13.18-3.57V21.07
	H21.88L21.88,21.07z M35.48,7.11v28.05h7.32V12.4h3.16c4.14,0,5.99,1.32,5.99,4.26c0,3.01-2.07,4.72-5.72,4.72l-1.61-0.04H43.8
	l10.17,13.81h9.35l-9.32-11.28c3.46-1.56,5.31-4.34,5.31-7.98c0-5.94-3.85-8.79-11.88-8.79H35.48L35.48,7.11z M103.58,7.11v28.05
	h7.32V23.17h12.93v11.99h7.32V7.11h-7.32v10.37H110.9V7.11H103.58L103.58,7.11z M138.95,7.11v28.05H160v-5.49h-13.74V23h10.1v-5.28
	h-10.1v-5.11h12.14v-5.5H138.95L138.95,7.11z M63.86,21.14c0-8.73,7.28-15.12,17.25-15.12c9.97,0,17.25,6.38,17.25,15.12
	c0,8.71-7.3,15.11-17.25,15.11C71.16,36.25,63.86,29.85,63.86,21.14L63.86,21.14z M71.58,21.14c0,5.78,3.93,9.82,9.53,9.82
	c5.61,0,9.54-4.05,9.54-9.82c0-5.79-3.92-9.83-9.54-9.83C75.49,11.31,71.58,15.35,71.58,21.14L71.58,21.14z"/>
</svg>
