<?xml version="1.0" encoding="utf-8"?>
<!-- Generator: Adobe Illustrator 22.0.1, SVG Export Plug-In . SVG Version: 6.00 Build 0)  -->
<svg version="1.1" id="Layer_1" xmlns="http://www.w3.org/2000/svg" xmlns:xlink="http://www.w3.org/1999/xlink" x="0px" y="0px"
	 viewBox="0 0 160 55" style="enable-background:new 0 0 160 55;" xml:space="preserve">
<style type="text/css">
	.st0{fill:#F6F6F4;}
</style>
<path id="azek" class="st0" d="M69.8,36.4c-0.3,0-0.7,0-1.1,0c-11.2,0-22.4,0-33.6,0c-0.7,0-1-0.2-1.4-0.8
	c-3.8-6.4-7.6-12.8-11.5-19.1c0-0.1-0.1-0.2-0.2-0.3c-0.4,0.7-0.8,1.3-1.1,2c-1.1,1.9-2.2,3.7-3.3,5.6c-0.3,0.5-0.2,0.7,0.4,0.7
	c2.4,0,4.7,0,7.2,0c-1,1.7-2,3.2-2.8,4.8c-0.8,1.7-1.9,2.2-3.7,2c-1.5-0.2-3,0-4.6-0.1c-0.5,0-0.7,0.1-0.9,0.5
	c-0.9,1.6-1.8,3.1-2.6,4.6c-0.2,0.3-0.3,0.5-0.8,0.5c-3.3,0-6.6,0-9.9,0c0.9-1.7,1.7-3.4,2.7-5c0.4-0.7,0.2-0.8-0.5-0.7
	c-1.7,0-1.7,0-1.7-1.7c0-1.4,0-2.8,0-4.2c0-0.7,0.1-1,0.9-0.9c1.7,0.1,3.5,0,5.2,0c0.5,0,0.8-0.1,1-0.6C11.7,16.7,16,9.5,20.2,2.4
	c0.3-0.6,0.7-0.8,1.4-0.8c1.1,0.1,2.2,0,3.4,0c0.5,0,0.8,0.1,1.1,0.6c4.8,8.1,9.6,16.3,14.4,24.4c0.3,0.5,0.4,0.5,0.8,0.1
	C46.5,20.8,51.7,15,57,9.2c0.1-0.1,0.2-0.2,0.3-0.4c-0.5-0.2-0.9-0.1-1.3-0.1c-4.9,0-9.8,0-14.6,0c-0.3,0-0.5,0-0.7-0.2
	c-1.2-2.3-2.5-4.6-3.7-6.8c0.2-0.2,0.5-0.1,0.7-0.1c10.1,0,20.2,0,30.3,0c0.7,0,0.9,0.2,0.9,0.9c-0.1,2,0,4.1,0,6.1
	c0,0.5-0.1,0.9-0.5,1.3c-5.5,6.1-11,12.1-16.5,18.2c-0.1,0.1-0.1,0.2-0.2,0.3c0.2,0.2,0.5,0.1,0.8,0.1c4.2,0,8.3,0,12.5,0
	c0.6,0,1,0.2,1.3,0.8c1.2,2.3,2.3,4.5,3.5,6.8C69.8,36,69.9,36.1,69.8,36.4z M112.6,15.3c0-3.9,0-7.8,0-11.7c0-0.3-0.1-0.7-0.1-1
	c0-0.5-0.2-0.6-0.7-0.6c-2.6,0-5.2,0-7.8,0c-1,0-1,0-1,1c0,8.3,0,16.7,0,25c0,2.7-0.1,5.5,0,8.2c0,0.6,0.2,0.6,0.7,0.6
	c2.7,0,5.4,0,8.2,0c0.7,0,0.8-0.2,0.8-0.8c0-4.2,0-8.4,0-12.6c0-0.3-0.1-0.6,0.1-0.8c4,4.6,7.9,9.2,11.9,13.8
	c0.2,0.2,0.3,0.5,0.8,0.5c3.7,0,7.4,0,11,0c0.2,0,0.4,0.1,0.6-0.1c-0.1-0.1-0.1-0.1-0.1-0.2c-5.3-5.6-10.6-11.3-15.9-16.9
	c-0.3-0.4-0.4-0.6,0-1c4.2-4.5,8.5-9,12.7-13.5c0.9-1,1.9-2,2.9-3.2c-0.3,0-0.4,0-0.4,0c-3.7,0-7.4,0-11,0c-0.4,0-0.7,0.1-1,0.5
	c-2.5,3.1-5.1,6.2-7.7,9.3c-1.2,1.5-2.4,2.9-3.8,4.6C112.6,15.9,112.6,15.6,112.6,15.3z M99.3,8.9c-1.4-2.3-2.8-4.7-4.1-7
	c-0.2-0.4-0.5-0.4-0.9-0.4c-7.1,0-14.2,0-21.3,0c-0.5,0-0.7,0.2-0.7,0.7c0,11.3,0,22.6,0,33.9c0,0.5,0.1,0.8,0.7,0.8
	c7.2,0,14.5,0,21.8,0c0.4,0,0.7-0.1,1-0.5c1.1-1.7,2.2-3.4,3.4-5.1c0.5-0.8,1-1.6,1.6-2.5c-0.3,0-0.5,0-0.6,0c-6,0-11.9,0-17.9,0
	c-0.6,0-0.8-0.1-0.8-0.8c0.1-1.5,0.1-3,0-4.6c0-0.7,0.2-0.8,0.8-0.8c5,0,10.1,0,15.1,0c1.2,0,1,0.1,1-1c0-1.8,0-3.7,0-5.5
	c0-0.8-0.2-0.9-0.9-0.9c-5.1,0-10.2,0-15.3,0c-0.6,0-0.8-0.1-0.8-0.8c0.1-1.5,0.1-2.9,0-4.4c0-0.6,0.1-0.8,0.8-0.8c4.5,0,9,0,13.4,0
	c1.2,0,2.4,0,3.8,0C99.3,9.1,99.3,9,99.3,8.9z M132.3,20.1c4.4,5.3,8.8,10.6,13.2,15.8c0.3,0.4,0.3,0.6,0,1
	c-4.2,5-8.4,9.9-12.6,14.9c-0.5,0.6-1.1,1.1-1.5,1.9c0.4,0,0.6,0,0.9,0c3.6,0,7.3-0.1,10.9,0c1.7,0.1,2.8-0.4,3.8-1.7
	c4.2-5.1,8.4-10.1,12.7-15.1c0.4-0.5,0.3-0.7,0-1.2c-4.3-5-8.7-10-12.9-15.1c-0.8-1-1.7-1.4-3-1.4c-3.9,0.1-7.9,0-12,0
	C132,19.7,132.1,19.9,132.3,20.1z M62.6,52.7c-0.5,0.1-1.1,0-1.6-0.2c-0.3-0.1-0.7-0.3-0.8,0.3c0,0.4-0.5,0.9,0.3,1.2
	c0.8,0.2,1.5,0.2,2.3,0.2c1.9-0.1,3-1.2,3-3c0-1.6,0-3.2,0-4.8c0-0.3,0.3-0.7-0.2-0.8c-0.5-0.1-1.1-0.3-1.5,0.2
	c-0.3,0.4-0.4,0.2-0.6,0c-0.2-0.1-0.4-0.2-0.6-0.3c-1.4-0.4-2.8,0.3-3.3,1.7c-0.6,1.6-0.1,3.3,1.2,4.1c1,0.5,1.9,0.3,2.8-0.2
	C63.9,52,63.5,52.5,62.6,52.7z M63.9,49.3c-0.1,0.5-0.5,0.8-1,0.8c-0.5,0.1-0.9-0.2-1.1-0.6c-0.3-0.7-0.3-1.4,0-2.1
	c0.3-0.5,0.7-0.8,1.3-0.6c0.6,0.2,0.8,0.6,0.8,1.2c0,0.1,0,0.3,0,0.2C63.9,48.8,64,49,63.9,49.3z M30.6,51.5c0.6,0,0.3-0.6,0.3-0.9
	c0-1.2,0-2.5,0-3.8c0-1.5,0-1.5-1.6-1.5c-0.4,0-0.6,0.2-0.5,0.6c0,1,0,1.9,0,2.9c0,0.9-0.3,1.2-1,1.2c-0.8,0-0.9-0.6-0.9-1.2
	c0-0.7,0-1.3,0-2c0-1.6,0-1.5-1.6-1.4c-0.4,0-0.5,0.1-0.5,0.5c0,1.2,0,2.3,0,3.4c0.1,1.7,1.1,2.5,2.7,2.3c0.5-0.1,1-0.4,1.5-0.8
	C29.3,52,30.1,51.5,30.6,51.5z M105,46.8c0-1.5,0.3-1.3-1.4-1.4c-0.5,0-0.7,0.1-0.6,0.6c0,0.9,0,1.9,0,2.8c0,0.7-0.3,1.1-0.9,1.2
	c-0.6,0.1-1-0.4-1-1.1c0-0.7,0-1.4,0-2.2c0-1.4-0.2-1.6-1.7-1.4c-0.3,0-0.4,0.2-0.4,0.5c0,1.1-0.1,2.3,0,3.4c0.2,2.3,1.9,3,3.9,1.8
	c0.1-0.1,0.3-0.3,0.4-0.1c0.2,0.9,0.8,0.4,1.3,0.5c0.5,0.1,0.7-0.2,0.6-0.7c-0.1-0.9,0-1.8-0.1-2.5C105,47.8,105,47.3,105,46.8z
	 M52,50.3c0,1.3,0,1.3,1.3,1.3c0.5,0,0.8-0.1,0.7-0.7c0-1,0-1.9,0-2.9c0-0.6,0.4-1,1-1.1c0.6,0,0.9,0.4,1,1c0.1,0.8,0,1.6,0.1,2.4
	c0,1.5-0.3,1.2,1.3,1.3c0.5,0,0.7-0.1,0.7-0.6c0-1,0-2.1,0-3.1c0-1-0.3-1.8-1.2-2.3c-0.9-0.5-1.9-0.3-2.7,0.3
	c-0.1,0.1-0.3,0.3-0.4,0.1c-0.1-0.9-0.8-0.5-1.2-0.5c-0.4-0.1-0.6,0.1-0.6,0.6c0,0.8,0,1.7,0,2.5C52,49.1,52,49.7,52,50.3z
	 M120.8,51.6c1.1-0.3,1.7-0.9,1.7-1.8c0.1-0.8-0.4-1.4-1.5-1.9c-0.3-0.1-0.6-0.2-0.8-0.3c-0.2-0.1-0.5-0.2-0.4-0.6
	c0.1-0.3,0.4-0.3,0.7-0.3c0.3,0,0.7,0,0.9,0.1c0.4,0.2,0.5,0.1,0.7-0.3c0.3-0.7,0-1-0.7-1.1c-0.6-0.1-1.3-0.1-1.9,0
	c-0.9,0.2-1.6,0.9-1.7,1.7c-0.1,0.7,0.4,1.4,1.3,1.8c0.3,0.1,0.6,0.2,1,0.4c0.2,0.1,0.5,0.2,0.4,0.6c-0.1,0.3-0.4,0.3-0.6,0.4
	c-0.4,0-0.9,0-1.2-0.2c-0.4-0.2-0.6-0.1-0.8,0.4c-0.2,0.7-0.1,1,0.6,1.1c0.4,0.1,0.8,0.1,1.3,0.1C120.1,51.7,120.4,51.7,120.8,51.6z
	 M113.3,48.7c0,0.2,0,0.5,0,0.7c0.1,1.9,0.9,2.6,2.8,2.3c0.6-0.1,0.6-0.4,0.6-0.8c0-0.3,0.1-0.8-0.5-0.8s-0.8-0.3-0.8-0.9
	c0-0.5,0-1.1,0-1.6c-0.1-0.6,0.2-0.8,0.7-0.7c0.8,0.1,0.6-0.4,0.7-0.8c0.1-0.5-0.2-0.6-0.7-0.6c-0.5,0-0.7,0-0.7-0.6
	c0-1.1,0-1-1.1-0.8c-0.6,0.1-1,0.3-0.9,1c0,0.2-0.1,0.4-0.3,0.4c-0.6,0-0.5,0.4-0.5,0.8c0,0.4,0,0.7,0.5,0.7c0.3,0,0.3,0.2,0.3,0.4
	C113.3,47.8,113.3,48.2,113.3,48.7L113.3,48.7z M110.6,51.7c0.4-0.1,1,0,0.9-0.8c-0.1-0.7-0.2-1-1-0.8c-0.1,0-0.2,0-0.3,0
	c-1.1,0-1.7-0.6-1.7-1.7c0-1,0.7-1.7,1.7-1.7c0.2,0,0.5,0,0.7,0.1c0.6,0.1,0.4-0.4,0.5-0.7c0.1-0.2,0.2-0.5-0.2-0.7
	c-1.1-0.5-3.5,0.1-4.2,1.1c-0.8,1.1-0.9,2.3-0.3,3.5c0.6,1.3,1.8,1.7,3.1,1.6C110.1,51.7,110.3,51.8,110.6,51.7z M36.5,50.9
	c0,0.5,0.2,0.7,0.7,0.7c0.2,0,0.4,0,0.6,0c0.6,0.1,0.8-0.1,0.8-0.8c0-2.3,0-4.5,0-6.8c0-1.4,0.2-1.3-1.3-1.3c-0.6,0-0.7,0.2-0.7,0.7
	c0,1.2,0,2.5,0,3.8C36.5,48.4,36.5,49.7,36.5,50.9z M78.7,45.5c-0.4,0-0.6,0.1-0.6,0.6c0,1.4,0,2.8,0,4.2c0,1.5-0.1,1.2,1.3,1.3
	c0.7,0,0.8-0.2,0.8-0.8c0-0.8,0-1.5,0-2.3c0-0.7,0.3-1.2,1-1.2c1.1,0,0.9-0.6,0.9-1.3c0-0.5-0.2-0.6-0.7-0.6c-0.6,0.1-1,0.5-1.5,1.1
	C80.1,45.2,79.3,45.5,78.7,45.5z M50.3,48.6c0-0.6,0-1.2,0-1.8c0-1.5,0.2-1.2-1.3-1.3c-0.6,0-0.7,0.2-0.7,0.7c0,1.3,0,2.7,0,4
	c0,1.6-0.3,1.4,1.5,1.4c0.5,0,0.6-0.2,0.6-0.7C50.2,50.2,50.3,49.4,50.3,48.6L50.3,48.6z M34.7,46.8c0-1.5,0.2-1.2-1.3-1.3
	c-0.6,0-0.8,0.2-0.7,0.8c0,1.3,0,2.7,0,4c0,1.5-0.3,1.3,1.3,1.3c0.6,0,0.7-0.2,0.7-0.7c0-0.8,0-1.5,0-2.3
	C34.7,47.9,34.7,47.4,34.7,46.8z M138.1,4c0,1.7,1.4,3.2,3.1,3.1c1.7,0,3.1-1.4,3.1-3.1c0-1.8-1.3-3.2-3.1-3.2
	C139.5,0.8,138.1,2.2,138.1,4z M138.6,4c0.1-1.5,1.2-2.6,2.6-2.6c1.4,0,2.6,1.2,2.6,2.6c0,1.4-1.3,2.6-2.8,2.5
	C139.7,6.5,138.6,5.2,138.6,4z M48.2,43.8c0,0.6,0.5,1,1.1,1c0.6,0,1-0.4,1.1-1c0-0.5-0.5-1-1.2-1C48.6,42.9,48.2,43.2,48.2,43.8z
	 M34.8,43.9c0-0.6-0.5-1.1-1.1-1c-0.6,0-1,0.3-1.1,1c0,0.5,0.5,1,1.1,1C34.3,44.7,34.7,44.5,34.8,43.9z M23.1,44.9
	c-0.2-1-1-1.5-2-1.7c-1.2-0.2-2.4-0.2-3.7-0.1c-0.4,0-0.6,0.2-0.6,0.7c0,2.4,0,4.7,0,7.1c0,0.5,0.2,0.7,0.6,0.7
	c1.2,0.1,2.4,0.1,3.6-0.2c0.9-0.2,1.7-0.6,2.1-1.5c0.5-1.1,0.1-2-1.4-3C22.8,46.5,23.4,45.9,23.1,44.9z M21.3,49.1
	c0,0.8-0.6,1.2-1.8,1.2c-1.3-0.1-0.5-1.1-0.6-1.7c-0.1-0.7,0-0.7,0.6-0.7C20.7,47.9,21.3,48.3,21.3,49.1z M21.1,45.5
	c0,0.6-0.6,0.9-1.6,1c-1.1,0-0.5-0.7-0.6-1.2c-0.1-0.6,0.1-0.9,0.7-0.8C20.6,44.5,21.1,44.9,21.1,45.5z M43.2,45.4
	c-1.9-0.2-3.3,1.2-3.3,3.2c0,1.2,0.4,2.2,1.5,2.8c1,0.5,2,0.5,2.9-0.3c0.1-0.1,0.3-0.2,0.3-0.1c0.2,0.9,0.9,0.4,1.4,0.5
	c0.5,0.1,0.6-0.2,0.6-0.6c0-2.3,0-4.7,0-7c0-1.4,0.2-1.2-1.3-1.3c-0.6,0-0.8,0.2-0.8,0.8c0,0.8,0,1.5,0,2.4
	C44,45.6,43.6,45.4,43.2,45.4z M43.3,50.2c-0.8,0-1.3-0.6-1.3-1.6c0-1,0.6-1.8,1.4-1.7c0.8,0,1.2,0.6,1.2,1.7
	C44.5,49.7,44.1,50.2,43.3,50.2z M91.2,46.5c-0.9,1.2-0.8,3.3,0.3,4.4c1,1,2.3,1,3.8,0c0.1,1,0.9,0.5,1.4,0.6
	c0.4,0.1,0.5-0.1,0.5-0.5c0-2.3,0-4.7,0-7c0-1.5,0.2-1.3-1.3-1.3c-0.1,0-0.1,0-0.2,0c-0.4,0-0.6,0.1-0.6,0.5c0,0.8,0,1.7,0,2.6
	C93.5,45.1,92.1,45.3,91.2,46.5z M95.2,48.5c0,1.2-0.4,1.7-1.2,1.7c-0.8,0-1.3-0.6-1.3-1.6c0-1,0.5-1.8,1.3-1.8
	C94.8,46.8,95.2,47.4,95.2,48.5z M70.6,50.2c0,1.5,0,1.5,1.5,1.4c0.4,0,0.6-0.2,0.5-0.6c0-0.6,0-1.2,0-1.8c0-0.5,0.1-0.6,0.6-0.6
	c0.8,0,1.5-0.1,2.2-0.4c1-0.5,1.7-1.5,1.5-2.7c-0.1-1.2-0.8-2-2-2.3c-1.2-0.3-2.5-0.2-3.7-0.1c-0.5,0-0.6,0.2-0.6,0.7
	c0,1.2,0,2.3,0,3.5C70.6,48.3,70.6,49.2,70.6,50.2z M73.3,44.6c1,0,1.6,0.5,1.6,1.3c0,0.8-0.6,1.3-1.6,1.3c-1.2,0-0.5-0.8-0.7-1.3
	C72.8,45.4,72.2,44.6,73.3,44.6z M89.6,48.5c0-1.8-1.3-3.1-3.3-3.1c-2,0-3.4,1.3-3.4,3.2c0,1.9,1.3,3.1,3.3,3.1
	C88.2,51.7,89.6,50.4,89.6,48.5z M85,48.6c0-0.5,0.1-0.9,0.3-1.3c0.2-0.4,0.5-0.6,1-0.6c0.5,0,0.8,0.2,1,0.6c0.3,0.7,0.3,1.5,0,2.2
	c-0.2,0.4-0.5,0.7-1.1,0.7s-0.8-0.3-1-0.7C85,49.3,84.9,48.9,85,48.6z M141.8,5.4c-0.1-0.2-0.3-0.4-0.4-0.7
	c-0.2-0.3-0.4-0.4-0.7-0.4c-0.4,0.1-0.2,0.4-0.2,0.7c-0.1,0.2,0.2,0.7-0.3,0.7c-0.5,0-0.2-0.4-0.2-0.7c0-0.7,0-1.4,0-2.2
	c0-0.4,0.1-0.5,0.5-0.5c0.4,0,0.9,0,1.3,0.1c0.8,0.1,1.1,1,0.6,1.5c-0.5,0.4-0.3,0.7,0,1c0.2,0.2,0.3,0.4,0.4,0.7
	C142.2,5.7,142,5.7,141.8,5.4z M141.1,2.8c-0.3,0-0.7-0.1-0.6,0.5c0,0.3,0.1,0.6,0.5,0.5c0.4-0.1,0.9,0.1,0.9-0.5
	C141.8,2.8,141.5,2.8,141.1,2.8z"/>
</svg>
