<?xml version="1.0" encoding="utf-8"?>
<!-- Generator: Adobe Illustrator 21.1.0, SVG Export Plug-In . SVG Version: 6.00 Build 0)  -->
<svg version="1.1" id="logo" xmlns="http://www.w3.org/2000/svg" xmlns:xlink="http://www.w3.org/1999/xlink" x="0px" y="0px"
	 viewBox="0 0 359.7 317.9" style="enable-background:new 0 0 359.7 317.9;" xml:space="preserve">
<style type="text/css">
	.st0{fill:#FFFFFF;}
</style>
<title>logo</title>
<polygon class="st0" points="121.8,29.1 119,22.2 125.2,19.6 128.1,26.5 131.4,25.1 124.8,9.2 121.5,10.6 124.1,16.8 117.8,19.4 
	115.2,13.2 111.9,14.6 118.4,30.5 "/>
<path class="st0" d="M138.8,298.4c0.5-0.2,1.1-0.2,1.6,0c0.6,0.2,1.1,0.4,1.6,0.7c0.7,0.4,1.4,0.9,2,1.3l1.9-2.4
	c-0.7-0.6-1.4-1.1-2.2-1.5c-0.7-0.4-1.5-0.8-2.4-1c-1.5-0.5-3-0.4-4.5,0.1c-1.2,0.6-2.1,1.7-2.4,3c-0.2,0.7-0.2,1.4-0.1,2.2
	c0.1,0.7,0.4,1.3,0.8,1.9c0.5,0.7,1.2,1.4,1.9,2c0.6,0.5,1.3,1.1,1.8,1.7c0.3,0.3,0.5,0.6,0.6,1c0.1,0.3,0.1,0.6,0,0.9
	c-0.1,0.5-0.5,1-1,1.1c-0.6,0.2-1.3,0.2-1.9,0c-0.7-0.2-1.4-0.5-2-0.9c-0.9-0.5-1.7-1.1-2.5-1.8l-0.9,3.3c1.3,1.1,2.8,1.8,4.4,2.3
	c1.6,0.5,3.3,0.5,4.8-0.1c1.3-0.6,2.3-1.7,2.6-3.1c0.3-1,0.3-2-0.1-3c-0.6-1.2-1.5-2.3-2.6-3.1c-0.7-0.5-1.3-1.1-1.9-1.8
	c-0.2-0.2-0.4-0.5-0.5-0.8c-0.1-0.3-0.1-0.6,0-0.9C138,299,138.3,298.6,138.8,298.4z"/>
<path class="st0" d="M127.2,298.9c-0.6-0.6-1.2-1.3-1.7-1.9c-0.2-0.3-0.3-0.6-0.4-0.9c-0.1-0.3,0-0.6,0.1-0.9c0.2-0.5,0.5-0.8,1-1
	c0.5-0.2,1.1-0.1,1.6,0.1c0.6,0.2,1.1,0.5,1.6,0.8c0.7,0.5,1.3,1,1.9,1.5l2.1-2.2c-0.6-0.6-1.3-1.2-2.1-1.7
	c-0.7-0.5-1.5-0.9-2.3-1.2c-1.4-0.6-3-0.7-4.5-0.3c-1.3,0.5-2.3,1.5-2.7,2.8c-0.3,0.7-0.4,1.4-0.3,2.1c0.1,0.7,0.3,1.3,0.6,1.9
	c0.5,0.8,1,1.5,1.7,2.2c0.6,0.6,1.2,1.2,1.7,1.9c0.2,0.3,0.4,0.6,0.5,1c0.1,0.3,0.1,0.6,0,0.9c-0.2,0.5-0.6,0.9-1.1,1
	c-0.6,0.1-1.3,0.1-1.9-0.2c-0.7-0.3-1.3-0.6-2-1.1c-0.8-0.6-1.6-1.3-2.4-2l-1.2,3.1c1.2,1.2,2.6,2.1,4.2,2.7
	c1.5,0.7,3.2,0.8,4.8,0.4c1.3-0.4,2.4-1.5,2.8-2.8c0.4-1,0.5-2,0.2-3C129,300.9,128.2,299.8,127.2,298.9z"/>
<path class="st0" d="M101.8,278.4l-10.9,8.4h-0.1l4-13.1l-4.1-2.8l-9.6,14.2l2.7,1.8l4.5-6.6c0.5-0.8,1.5-2.3,2.9-4.7l0.1,0.1
	l-4.1,13.4l2.8,1.9l11.2-8.6l0.1,0.1c-1.3,1.7-2.1,2.8-2.4,3.2l-0.8,1.1l-4.5,6.7l2.8,1.9l9.6-14.2L101.8,278.4z"/>
<polygon class="st0" points="83,99.6 83.7,99.1 84.5,98.6 86,97.6 86.8,97.2 87.7,96.8 88.9,96.5 90.1,96.3 91.1,96.4 91.9,96.7 
	92.7,97.3 93.3,98 93.7,98.8 93.9,99.7 94.1,101.5 94.1,103.4 93.9,105.2 93.7,106.2 93.3,108 93,108.9 92.8,109.8 92.6,110.5 
	92.4,111.4 92.1,112.4 91.9,113.3 91.3,115.1 91,115.9 90.7,116.8 90.4,117.6 90.1,118.6 89.8,119.8 89.4,121.2 89,122.3 
	88.7,123.3 88.3,124.4 88,125.4 87.8,126.6 87.6,127.5 87.3,128.4 87,129.6 86.5,131.4 85.8,133.5 85.5,134.7 85.3,135.6 
	85.2,136.5 84.9,137.5 84.7,138.7 84.2,140.8 84,142.2 83.7,143.5 83.5,145.3 83.5,146.3 83.3,147.6 83.1,148.8 83,149.7 83,150.6 
	83.1,151.6 83.1,153.4 83.4,156.1 83.5,156.9 83.6,157.8 83.9,158.8 84.1,159.4 84.4,160.4 85.6,162.6 86.3,163.6 86.6,164 
	87.3,164.9 88.1,165.6 88.8,166.1 89.4,166.6 90.1,167 90.9,167.5 91.8,167.8 93.1,168 94.6,167.8 95.9,166.9 96.8,165.6 
	97.3,164.1 97,162.7 96.2,161.8 95.5,161.3 94.7,160.7 94.1,160.1 93.5,159.4 92.9,158.5 92.7,157.9 92.2,157 91.9,156.1 
	91.7,155.3 91.6,154.4 91.5,153.4 91.4,152.5 91.4,151.6 91.3,150.7 91.3,148.9 91.4,147.9 91.6,146.7 91.8,145.4 92,144.3 
	92.2,143.1 92.5,141.8 92.7,140.8 92.8,139.9 93.4,137.2 93.7,136.4 94,135.5 94.3,134.7 94.6,133.8 94.8,132.9 95,132.1 
	95.2,131.2 95.5,130.3 95.7,129.4 96,128.6 96.3,127.7 96.5,126.8 96.8,125.9 97,125.1 97.2,124.2 97.8,122.4 98,121.6 98.6,119.8 
	98.8,118.9 99,118.1 99.6,116.3 99.8,115.5 100.1,114.6 100.3,113.7 100.9,111.9 101.1,111 101.6,108.4 101.8,107.4 102,106.7 
	102.2,105.8 102.3,104.9 102.4,103.8 102.5,103.2 102.5,102.2 102.6,101.3 102.6,99.5 102.5,98.5 102.4,97.6 102.2,96.7 102,95.9 
	101.7,95 101.3,94.2 100.8,93.5 100.2,92.8 99.5,92.1 98.8,91.6 97.2,90.8 96.3,90.5 94.5,90.1 90.8,90.1 89.6,90.3 88.3,90.7 
	84.9,92 84.1,92.5 82.7,93.5 82,94.1 80.7,95.1 79.7,95.9 77.8,97.6 77.1,98.2 75.2,100.1 74.6,100.8 74.1,101.5 73.4,102.1 
	72.8,102.8 72.3,103.5 71.7,104.2 71.2,104.9 70.7,105.7 70.3,106.2 70.2,106.1 70.3,105.5 70.4,104.2 70.6,103 70.7,102.1 
	70.7,100.2 70.6,99.1 70.2,97.1 70,96 69.7,95.1 69.4,94.3 68.4,92.9 67,91.7 66.2,91.2 65.1,90.7 63.9,90.3 62.9,90.2 59.4,90.2 
	58.4,90.3 57.4,90.5 56.4,90.8 55.2,91.3 54.3,91.6 53.6,92.1 52.8,92.6 51.9,93.2 51.4,93.5 50.5,94 49.8,94.6 49.1,95.1 
	48.5,95.8 47.9,96.4 47.2,97 46.6,97.6 45.2,98.8 44.5,99.6 43.6,100.5 42.8,101.4 42.2,102 41,103.4 40.4,104.3 40.1,104.9 
	39.4,105.7 39.1,105.9 39.2,105.4 39.5,104.6 40.1,101.9 40.3,101.1 40.5,100.2 40.8,99.3 41,98.4 41.3,97.6 41.6,96.7 41.9,95.9 
	42.5,93.2 42.6,92.3 42.3,91.5 41.5,90.9 40.7,90.4 39.7,90.1 38.7,90 37.7,90 36.8,90.2 36,90.7 35.3,91.3 34.8,92.1 33,94.2 
	32.3,94.8 31.6,95.3 30.9,95.9 30.3,96.4 28.9,97.6 28.1,98.2 27.3,98.7 26.5,99.3 25.6,99.8 24.6,100.4 22.9,101.3 22.1,101.7 
	21.2,102.1 20.1,102.5 18.1,103.4 15.6,104.5 14,105.3 11.9,106 10.8,106.5 9.8,107 8.7,107.6 7.6,108.1 6.7,108.6 6,109.1 
	5.3,109.7 4.6,110.2 3.8,110.8 3,111.7 2.2,112.7 1.7,113.6 1.1,114.7 0.4,116.8 0.2,117.7 0,118.5 0,120.4 0.2,121.7 0.5,122.9 
	0.7,123.8 1.1,124.7 1.7,125.5 2.5,126.5 3.4,127.4 4.2,128 5,128.5 5.8,128.9 6.6,129.2 7.8,129.5 9.1,129.8 10.2,130 11,130.1 
	11.9,130.1 12.7,129.7 13.3,128.7 13.7,127.2 13.2,125.8 12.2,125.2 11.3,124.9 10.4,124.5 9.7,123.9 9.1,123.1 8.7,122.3 
	8.4,121.3 8.4,119.4 8.5,118.5 8.9,116.7 9.3,115.9 9.8,115.2 11,113.8 11.7,113.3 12.6,112.6 13.1,112.3 14,111.8 14.8,111.3 
	15.7,110.9 16.8,110.4 17.9,109.8 18.8,109.3 19.6,108.9 20.4,108.4 21.2,108.1 22.1,107.7 22.9,107.3 23.6,106.8 24.4,106.3 
	26,105.5 26.8,105 28.2,104 31.7,101 32.2,100.6 32.4,100.7 32.3,101.3 32.1,102.2 31.8,103.1 31.5,103.9 30.9,105.7 30.7,106.5 
	30.5,107.4 30.1,108.3 29.5,111 29.2,111.8 29,112.7 28.7,113.6 28.5,114.5 28.2,115.3 27.6,117.1 27.2,118.9 26.9,119.7 
	26.6,120.6 26.4,121.5 26.2,122.3 25.6,124.1 25.4,125 25.2,125.8 24.9,126.7 24.7,127.6 24.4,128.5 24.1,129.3 23.5,132 
	23.2,132.9 22.9,133.7 22.3,135.5 22.1,136.4 21.7,137.7 21.4,138.9 21.2,139.9 21,140.8 20.7,141.7 20.3,142.5 20,143.4 
	19.7,144.2 19.4,145.1 19.2,146 19,146.8 18.7,147.9 18.5,148.4 18.1,149.5 17.9,150.4 17.6,151.2 17.2,153 16.9,153.9 16.6,154.7 
	16,156.5 15.9,157.4 16.1,158.5 17.1,159.5 18.6,160.1 20.3,160.3 21.9,160.1 23.2,159.3 24,158 24.5,156.8 24.8,155.9 25.1,155.1 
	25.4,154.2 25.7,153.4 25.9,152.5 26.2,151.7 26.5,150.8 26.7,150 27,149 27.5,147.4 28.1,145 28.3,144.1 28.9,142.3 29.2,141.1 
	29.5,139.8 29.8,138.9 30.1,138.1 30.4,137.2 30.7,135.9 31,134.7 31.3,133.7 32.4,130.4 32.7,129.1 33,127.5 33.4,126.2 
	34.1,124.1 34.5,122.8 34.7,121.9 35,120.7 35.4,119.5 35.8,118.7 36.3,117.9 36.7,117 37.4,115.9 38.3,114.6 39,113.5 39.6,112.7 
	40.4,111.7 41.8,109.9 42.6,108.9 43.4,107.8 43.8,107.3 44.5,106.5 45.5,105.1 46.2,104.4 47.8,102.6 48.6,101.8 49.4,101.1 
	50.4,100.3 51.2,99.6 52.6,98.4 53.3,97.9 54.2,97.5 55.3,96.9 56.4,96.4 57.3,96.3 58.3,96.2 59.2,96.3 60,96.6 60.8,97.1 
	61.5,97.8 62,98.5 62.3,99.4 62.5,100.3 62.6,101.2 62.6,104 62.5,104.9 62.3,105.7 62.1,106.6 61.9,107.6 61.6,109.4 61.4,110.3 
	61.1,111.2 60.8,112 60.2,113.8 60,114.6 59,119.1 58.8,119.9 58.6,120.8 58.3,121.7 57.9,123.5 57.7,124.3 57.1,126.1 56.9,127 
	56.6,128.2 56.3,129.5 56,130.5 55.7,131.7 55.4,133 55.2,133.9 54.9,134.8 54.3,137.5 54,138.3 53.7,139.2 53.5,140.1 53.3,140.9 
	53.1,141.8 52.9,142.8 52.6,144 52.2,145.2 51.9,146.2 51.7,147 51.5,147.9 51.2,148.8 51,149.7 50.7,150.6 50.5,151.4 50.2,152.3 
	49.9,153.1 49.6,154 49.2,154.9 48.9,156.1 48.5,157.4 48.3,158.3 48.2,159.1 48.5,159.9 49.7,160.4 51.2,160.7 52.9,160.6 
	54.5,160.1 55.8,159.2 56.7,157.9 57.2,156.7 57.8,154.9 58.1,154.1 58.4,153.2 58.8,151.4 59.2,149.8 59.5,149 59.8,148 
	60.2,146.2 60.5,145.3 60.8,144 61.1,142.8 61.4,141.8 61.7,140.7 62,139.4 62.3,138.4 62.7,136.6 63,135.7 63.2,134.9 63.5,134 
	63.7,133.1 64,132.2 64.1,131.4 64.7,128.7 65,127.8 65.2,127 66.1,124.3 66.4,123.1 66.7,121.8 66.9,120.9 67.5,119.1 67.8,118.3 
	68.2,117.4 68.9,116.4 69.6,115.2 70.2,114.3 71.2,113 71.8,112.2 72.1,111.7 73.2,110.1 74.4,108.7 75.1,108 75.6,107.3 
	76.2,106.6 77.2,105.2 77.9,104.6 78.4,103.9 79.7,102.6 80.3,102.1 81.7,100.9 "/>
<path class="st0" d="M99.9,297.4l3.5,1.7l2.9-3.1l5.6,2.8l-0.7,4.2l3.5,1.7l2.2-18.1l-4-2L99.9,297.4z M113.5,289.2
	c-0.1,0.5-0.4,2.7-1,6.5l-4-2c2.8-3,4.6-4.9,5.3-5.7C113.7,288.4,113.7,288.7,113.5,289.2z"/>
<polygon class="st0" points="202.7,19.2 206.2,19.9 208.8,6 213.4,6.9 214,3.9 201.2,1.5 200.7,4.5 205.3,5.3 "/>
<path class="st0" d="M195.5,17c1.2-0.8,1.9-2.1,2-3.5c0.1-1-0.1-2-0.6-2.9c-0.8-1.1-1.9-2-3.1-2.6c-0.8-0.4-1.5-0.9-2.2-1.4
	c-0.3-0.2-0.5-0.5-0.6-0.8c-0.1-0.3-0.2-0.6-0.1-0.8c0-0.5,0.3-0.9,0.7-1.2c0.5-0.3,1.1-0.4,1.6-0.3c0.6,0.1,1.2,0.2,1.7,0.4
	c0.8,0.3,1.5,0.6,2.2,1l1.4-2.7c-0.8-0.4-1.6-0.8-2.4-1.1c-0.8-0.3-1.7-0.5-2.5-0.5c-1.5-0.2-3.1,0.1-4.4,0.9
	c-1.1,0.8-1.8,2.1-1.9,3.4c-0.1,0.7,0,1.5,0.3,2.1c0.3,0.6,0.6,1.2,1.1,1.7c0.7,0.6,1.4,1.2,2.2,1.6c0.7,0.4,1.4,0.9,2.1,1.4
	c0.3,0.2,0.6,0.5,0.8,0.8c0.2,0.3,0.2,0.6,0.2,0.9c0,0.5-0.3,1-0.8,1.3c-0.6,0.3-1.2,0.4-1.9,0.3c-0.7-0.1-1.5-0.3-2.2-0.5
	c-1-0.4-1.9-0.8-2.8-1.3l-0.3,3.4c1.4,0.8,3.1,1.4,4.7,1.5C192.4,18.2,194.1,17.8,195.5,17z"/>
<path class="st0" d="M135.8,21.5c4.1,2,9.1,0.7,11.7-3.1c1-1.8,1.1-4.1,0.3-6.9s-2-4.7-3.7-5.8c-1.9-1.1-4.3-1.4-6.4-0.6
	c-2.2,0.4-4.1,1.8-5.3,3.8c-1,1.8-1.1,4.1-0.4,6.9C132.8,18.5,134,20.4,135.8,21.5z M135.6,10.3c0.5-1.2,1.5-2,2.8-2.3
	c2.8-0.7,4.7,0.7,5.7,4.5c1,3.7,0.1,6-2.7,6.7c-1.2,0.4-2.5,0.2-3.5-0.6C135.8,16.4,134.9,13.3,135.6,10.3L135.6,10.3z"/>
<path class="st0" d="M233.5,28.3L237,21c0.4-0.9,1-2.4,1.9-4.5h0.1l1.3,14.9l4.2,2l7.2-15.5l-3-1.4l-3.4,7.3c-0.4,0.8-1,2.3-1.8,4.4
	h-0.1l-1.3-14.8l-4.2-1.9l-7.2,15.5L233.5,28.3z"/>
<polygon class="st0" points="250,105.3 249.2,105.8 248.4,106.5 247.9,107.3 247.5,108.2 247.3,109.2 247.2,110.1 247.3,111 
	247.5,111.9 248,112.7 248.6,113.4 250.2,114.4 251.2,114.6 252.1,114.7 253.1,114.5 254,114.1 254.8,113.5 255.5,112.9 
	256.1,112.1 256.6,111.3 256.9,110.4 256.9,109.4 256.8,108.5 256.5,107.6 256,106.8 255.3,106.1 254.6,105.5 253.8,105 
	252.9,104.8 251.9,104.8 251,105 "/>
<path class="st0" d="M219.9,23.6c2.1,0.8,4.5,0.7,6.5-0.4c1.8-1,3.1-2.9,4-5.6s0.8-5-0.1-6.9c-1-2-2.9-3.5-5.1-4
	c-2.1-0.8-4.5-0.7-6.5,0.4c-1.8,1-3.1,2.9-4,5.6c-0.9,2.7-0.8,5,0.1,6.9C215.8,21.6,217.7,23.1,219.9,23.6z M218.4,13.9
	c0.3-1.5,1.2-2.8,2.3-3.8c1-0.7,2.4-0.9,3.5-0.4c2.8,0.9,3.6,3.1,2.4,6.8s-3.1,5.1-5.9,4.2c-1.2-0.3-2.2-1.2-2.7-2.3
	C217.8,16.9,217.8,15.3,218.4,13.9L218.4,13.9z"/>
<polygon class="st0" points="163.5,17.8 163.1,14.8 156.2,15.9 154.1,1.9 150.5,2.4 153.1,19.4 "/>
<path class="st0" d="M147.3,84.8l-0.5,0.2l-0.4,0.2l-0.5,0.2l-0.5,0.3L145,86l-0.3,0.2l-0.2,0.2l-0.3,0.3l-0.4,0.4l-0.4,0.4
	l-0.6,0.6l-0.2,0.3l-0.2,0.3l-0.2,0.3l-0.1-0.1l0.1-0.5l0.1-0.5l0.1-0.4l0.2-0.5l0.2-0.6l0.2-0.5l0.1-0.4l0.1-0.3l0.1-0.4l0.1-0.3
	l0.1-0.4l0.1-0.5l0.1-0.5l0.4-1.3l0.1-0.4l0.1-0.3l0.1-0.4l0.1-0.3l0.1-0.4l0.1-0.5l0.3-0.8l0.2-0.5l0.2-0.4l0.2-0.3l0.2-0.3L146,77
	l0.2-0.3l0.1-0.4l0.1-0.4l0.1-0.3v-0.4l-0.1-0.4l-0.2-0.3l-0.3-0.2l-0.3-0.2l-0.4-0.1h-0.4h-0.4l-0.3,0.2l-0.8,0.7l-0.2,0.2
	l-0.2,0.3l-0.2,0.3l-0.2,0.3l-0.2,0.4l-0.1,0.3l-0.2,0.2l-0.3,0.2l-0.5,0.1l-0.6,0.1h-0.7h-0.6h-0.5l-0.4-0.1h-0.4l-0.4-0.1
	l-0.5-0.1l-0.5-0.1l-0.4-0.2l-0.7-0.2l-0.5-0.2l-0.7-0.3l-0.4-0.2l-0.4-0.2l-0.6-0.3l-0.6-0.2l-0.7-0.3l-0.4-0.2l-0.2-0.1l-0.4-0.1
	l-0.4-0.2l-1-0.2l-0.4-0.1l-1.4-0.2H127h-0.4h-0.4H126h-0.4l-0.7,0.1h-0.4l-0.5,0.1l-0.4,0.1l-0.4,0.1l-0.4,0.2l-1,0.4l-0.4,0.2
	l-0.4,0.2l-0.3,0.3l-0.4,0.3l-0.3,0.4l-0.3,0.3l-0.3,0.4l-0.2,0.4l-0.3,0.8l-0.1,0.5v0.4v0.5l0.1,0.6l0.1,0.5l0.1,0.4l0.6,0.8
	l0.6,0.6l0.5,0.4l0.6,0.3l0.4,0.2l0.4,0.1l0.4,0.1h0.4h0.5l0.9-0.1l0.5-0.1l0.6-0.2l0.8-0.4l0.5-0.2l0.6-0.4l0.4-0.5v-0.6l-0.3-0.5
	l-0.5-0.2l-0.4,0.1l-0.4,0.2l-0.4,0.1l-0.5,0.2l-0.4,0.1l-0.4,0.1h-0.4l-0.4-0.1l-0.5-0.1l-0.4-0.2l-0.3-0.2l-0.2-0.2l-0.2-0.3
	l-0.1-0.3l-0.1-0.4v-0.3l0.1-0.4l0.2-0.4l0.1-0.2l0.2-0.3l0.2-0.3l0.3-0.2l0.4-0.3l0.6-0.3l0.5-0.2l0.4-0.1l0.4-0.1l0.7-0.1h0.4h0.4
	h0.4l0.7,0.1l0.4,0.1l1,0.4l0.5,0.2h0.2l0.4,0.2l0.4,0.1l0.9,0.4l0.4,0.2l0.2,0.2v0.3l-0.1,0.4l-0.1,0.3l-0.1,0.4l-0.1,0.4l-0.2,0.7
	L131,82l-0.1,0.4l-0.2,0.7l-0.1,0.4l-0.1,0.4v0.4l-0.2,0.7l-0.1,0.5l-0.2,0.5l-0.2,0.4l-0.1,0.5l-0.2,0.5l-0.1,0.4l-0.1,0.5
	l-0.1,0.5l-0.1,0.4l-0.3,1l-0.1,0.4l-0.2,0.5l-0.1,0.5l-0.2,0.7l-0.4,1.1l-0.1,0.4l-0.1,0.4l-0.3,0.3l-0.2,0.4l-0.1,0.3l-0.2,0.4
	l-0.1,0.3l-0.2,0.7l-0.1,0.3l-0.1,0.4l-0.4,0.6l-0.2,0.3l-0.2,0.3l-0.5,0.6l-0.3,0.3l-0.2,0.1l-0.4,0.2l-0.3,0.1l-0.4,0.1h-0.8
	l-0.5-0.1l-0.6-0.3l-0.5-0.4l-0.4-0.5l-0.2-0.4l-0.2-0.4l-0.1-0.5v-0.5v-0.4l0.1-0.5l0.2-0.6l0.3-0.6l0.3-0.6l0.2-0.5V93l-0.2-0.3
	l-0.6-0.4l-0.3-0.2h-0.4l-0.4,0.2l-0.3,0.2l-0.2,0.2l-0.3,0.2l-0.2,0.3l-0.2,0.3l-0.2,0.3l-0.2,0.3l-0.2,0.3l-0.2,0.3l-0.2,0.3
	l-0.1,0.4l-0.1,0.5l-0.1,0.5v0.4v0.4v0.3l0.2,0.7l0.2,0.6l0.3,0.6l0.2,0.3l0.2,0.3l0.3,0.2l0.2,0.2l0.6,0.5l0.4,0.2l0.5,0.2l0.6,0.1
	l0.3,0.1l0.6,0.1l0.5,0.1h0.4h0.8l0.7-0.2l0.6-0.2l0.4-0.1l0.4-0.1l0.6-0.2l0.3-0.2l0.6-0.5l0.5-0.5l0.5-0.6l0.2-0.3l0.3-0.4
	l0.2-0.4l0.2-0.4l0.5-1l0.2-0.4l0.2-0.3l0.1-0.4l0.1-0.3l0.2-0.7l0.1-0.3l0.2-0.7l0.1-0.3l0.2-0.7l0.1-0.4l0.1-0.3l0.2-0.7l0.1-0.3
	l0.1-0.4l0.2-0.7l0.1-0.4l0.1-0.3l0.1-0.4l0.1-0.4v-0.4l0.1-0.3l0.1-0.4l0.1-0.4l0.2-1.1l0.1-0.5l0.3-0.8l0.1-0.4V84l0.2-0.7
	l0.2-0.5l0.1-0.5l0.2-0.7l0.1-0.4l0.1-0.5l0.1-0.5l0.2-0.7l0.2-0.2l0.2-0.1l0.3,0.1l0.4,0.1l0.4,0.1l0.4,0.1l0.2,0.1l0.4,0.1
	l0.4,0.1l0.7,0.2h0.4h1.1h0.4l0.6-0.1h0.4l0.1,0.1v0.3l-0.2,0.7l-0.1,0.3l-0.1,0.4l-0.1,0.4l-0.1,0.3l-0.2,0.7l-0.1,0.4l-0.1,0.3
	L140,84l-0.1,0.3l-0.1,0.4l-0.1,0.4l-0.2,0.7l-0.1,0.4l-0.1,0.2l-0.1,0.4l-0.1,0.4l-0.2,0.7l-0.2,0.7l-0.1,0.4l-0.1,0.3l-0.1,0.4
	l-0.1,0.4l-0.2,0.7l-0.1,0.5l-0.1,0.5l-0.2,0.7l-0.2,0.7l-0.2,0.7l-0.1,0.3l-0.2,0.7l-0.1,0.4l-0.1,0.3l-0.1,0.4l-0.1,0.4l-0.1,0.4
	l-0.1,0.3l-0.2,0.7l-0.1,0.3l-0.2,0.7l-0.1,0.4l-0.2,0.5l-0.1,0.5l-0.1,0.4v0.5l0.4,0.4l0.6,0.2h0.6l0.6-0.1l0.5-0.2l0.3-0.2
	l0.2-0.4l0.1-0.7l0.2-0.6l0.2-0.7l0.2-0.7l0.2-0.6l0.1-0.5l0.2-0.4L140,96l0.1-0.5l0.1-0.4l0.2-0.5l0.2-0.6l0.2-0.7l0.2-0.6l0.2-0.4
	l0.2-0.4l0.2-0.4l0.2-0.3L142,91l1.2-1.4l0.8-0.8l0.4-0.2l0.2-0.2l0.6-0.4l0.3-0.2l0.6-0.3l0.4-0.2l0.4-0.1h0.4l0.4,0.1l0.3,0.2
	l0.2,0.3l0.1,0.4v0.4v0.8l-0.2,0.7l-0.1,0.4l-0.2,0.5l-0.1,0.4l-0.1,0.4l-0.1,0.4l-0.2,0.7l-0.1,0.5l-0.1,0.5l-0.1,0.4l-0.1,0.2
	l-0.2,0.4l-0.1,0.4v0.3l-0.1,0.4l-0.4,1.8l-0.1,0.3l-0.1,0.4v0.4v0.4v0.4l0.2,0.7l0.1,0.4l0.2,0.3l0.2,0.3l0.3,0.2l0.3,0.2l0.4,0.2
	l0.7,0.2h0.4h0.4h0.4l0.3-0.1l0.7-0.2l0.4-0.2l0.3-0.2l0.9-0.6l0.3-0.2l0.2-0.3l0.5-0.6l0.5-0.6l0.2-0.3l0.2-0.3l0.2-0.4l0.1-0.2
	l0.2-0.4l0.2-0.3l0.2-0.3l0.2-0.3l0-0.1v0.3l0.1,0.4l0.1,0.3l0.1,0.4l0.1,0.4l0.1,0.3l0.2,0.4l0.2,0.3l0.2,0.3l0.2,0.3l0.3,0.3
	l0.2,0.2l0.3,0.3l0.3,0.2l0.3,0.2l0.6,0.4l0.3,0.2l0.4,0.2l0.4,0.1l0.3,0.1l1.4,0.2h0.5h0.4h0.5l0.8-0.1l0.5-0.1l0.5-0.1l0.4-0.1
	l0.3-0.1l1-0.4l0.6-0.4l0.4-0.3l0.4-0.3l0.6-0.5l0.2-0.3l0.3-0.3l0.1-0.2l0.3-0.3l0.2-0.3l0.2-0.2l0.2-0.3l0.4-0.6l0.2-0.4l0.1-0.2
	l0.4-0.6l0.2-0.4l0.2-0.4l0.2-0.4l0.2-0.4l0.2-0.4l0.2-0.4V93l-0.2-0.4l-0.4-0.2h-0.4l-0.3,0.2l-0.2,0.3l-0.1,0.2l-0.2,0.4l-0.2,0.3
	l-0.2,0.3l-0.2,0.3l-0.2,0.3l-0.1,0.4l-0.2,0.3l-0.4,0.6l-0.2,0.3l-0.2,0.3l-0.5,0.6l-0.6,0.5l-0.3,0.2l-0.3,0.2l-0.6,0.4l-0.6,0.3
	l-0.7,0.3l-0.3,0.1l-0.4,0.1l-0.4,0.1l-1,0.2h-0.4h-0.4h-0.4l-0.4-0.1h-0.3l-0.4-0.1l-0.4-0.1l-0.6-0.4l-0.2-0.2l-0.2-0.3l-0.4-0.6
	l-0.2-0.7l-0.1-0.3v-0.4v-0.7v-0.4V95l0.1-0.3l0.2-0.2h0.3l1.1,0.2h0.4h0.7l0.7,0.1h0.4h0.4l0.5-0.1h0.4l0.4-0.1h0.4l0.4-0.1
	l0.4-0.1l0.3-0.3l0.2-0.1l0.4-0.2l0.2-0.1l0.4-0.2l0.3-0.2l0.6-0.5l0.5-0.6l0.2-0.3l0.2-0.3l0.2-0.4l0.1-0.2l0.2-0.4l0.2-0.5
	l0.1-0.5v-0.4v-0.5v-0.5V88l-0.1-0.4l-0.1-0.4l-0.2-0.5l-0.2-0.4l-0.2-0.3l-0.6-0.5l-0.2-0.2l-0.3-0.2l-0.4-0.2l-0.4-0.1l-0.5-0.1
	l-0.6-0.1l-0.5-0.1H164l-0.5,0.1l-0.7,0.2l-0.8,0.3l-0.5,0.2l-0.4,0.2l-0.4,0.2l-0.4,0.2l-0.4,0.3l-0.4,0.3l-0.4,0.3l-0.3,0.3
	l-0.6,0.6l-0.6,0.6l-0.2,0.3l-0.2,0.3l-0.2,0.4l-0.3,0.4l-0.2,0.4l-0.2,0.4l-0.2,0.5l-0.2,0.4l-0.1,0.4l-0.1,0.4l-0.1,0.4l-0.1,0.4
	l-0.1,0.3v0.2l-0.1,0.3l-0.3,0.7l-0.2,0.3l-0.4,0.6l-0.2,0.3l-0.2,0.3l-0.6,1l-0.4,0.6l-0.2,0.3l-0.3,0.3l-0.3,0.2l-0.5,0.5
	l-0.6,0.5l-0.3,0.2l-0.3,0.2l-0.4,0.1h-0.4l-0.2-0.2l-0.1-0.4v-0.3v-0.4v-0.4l0.2-0.7l0.1-0.5l0.1-0.5l0.1-0.4l0.2-1l0.1-0.4
	l0.1-0.5l0.1-0.4l0.1-0.4l0.1-0.5l0.6-1.7l0.1-0.3l0.1-0.4l0.1-0.5l0.1-0.5v-0.4l0.1-0.7v-0.5v-0.5l0-0.4l-0.1-0.5l-0.2-0.4
	l-0.2-0.3l-0.2-0.3l-0.3-0.2l-0.3-0.2l-0.3-0.2l-0.4-0.1l-0.3-0.1l-0.4-0.1h-0.4H148L147.3,84.8z M159.1,92.2l0.1-0.3l0.2-0.4
	l0.2-0.5l0.2-0.4l0.2-0.4l0.3-0.4l0.3-0.4l0.3-0.3l0.3-0.4l0.4-0.4l0.6-0.5l0.3-0.2l0.5-0.2l0.6-0.2l0.5-0.1l0.4-0.1h0.4l0.4,0.1
	l0.4,0.2l0.3,0.2l0.2,0.3l0.2,0.4v0.4v0.4l-0.1,0.4l-0.2,0.7l-0.2,0.4l-0.2,0.3l-0.2,0.3l-0.2,0.3l-0.3,0.2l-0.3,0.3l-0.3,0.2
	l-0.3,0.2l-0.4,0.2l-0.2,0.1l-0.4,0.2l-0.4,0.1l-0.4,0.1H161h-0.4h-0.8l-0.5-0.1l-0.2-0.2L159.1,92.2z"/>
<rect x="172.7" y="6.7" transform="matrix(1.954649e-02 -0.9998 0.9998 1.954649e-02 169.1856 189.6449)" class="st0" width="17.1" height="3.6"/>
<polygon class="st0" points="176.7,17 176.5,14 169.6,14.4 168.8,0.3 165.2,0.5 166.1,17.6 "/>
<path class="st0" d="M162.8,278.8c0.6-0.1,1.1-0.4,1.5-0.9c0.9-1.1,1-2.7,0-3.8c-0.8-0.7-1.8-1.1-2.9-1.2l-2.9-0.4l-1.4,9.9l2.1,0.3
	l0.5-3.8l1.1,0.2l1.8,4.1l2.3,0.3C164.7,282.8,163.9,281.3,162.8,278.8z M162.2,277.2c-0.5,0.2-1,0.2-1.5,0.1l-0.7-0.1l0.4-2.7
	l0.6,0.1c0.5,0,1.1,0.2,1.5,0.5c0.3,0.3,0.4,0.7,0.3,1.1C162.8,276.6,162.6,277,162.2,277.2L162.2,277.2z"/>
<path class="st0" d="M218.6,277.8c1-0.3,1.8-1,2.1-2c0.2-1.3,0.1-2.7-0.4-4c-0.3-1.3-1.1-2.5-2-3.4c-1.5-1-3.6-0.7-4.6,0.9
	c-0.2,0.2-0.3,0.5-0.4,0.7c-0.3,1.3-0.1,2.7,0.4,4c0.3,1.3,1,2.5,2,3.4C216.6,278.1,217.7,278.3,218.6,277.8z M216.8,275.8
	c-1-1.5-1.5-3.2-1.7-5c0-0.5,0.3-0.9,0.8-1.1c0.5-0.2,1,0,1.3,0.4c1,1.5,1.5,3.2,1.7,5c0,0.5-0.3,0.9-0.8,1.1
	C217.6,276.4,217.1,276.2,216.8,275.8L216.8,275.8z"/>
<path class="st0" d="M227.4,302.3c-1.2-0.7-2.5-1.1-3.8-1.2c-0.9-0.1-1.7-0.3-2.5-0.5c-0.3-0.1-0.6-0.2-0.9-0.5
	c-0.2-0.2-0.4-0.5-0.5-0.7c-0.2-0.5-0.1-1,0.2-1.4c0.3-0.5,0.8-0.8,1.4-0.9c0.6-0.2,1.2-0.3,1.8-0.3c0.8,0,1.6,0,2.4,0.1l0.3-3
	c-0.9-0.1-1.8-0.1-2.7-0.1c-0.8,0-1.7,0.2-2.5,0.4c-1.5,0.4-2.8,1.2-3.7,2.5c-0.7,1.2-0.9,2.6-0.4,3.9c0.2,0.7,0.6,1.3,1.1,1.9
	c0.5,0.5,1,0.9,1.7,1.2c0.9,0.3,1.8,0.6,2.7,0.7c0.8,0.1,1.6,0.3,2.5,0.5c0.4,0.1,0.7,0.3,1,0.5c0.3,0.2,0.4,0.5,0.5,0.8
	c0.2,0.5,0.1,1.1-0.2,1.5c-0.4,0.5-1,0.8-1.6,1c-0.7,0.2-1.5,0.3-2.2,0.3c-1,0-2.1,0-3.1-0.2l1,3.2c1.7,0.2,3.3,0.1,4.9-0.4
	c1.6-0.4,3-1.3,4.1-2.6c0.8-1.2,1-2.7,0.5-4C228.9,303.8,228.3,302.9,227.4,302.3z"/>
<polygon class="st0" points="236.9,303.6 235.3,299.5 240.6,297.3 239.5,294.5 234.1,296.7 232.7,293.2 238.5,290.9 237.4,288.1 
	228.2,291.9 234.7,307.7 243.8,304 242.7,301.2 "/>
<path class="st0" d="M212,296.9l-3.6,0.7l1.9,10.3c0.3,1,0.2,2.1-0.2,3c-0.5,0.8-1.4,1.3-2.4,1.4c-0.9,0.3-1.9,0.1-2.8-0.4
	c-0.7-0.7-1.2-1.7-1.3-2.7l-1.9-10.3l-3.6,0.7l2,10.8c0.2,1.7,1.2,3.3,2.7,4.2c1.6,0.9,3.5,1.2,5.4,0.7c1.3-0.2,2.5-0.7,3.6-1.5
	c0.9-0.6,1.6-1.6,2-2.6c0.4-1.1,0.5-2.3,0.2-3.4L212,296.9z"/>
<path class="st0" d="M359.2,137.1l-0.9-0.6h-0.9l-0.7,0.5l-0.5,0.8l-0.4,0.8l-0.4,0.9l-0.4,0.8l-0.5,0.7l-0.4,0.8l-0.5,0.8l-0.4,0.8
	l-0.5,0.8l-1,1.4l-0.6,0.8l-0.5,0.7l-1.2,1.4l-1.4,1.3l-0.7,0.6l-0.7,0.5l-1.4,1.1l-1.6,0.8l-1.7,0.7l-0.8,0.3l-0.9,0.3l-0.9,0.2
	l-2.6,0.5l-0.9,0.1h-1l-0.9-0.1l-0.9-0.2l-0.7-0.1l-0.9-0.3l-1-0.3l-1.6-1l-0.6-0.6l-0.6-0.7l-1-1.6l-0.6-1.8l-0.2-0.8l-0.1-1v-1.7
	l0.1-1v-0.9l0.2-0.7l0.5-0.4h0.7l2.7,0.6l0.9,0.1l1.8,0.1l1.8,0.2h0.9l0.9-0.1l1.2-0.2l1.1-0.1l1-0.2l0.9-0.1l0.9-0.3l1-0.3l0.9-0.4
	l0.6-0.3l1-0.6l0.6-0.2l0.9-0.5l0.7-0.5l1.4-1.2l1.2-1.4l0.5-0.7l0.4-0.8l0.5-0.9l0.3-0.5l0.4-1l0.4-1.2l0.3-1.2l0.1-1l0.1-1.3v-1.2
	l-0.1-0.9l-0.2-0.9l-0.3-0.9l-0.5-1.2l-0.6-1l-0.6-0.7l-1.4-1.2l-0.6-0.4l-0.8-0.4l-0.9-0.4l-0.9-0.3l-1.3-0.3l-1.6-0.3l-1.3-0.2
	h-2.2l-1.3,0.2l-1.8,0.4l-2.1,0.7l-1.3,0.6l-0.9,0.4l-1,0.5l-1,0.6l-0.9,0.7l-1,0.7l-0.9,0.7l-0.8,0.7l-1.5,1.5l-1.5,1.6l-0.6,0.7
	l-0.5,0.7l-0.4,0.9l-0.7,1l-0.6,1.1L320,132l-0.5,1.2l-0.4,1.1l-0.3,0.9l-0.2,0.9l-0.3,0.9l-0.1,0.4l-0.2,0.2l-0.9,1.3l-0.5,1
	l-0.5,0.9l-0.6,0.9l-0.5,0.8l-0.8,1.5l-0.6,0.9l-0.4,0.5l-0.6,0.9l-0.4,0.7l-0.6,0.8l-0.4,0.5l-0.6,0.8l-0.8,0.7l-1.2,1.1l-0.9,0.9
	l-1,0.8l-0.8,0.6l-1.1,0.6l-1.2,0.5l-0.9,0.3l-0.8,0.1h-1.7l-1-0.2l-0.8-0.3l-0.8-0.5L297,153l-0.4-0.8l-0.4-0.9l-0.2-1l-0.1-0.6
	l-0.2-1.1v-2l0.1-1.3v-2.1l0.1-1l0.2-0.9l0.2-1v-0.6l0.3-1.8l0.2-1.1l0.4-0.8l0.7-0.9l1.1-0.9l0.8-0.5l0.7-0.3l2.2-1.4l0.8-0.5
	l1.5-1.3l1.1-0.8l0.8-0.8l0.7-0.6l1.1-1.2l0.6-0.7l1.3-1.3l0.7-0.8l0.4-0.5l0.9-0.9l0.9-1l0.7-0.9l0.5-0.8l0.4-0.6l0.5-0.9l0.5-0.7
	l0.5-0.8l0.5-0.7l0.7-1.1l0.5-1.1l0.8-1.6l0.5-0.9l0.3-0.9l0.4-0.8l0.8-2.4l0.2-1l0.3-0.8l0.4-1.8l0.2-2.7v-1.8L322,98l-0.4-1.2
	l-0.4-0.9l-0.5-1.2l-0.7-1l-0.5-0.8l-1.4-1.2l-0.8-0.4l-1-0.3l-0.6-0.1l-1-0.2h-1.8l-0.9,0.2l-0.9,0.3l-1.1,0.5l-1.1,0.7l-1.6,1.1
	l-0.7,0.5l-0.7,0.7l-0.4,0.5l-1.3,1.3l-0.6,0.8l-1.3,1.8l-0.8,1.3l-0.6,0.9l-0.5,0.9l-0.5,1l-0.7,1.7l-0.5,0.9l-0.3,0.6l-0.4,0.9
	l-0.5,1.2l-0.7,1.6l-0.6,1.4l-0.2,0.6l-1,2.6l-0.4,0.9l-0.4,1.2l-0.4,1.3l-0.3,0.7l-0.4,1.3l-0.4,1.4l-0.1,0.7l-0.4,1.4l-0.3,1.2
	l-0.2,0.9l-0.3,1.3l-0.4,1.5l-0.2,0.6l-0.3,1.2l-0.2,0.5l-0.3,1.8l-0.3,1.2l-0.7,3.3v0.2l-0.3,0.3l-0.9,1.3l-0.5,1l-0.5,0.9
	l-0.6,0.9l-0.5,0.8l-0.8,1.5l-0.6,0.9l-0.4,0.5l-0.6,0.9l-0.4,0.7l-0.6,0.8l-0.4,0.5l-0.6,0.8l-0.8,0.7l-1.2,1.1l-0.9,0.9l-1,0.8
	l-0.8,0.6l-1.1,0.6l-1.2,0.5l-0.9,0.3l-0.8,0.1h-1.7l-1-0.2l-0.8-0.3l-0.8-0.5l-0.6-0.7l-0.4-0.8l-0.4-0.9l-0.2-1l-0.1-0.6l-0.2-1.1
	v-2l0.1-1.3v-2.1l0.1-1l0.2-0.9l0.2-1v-0.6l0.3-1.8l0.2-1.1l0.4-0.8l0.7-0.9l1.1-0.9l0.8-0.5l0.7-0.3l2.2-1.4l0.8-0.5l1.5-1.3
	l1.1-0.8l0.8-0.8l0.7-0.6l1.1-1.2l0.6-0.7l1.3-1.3l0.7-0.8l0.4-0.5l0.9-0.9l0.9-1l0.7-0.9l0.5-0.8l0.4-0.6l0.5-0.9l0.5-0.7l0.5-0.8
	l0.5-0.7l0.7-1.1l0.5-1.1l0.8-1.6l0.5-0.9l0.3-0.9l0.4-0.8l0.8-2.4l0.2-1l0.3-0.8l0.4-1.8l0.2-2.7v-1.8l-0.2-1.3l-0.4-1.2l-0.4-0.9
	l-0.5-1.2l-0.7-1l-0.5-0.8l-1.4-1.2l-0.8-0.4l-1-0.3l-0.6-0.1l-1-0.2h-1.8l-0.9,0.2l-0.9,0.3l-1.1,0.5l-1.1,0.7l-1.6,1.1l-0.7,0.5
	l-0.7,0.7l-0.4,0.5l-1.3,1.3l-0.6,0.8l-1.3,1.8l-0.8,1.3l-0.6,0.9l-0.5,0.9l-0.5,1l-0.7,1.7l-0.5,0.9l-0.3,0.6l-0.4,0.9l-0.5,1.2
	l-0.7,1.6l-0.6,1.4l-0.2,0.6l-1,2.6l-0.4,0.9l-0.4,1.2l-0.4,1.3l-0.3,0.7l-0.4,1.3l-0.4,1.4l-0.1,0.7l-0.4,1.4l-0.3,1.2l-0.2,0.9
	L262,127l-0.4,1.5l-0.2,0.6l-0.3,1.2l-0.2,0.5l-0.3,1.8l-0.3,1.2l-0.7,3.3l-0.2,1l-0.2,0.9v0.9l-0.1,1l-0.6,1.3l-0.4,0.9l-0.6,0.9
	l-0.5,0.8l-0.4,0.6l-0.6,0.7l-1,1.6l-0.6,0.8l-0.5,0.7l-0.6,0.7l-3.3,3.3l-0.8,0.6l-0.7,0.5l-0.9,0.4l-0.9,0.1l-1.1-0.3l-0.8-1.1
	l-0.2-1.5l0.2-1.7l0.3-1.6l0.3-1.3l0.2-0.9l0.6-1.8l0.7-2.5l0.2-0.9l0.7-1.7l0.2-0.9l0.2-0.8l0.2-0.9l0.7-2.1l0.4-1.3l0.2-0.9l1-3
	l0.3-1.2l0.3-1l0.2-0.9l0.2-0.8l0.6-1.8l0.3-1.3l0.3-1.2l0.2-0.9v-0.9l-0.5-0.7l-1.6-0.6l-1.8-0.2l-1-0.1l-0.8,0.1l-0.9,0.4L246,119
	l-0.4,0.8l-0.3,0.9l-0.4,1.3l-0.3,1.2l-0.3,0.9l-0.6,2.7l-0.3,0.8l-0.4,1l-0.2,0.9l-0.2,0.7l-0.2,0.9l-0.6,1.8l-0.3,1.3l-0.3,1.2
	l-0.6,1.8l-0.2,0.8v0.1l-0.3,0.5l-0.5,0.9l-0.5,1.1l-0.6,1.1l-0.5,0.8l-0.5,0.7L237,144l-0.5,0.7l-2.5,2.5l-0.7,0.5l-1.1,0.6
	l-0.9,0.5l-0.9,0.4l-1.1,0.2l-0.9,0.2h-1.3l-1.3-0.1l-0.6-0.4l0.2-0.6l0.6-0.8l0.4-0.7l1-1.6l0.4-0.6l0.5-0.8l0.5-0.9l0.4-0.9
	l0.4-0.8l0.8-1.8l0.3-0.6l0.5-0.9l0.4-1l0.2-0.6l0.3-1l0.3-0.9l0.3-1l0.1-0.6l0.2-1l0.6-1.8l0.2-0.9l0.1-0.9l0.2-0.9l0.2-0.8
	l0.2-0.9l0.2-1l0.1-0.9l0.2-0.8l0.2-1.8l-0.1-0.9l-0.4-0.8l-1-0.8l-1.5-0.5l-1.6-0.2l-1.7,0.1l-1.2,0.4l-0.6,0.7l-0.2,1.3l-0.1,1.2
	l-0.1,1l-0.1,0.9v0.9l-0.1,0.9l-0.1,0.8l-0.3,0.9l-0.2,0.9l-0.3,0.8l-0.4,1.8l-0.2,0.8l-0.2,0.9l-0.7,2.1l-0.5,1.2l-0.4,1l-0.2,0.6
	l-0.4,1l-0.3,0.8L222,140l-0.4,0.8l-0.5,0.8l-1.2,2.2l-0.6,0.6h-1l-1.4-0.1l-1.2,0.2l-0.8,0.6l-0.5,0.7l-0.3,0.9l0.2,1.3l0.5,1.3
	l0.1,1.1l-0.4,0.7l-0.9,0.8l-1.3,1l-1.4,0.8l-1.5,0.6l-1.6,0.3l-1.3-0.1l-0.8-0.3l-0.6-0.6l-0.5-0.8l-0.3-1.2l-0.2-1.3v-1l0.1-0.8
	l0.1-1l0.1-1.2l0.2-1.3l0.2-1l0.6-2.4l0.3-1l0.3-1.3l0.4-1.6l0.3-1.3l0.7-2.1l0.3-1.3l0.3-0.9l0.4-1.3l0.5-1.5l0.4-1.3l0.3-0.9
	l0.3-0.8l0.3-0.9l0.3-0.8l0.4-0.9l0.5-1.1l0.4-1.2l0.2-0.9v-0.9l-0.5-0.6l-0.8-0.4l-0.8-0.3l-1-0.2H207l-0.9,0.3l-0.9,0.4l-0.6,0.5
	l-0.4,0.8l-0.3,0.9l-0.3,0.8l-0.2,0.9l-0.3,0.8l-0.3,0.9l-0.4,1.1l-0.4,0.9l-0.3,0.9l-0.4,1.1l-0.4,1.8l-0.3,0.9l-0.3,0.8l-0.4,0.8
	l-0.3,0.8l-0.3,0.9l-0.4,1.8l-0.4,1.2l0,0l-0.5,1.1l-0.4,0.9l-0.4,0.7l-0.5,0.9l-1,2.2l-0.5,0.9l-0.4,0.8l-0.5,0.8l-1.4,2l-1,1.6
	l-1,1.4l-0.7,0.7l-1.8,1.6l-0.8,0.5l-0.9,0.3l-0.8,0.2l-0.9-0.1l-0.8-0.3l-0.6-0.6l-0.3-0.9l-0.3-1.2l-0.1-1.3l-0.1-1v-0.9l0.1-0.9
	l0.2-0.9l0.1-0.9l0.2-1.2l0.2-1.3l0.2-0.9l0.1-0.9l0.6-2.7l0.2-1.3l0.2-1.2l0.2-0.9l0.3-1.1l0.2-0.6l0.4-1.3l0.3-1.3l0.3-0.9
	l0.2-0.9l0.2-0.8l0.2-0.9l0.3-0.9l0.3-0.8l0.3-0.9l0.2-0.9l0.2-0.8l0.2-0.9l0.3-0.8l0.3-0.9l0.3-0.8l0.3-0.9l0.3-0.8l0.2-0.9
	l1.1-3.3l0.3-1l0.5-1.2l0.7-2.1l0.3-0.8l0.3-0.9l0.5-1.2l0.4-1.2l1.2-3.2l0.4-1.1l0.4-1.2L197,98l0.3-0.9l0.3-0.8l0.4-0.8l0.4-0.9
	l0.2-0.9l0.2-0.8l-0.3-0.8l-0.7-0.5l-1-0.3l-0.6-0.2l-1-0.2l-0.9-0.1h-1l-1.1,0.4l-0.9,0.7l-0.4,0.8l-0.9,1.7l-0.3,0.8l-0.8,1.8
	l-0.2,0.6l-0.4,1l-0.3,0.8l-0.6,1.8l-0.5,1.2l-1,3l-0.3,0.8L185,108l-0.2,0.8l-0.4,1l-0.2,0.6l-0.3,1l-0.7,1.7l-0.3,0.9l-0.2,0.8
	l-0.6,1.8l-0.2,0.9l-0.4,0.7l-0.6,0.3l-0.7-0.1l-1.1-0.2l-1.3-0.2h-2.3l-1.8,0.2l-1,0.1l-0.9,0.1l-1.8,0.4l-0.8,0.3l-1.8,0.6
	l-0.9,0.5L165,121l-0.9,0.4l-0.8,0.4l-0.7,0.5l-0.8,0.6l-0.7,0.5l-2.1,1.8l-1.2,1.4l-0.7,0.7l-0.6,0.7l-1,1.4l-0.6,0.8l-0.4,0.5
	l-0.6,1l-0.5,1.1l-0.6,1.1l-0.8,1.6l-0.3,0.9l-0.9,2.4l-0.3,0.9l-0.1,0.4l-0.3,0.6l-0.5,1l-0.6,1l-0.4,0.5l-0.5,0.9l-0.5,0.8
	l-0.4,0.9l-0.4,0.7l-0.6,0.7l-0.6,0.8l-1,1.4l-1.2,1.4l-0.7,0.5l-0.7,0.6l-0.7,0.7l-1.4,1L139,154l-0.8,0.1l-0.9-0.1l-0.7-0.4
	l-0.5-0.7l-0.3-0.9l-0.2-1.8v-0.9l0.1-0.9v-0.9l0.1-1l0.2-1.3l0.2-1.2l0.3-1l0.3-1.3l0.3-1.2l0.6-2.7l0.3-0.9l0.2-0.9l0.2-0.8
	l0.3-0.9l0.2-0.7l0.3-0.9l0.3-1l0.3-0.8l0.3-0.9l0.4-1.8l0.4-0.8l0.3-0.9l0.2-0.8l0.3-0.9l0.8-1.6l0.7-2.1l0.3-1.2l-0.4-0.8
	l-0.8-0.5l-0.8-0.3l-1-0.2l-0.9-0.1l-1-0.1l-1,0.1l-0.9,0.3l-0.7,0.5l-0.5,0.8l-0.4,0.8l-0.3,0.9l-0.2,0.8l-0.6,1.8l-0.3,0.8
	l-0.6,1.8l-0.2,0.8l-0.2,0.9l-0.4,0.9l-0.3,0.8l-0.3,0.9l-0.3,0.8l-0.3,0.9l-0.4,1.8l-0.3,0.8L130,136l-0.3,0.8l-0.3,0.9l-0.3,0.8
	l-0.3,0.9l-0.3,0.8l-0.4,0.9l-0.4,0.8l-0.5,0.9l-0.8,1.6l-0.7,1.1l-0.6,1l-0.6,0.9l-0.5,0.7l-1.8,2.1l-0.6,0.6l-1.4,1.2l-0.8,0.5
	l-0.9,0.5l-0.8,0.4l-0.7,0.3l-0.8,0.4l-1.8,0.4l-1.2-0.2l-1.3-0.8l-0.8-1.4l-0.2-1.6v-1.8l0.2-1.6l0.3-1.3l0.2-0.9l0.3-0.9l0.2-0.8
	l0.4-1.8l0.3-0.9l0.2-0.9l0.1-0.9l0.4-1.8l0.3-0.8l0.2-0.9l0.3-0.9l0.4-1.1l0.2-0.6l0.4-1.3l0.3-1.3l0.3-0.9l0.3-1.1l0.3-0.5
	l0.4-1.2l0.1-0.6l0.4-1l0.6-1.8l0.2-0.8l0.3-0.9l0.2-0.9v-0.8l-0.4-0.6l-0.8-0.4l-0.9-0.3l-0.9-0.2l-0.9-0.1l-1,0.2l-0.9,0.2
	l-0.9,0.4l-0.7,0.5l-0.4,0.8l-0.3,0.9l-0.3,1.2l-0.5,1.2l-0.3,0.9l-0.3,0.8l-1.1,3.3l-0.3,1l-1.4,4.2l-0.1,0.8l-0.3,0.9l-0.2,0.9
	l-0.3,0.8l-0.7,2.1l-0.3,1.2l-0.3,0.9l-0.4,1.8l-0.3,1.3l-0.2,1.2l-0.1,0.9l-0.2,0.9l-0.1,0.9l-0.2,0.9l-0.1,0.9v2.7l0.1,1l0.1,0.9
	l0.3,0.8l0.4,0.9l1,1.4l0.7,0.7l1.4,1l0.8,0.4l0.9,0.3l0.7,0.2l0.9,0.1l1,0.1l0.9,0.1l0.9-0.1l3.6-0.8l0.9-0.3l1.6-0.8l1.6-0.9
	l0.8-0.5l0.7-0.5l0.6-0.7l1.9-1.9l1.8-2.1l0.6-0.8l1-1.4l0.5-0.8l0.3-0.5l0.1,0.4l-0.2,1l-0.1,1l0.1,1.3l0.2,1.6l0.4,1.6l0.5,1.2
	l0.6,0.9l0.8,0.9l0.9,0.8l1,0.4l1.2,0.3l1.2,0.1l0.9-0.1l1.8-0.4l2.4-1.2l1.6-1l1.4-1.2l0.6-0.6l1.3-1.2l1.2-1.4l0.6-0.8l0.5-0.7
	l1.2-1.4l0.5-0.7v0.6l0.1,1.2l0.1,0.9l0.3,0.9l0.6,1.6l0.3,0.9l0.4,0.8l0.5,0.8l0.9,0.8l0.9,0.9l0.8,0.6l0.7,0.4l0.9,0.4l0.8,0.2
	l0.9,0.2l0.9,0.1l0.8,0.1l0.9-0.1l1-0.2l2.3-0.5l1-0.3l0.8-0.4l0.9-0.6l1-0.8l0.9-0.7l2.1-1.8l0.6-0.6l1.1-1.4l0.6-0.7l0.5-0.7
	l0.9-1.6l0.5-0.8l0.5-0.7l0.2,0.1v1.9l0.3,2.7l0.2,0.8l0.3,0.9l0.4,0.8l1,1.4l0.7,0.7l0.6,0.5l0.8,0.5l0.8,0.4l0.9,0.2l0.9,0.1
	l0.9-0.1h0.8l0.9-0.2l2.6-0.9l0.8-0.4l0.7-0.4l0.8-0.5l0.7-0.6l0.7-0.8l0.4-0.4l0.7-0.8l0.7-0.6l0.6-0.6l0.5-0.7l0.6-0.8l0.5-0.7
	l1-1.6v0v0.3v1l-0.1,0.9v0.9l0.2,1l0.2,0.9l0.3,0.8l0.4,0.9l1.2,1.4l0.7,0.7l0.7,0.5l0.9,0.5l0.6,0.3l1,0.4l1,0.2h1l2.5,0.2l1-0.1
	l1.2-0.1l1.3-0.2l0.9-0.3l0.8-0.3l0.9-0.3l1.2-0.5l1.1-0.5l0.9-0.6l1-0.7l1.1-0.7l1.4-1.2l0.6-0.6l0.7-0.6l0.7-0.4l1.1-0.1l1.2,0.2
	l0.9,0.2l0.9,0.1l1,0.1l1.1-0.1l1.3-0.2l1-0.1l1.8-0.4l0.8-0.4l1.9-1.1l1.1-0.6l0.7-0.6l1.2-1.2v0.1l-0.3,0.9l-0.2,0.9l-0.2,1.8v0.9
	l0.1,0.9l0.2,0.9l0.2,0.8l0.4,0.9l0.5,0.8l0.5,0.7l0.7,0.6l0.8,0.5l0.9,0.3l0.8,0.3l1.1,0.1h1.7l1.8-0.4l0.8-0.2l0.9-0.3l0.9-0.4
	l0.7-0.5l2-1.7l0.7-0.6l0.6-0.7l0.7-0.7l1.2-1.3l1.8-2.1l1-1.6l0.5-0.7l0.5-0.7v0.1l0.2,1.1v0.6l0.2,1l0.1,0.9l0.3,0.9l0.2,0.9
	l0.3,0.8l0.4,0.9l0.4,0.8l0.6,0.7l0.6,0.6l0.7,0.6l0.8,0.5l0.8,0.4l0.9,0.3l0.8,0.3l0.9,0.2l1,0.1h0.6l1.1,0.1l1.2-0.1l2-0.4
	l1.2-0.4l0.9-0.4l0.8-0.3l0.8-0.4l0.9-0.4l0.8-0.4l0.9-0.5l0.7-0.6l0.6-0.5l0.7-0.7l0.9-0.8l0.8-1l0.6-0.7l0.7-0.9l0.4-0.4l0.7-0.9
	l1-1.4l0.6-0.8l0.5-0.9l0.2-0.5l0.6-0.9l-0.1,0.8v0.9l0.1,0.9l0.2,1.1v0.6l0.2,1l0.1,0.9l0.3,0.9l0.2,0.9l0.3,0.8l0.4,0.9l0.4,0.8
	l0.6,0.7l0.6,0.6l0.7,0.6l0.8,0.5l0.8,0.4l0.9,0.3l0.8,0.3l0.9,0.2l1,0.1h0.6l1.1,0.1l1.2-0.1l2-0.4l1.2-0.4l0.9-0.4l0.8-0.3
	l0.8-0.4l0.9-0.4l0.8-0.4l0.9-0.5l0.7-0.6l0.6-0.5l0.7-0.7l0.9-0.8l0.8-1l0.6-0.7l0.7-0.9l0.4-0.4l0.7-0.9l1-1.4l0.6-0.8l0.5-0.9
	l0.2-0.5l0.5-0.7l0.1,1.3l0.2,0.9l0.2,0.8l0.2,0.9l0.3,0.9l0.3,0.8l0.4,0.9l0.4,0.7l0.5,0.8l0.6,0.7l0.7,0.8l0.4,0.5l0.7,0.7
	l0.7,0.6l0.8,0.4l1.6,0.9l0.8,0.4l0.9,0.4l0.9,0.3l0.8,0.2l3.6,0.4h0.9l1.1-0.1l1.3-0.1l2.1-0.2l1.2-0.3l1.3-0.2l0.9-0.3l0.8-0.3
	l2.6-1.1l1.6-1l0.9-0.8l1-0.8l1.4-1.2l0.6-0.7l0.7-0.8l0.3-0.4l0.7-0.8l0.6-0.7l0.6-0.6l0.6-0.7l1-1.4l0.6-0.9l0.3-0.6l1-1.6l0.6-1
	l0.6-1.1l0.5-1.1l0.6-1.1l0.5-1.1l0.4-0.9l0.1-0.9L359.2,137.1z M327.1,136.1l0.3-0.8l0.4-0.9l0.4-1.2l0.6-1.1l0.5-0.9l0.7-1
	l0.7-1.1l0.7-0.8l0.8-0.9l0.9-0.9l1.4-1.2l0.8-0.5l1.2-0.6l1.4-0.6l1.3-0.3l1-0.2l0.9,0.1l0.9,0.2l0.9,0.4l0.8,0.6l0.6,0.7l0.4,0.9
	l0.1,1l-0.1,0.9l-0.2,1l-0.6,1.8l-0.5,0.9l-0.4,0.8l-0.5,0.7l-0.6,0.8l-0.7,0.6l-0.7,0.7l-0.7,0.6l-0.7,0.5l-1,0.5l-0.6,0.2l-1,0.4
	l-0.9,0.2l-1,0.2h-2.8l-1-0.1l-2-0.1l-1.3-0.3l-0.5-0.5L327.1,136.1z M299,127.2l0.3-0.9l0.3-1l0.1-0.6l0.3-1l0.7-2.1l0.4-1.3
	l0.3-0.9l0.2-0.9l1.4-4.2l1-2.5l0.4-0.9l0.6-1.5l0.4-1.1l0.3-0.8l0.4-0.9l0.4-0.8l0.4-0.9l0.4-0.8l0.4-0.9l0.5-0.9l1-1.5l0.5-0.8
	l0.5-0.7l0.5-0.6l0.7-0.6l0.9-0.7l0.9-0.2l0.8,0.2l0.7,0.5l0.3,0.8l0.2,0.8v1.9l-0.1,0.9l-0.1,1l-0.4,1.1l-0.3,1.1l-0.4,1.1
	l-0.3,1.1l-0.3,0.9l-0.2,0.9l-0.4,0.9l-0.4,1L312,112l-0.4,1l-0.8,1.6l-0.5,0.7l-0.4,0.7l-0.5,0.8l-0.7,1.1l-0.7,1l-0.7,0.9
	l-0.6,0.9l-0.4,0.4l-0.6,0.9l-0.5,0.8l-0.5,0.7l-4.1,4.1l-1,0.8l-0.6,0.4l-0.2-0.6L299,127.2z M269.6,127.2l0.3-0.9l0.3-1l0.1-0.6
	l0.3-1l0.7-2.1l0.4-1.3l0.3-0.9l0.2-0.9l1.4-4.2l1-2.5l0.4-0.9l0.6-1.5l0.4-1.1l0.3-0.8l0.4-0.9l0.4-0.8l0.4-0.9l0.4-0.8l0.4-0.9
	l0.5-0.9l1-1.5l0.5-0.8l0.5-0.7l0.5-0.6l0.7-0.6l0.9-0.7l0.9-0.2l0.8,0.2l0.7,0.5l0.3,0.8l0.2,0.8v1.9l-0.1,0.9l-0.1,1l-0.4,1.1
	l-0.3,1.1l-0.4,1.1l-0.3,1.1l-0.3,0.9l-0.2,0.9l-0.4,0.9l-0.4,1l-0.3,0.6l-0.4,1l-0.8,1.6l-0.5,0.7l-0.4,0.7l-0.5,0.8l-0.7,1.1
	l-0.7,1l-0.7,0.9l-0.6,0.9l-0.4,0.4l-0.6,0.9l-0.5,0.8l-0.5,0.7l-4.1,4.1l-1,0.8l-0.6,0.4l-0.2-0.6L269.6,127.2z M179.1,126.3
	l-0.3,1l-0.3,1.3l-0.8,3.2l-0.4,1.3l-1.4,4.2l-0.3,0.8l-0.4,0.9l-0.5,1.1l-0.5,1.2l-0.4,0.9l-0.3,0.8l-0.4,0.9l-0.4,0.8l-0.7,0.9
	l-0.7,1.2l-0.6,0.9l-0.5,0.8l-0.5,0.7l-0.7,0.7l-0.6,0.7l-0.7,0.8l-1.2,1.2l-0.7,0.5l-0.9,0.5l-0.6,0.3l-1,0.4l-1.2,0.1l-1.2-0.2
	l-0.9-0.4l-0.7-0.6l-0.6-0.6l-0.5-0.7l-0.3-0.9l-0.2-1.3l-0.2-1.6l-0.2-1.3l0.1-1l0.1-1.2l0.2-1.3l0.3-0.9l0.6-2.4l0.4-0.9l0.3-0.8
	l0.3-0.9l0.3-0.8l0.5-0.8l1.2-2.2l0.5-0.9l0.5-0.7l1.2-1.5l0.6-0.7l0.6-0.6l1.4-1.2l0.7-0.7l0.7-0.6l0.7-0.5l0.8-0.5l0.9-0.4
	l0.9-0.3l1-0.4l0.6-0.2l1-0.2l0.9-0.2h0.9l1.9-0.1h0.9l0.7,0.4l0.3,0.9L179.1,126.3z"/>
<path class="st0" d="M277,274.4c-1.3-0.2-2.7-0.1-4,0.2c-0.8,0.2-1.7,0.4-2.5,0.5c-0.3,0-0.7,0-1-0.1c-0.3-0.1-0.5-0.3-0.7-0.5
	c-0.3-0.4-0.4-0.9-0.3-1.3c0.1-0.6,0.5-1,1-1.4c0.5-0.4,1-0.7,1.5-0.9c0.7-0.3,1.5-0.6,2.3-0.8l-0.8-2.9c-0.9,0.2-1.7,0.5-2.5,0.9
	c-0.8,0.3-1.5,0.8-2.2,1.3c-1.3,0.9-2.2,2.2-2.5,3.7c-0.3,1.3,0.1,2.7,1,3.8c0.4,0.6,1,1.1,1.7,1.4c0.6,0.3,1.3,0.4,2,0.5
	c0.9,0,1.8-0.1,2.7-0.3c0.8-0.2,1.6-0.4,2.5-0.5c0.4,0,0.8,0,1.1,0.1c0.3,0.1,0.6,0.3,0.8,0.5c0.4,0.4,0.5,0.9,0.3,1.5
	c-0.2,0.6-0.6,1.1-1.2,1.5c-0.6,0.5-1.2,0.8-1.9,1.1c-1,0.4-2,0.7-3,1l2.1,2.7c1.6-0.4,3.2-1.1,4.5-2.2c1.4-0.9,2.4-2.3,2.8-3.9
	c0.3-1.4-0.1-2.8-1-3.9C278.9,275.3,278,274.6,277,274.4z"/>
<polygon class="st0" points="251.8,284.2 250.4,281.5 239,287.5 240.4,290.1 244.5,288 251,300.5 254.2,298.9 247.7,286.3 "/>
<path class="st0" d="M200.6,278.7c0.4-0.1,0.9-0.2,1.2-0.5c0.3-0.3,0.6-0.7,0.7-1.1h0.1c0.1,0.6,0.1,1.3-0.1,1.9
	c-0.1,0.5-0.4,0.9-0.8,1.2c-0.5,0.3-1.1,0.5-1.7,0.6c-0.4,0.1-0.8,0.1-1.2,0.1l0.3,1.7c0.5,0,0.9-0.1,1.3-0.2
	c1.4-0.2,2.7-0.9,3.4-2.1c0.7-1.4,0.8-3,0.4-4.6c-0.1-0.8-0.4-1.6-0.9-2.2c-0.4-0.6-0.9-1-1.5-1.2c-0.6-0.2-1.3-0.3-2-0.2
	c-0.9,0.1-1.7,0.6-2.3,1.4c-0.5,0.8-0.6,1.8-0.4,2.7c0.1,0.8,0.5,1.6,1.2,2.2C199,278.8,199.9,278.9,200.6,278.7z M199.4,274.4
	c0.2-0.3,0.5-0.6,0.9-0.6c0.4-0.1,0.9,0,1.2,0.3c0.4,0.3,0.6,0.8,0.7,1.3c0.1,0.4,0,0.7-0.3,1c-0.2,0.3-0.6,0.6-1,0.6
	c-0.4,0.1-0.8,0-1.1-0.2c-0.3-0.3-0.5-0.7-0.5-1.1C199.2,275.3,199.2,274.8,199.4,274.4L199.4,274.4z"/>
<polygon class="st0" points="263.6,276.6 261.9,274.1 251.1,281.1 252.7,283.7 256.6,281.1 264.3,293 267.4,291 259.7,279.1 "/>
<path class="st0" d="M152.9,298.2l-8.8,16l3.9,0.6l1.9-3.8l6.2,1l0.6,4.2l3.9,0.6l-3.2-18L152.9,298.2z M151.3,308.2
	c1.8-3.7,3-6,3.4-7c0,0.3,0.1,0.7,0.1,1.2s0.4,2.7,0.9,6.5L151.3,308.2z"/>
<path class="st0" d="M169.8,276.4c0.5-0.6,1.2-0.9,1.9-0.8c0.4,0,0.8,0.1,1.1,0.3c0.4,0.2,0.7,0.3,1.1,0.5l0.8-1.7
	c-0.9-0.5-1.9-0.8-2.9-0.9c-0.9-0.1-1.7,0.1-2.5,0.5c-0.7,0.4-1.3,1-1.7,1.7c-0.4,0.8-0.7,1.7-0.7,2.7c-0.2,1.4,0.1,2.7,0.9,3.9
	c0.8,1,2,1.5,3.2,1.5c0.9,0.1,1.9,0,2.8-0.3l0.1-1.8c-0.8,0.3-1.7,0.4-2.6,0.4c-1.7-0.1-2.4-1.3-2.3-3.5
	C169,278,169.3,277.1,169.8,276.4z"/>
<path class="st0" d="M169.1,304.6c0.8-1,2-1.5,3.2-1.4c0.7,0,1.3,0.2,1.9,0.4c0.6,0.3,1.3,0.6,1.9,0.9l1.3-2.9
	c-1.5-0.9-3.2-1.4-4.9-1.5c-1.5-0.1-3,0.2-4.3,0.8c-1.3,0.6-2.3,1.7-3,2.9c-0.8,1.4-1.2,3-1.2,4.6c-0.2,2.8,0.4,5,1.6,6.6
	c1.4,1.7,3.4,2.6,5.6,2.6c1.6,0.1,3.2-0.1,4.8-0.6l0.2-3c-1.4,0.5-2.9,0.7-4.4,0.7c-2.9-0.2-4.2-2.2-4-6
	C167.7,307.3,168.2,305.9,169.1,304.6z"/>
<path class="st0" d="M207.9,270.5l-2.5,3.3l1.3,1l0.9-1.2c0.1-0.1,0.3-0.4,0.5-0.8l0.2,1l0.2,0.9l1.5,5.6l2-0.5l-2.5-9.7
	L207.9,270.5z"/>
<rect x="149.1" y="275.6" transform="matrix(0.199 -0.98 0.98 0.199 -147.7244 372.6282)" class="st0" width="10" height="2.1"/>
<path class="st0" d="M147.1,270.4c-0.8,0.2-1.5,0.7-2,1.3c-0.6,0.7-1,1.6-1.2,2.5c-0.4,1.3-0.4,2.7,0.1,4c0.6,1.1,1.7,1.9,2.9,2.1
	c0.9,0.3,1.9,0.3,2.8,0.2l0.5-1.7c-0.9,0.1-1.7,0-2.6-0.1c-1.6-0.4-2.1-1.7-1.6-3.9c0.2-0.9,0.6-1.7,1.3-2.2c0.6-0.5,1.3-0.6,2-0.4
	c0.4,0.1,0.7,0.3,1,0.5c0.3,0.2,0.7,0.5,1,0.7l1.1-1.5c-0.8-0.7-1.7-1.2-2.6-1.4C148.8,270.2,147.9,270.2,147.1,270.4z"/>
<path class="st0" d="M198,207.3l1-0.9l0.5-0.5l0.7-0.4l0.9-0.4l0.7-0.1l0.9,0.1l0.7,0.4l0.4,0.6l0.1,0.9v1.2l-0.2,1.2l-0.1,0.9
	l-0.2,0.7l-0.2,0.9l-0.4,1.5l-0.1,0.6l-0.2,0.7l-0.1,0.9l-0.2,0.9l-0.2,0.7l-0.2,0.6l-0.4,1.9l-0.4,1.7l-0.1,0.7l-0.2,0.9l-0.3,1.2
	l-0.4,1.2l-0.2,0.9l-0.3,0.7l-0.2,0.9l-0.1,0.9l-0.1,0.7l-0.1,0.7l0.4,0.4l0.6,0.3l0.7,0.1h0.7l0.7,0.1l0.7-0.1l0.7-0.1l0.7-0.3
	l0.4-0.4l0.3-0.6l0.2-0.7l0.1-0.6l0.2-0.7l0.3-0.9l0.3-1.2l0.2-0.9l0.1-0.7l0.4-1.7l0.2-0.7l0.3-0.9l0.2-0.9l0.2-0.7l0.2-0.9
	l0.3-0.9l0.1-0.7l0.4-1.3l0.2-0.6l0.7-1.2l0.3-0.7l0.3-0.6l0.4-0.6l0.4-0.5l0.4-0.6l0.4-0.5l0.4-0.6l0.4-0.6l0.4-0.5l0.5-0.4
	l0.4-0.5l1-0.9l0.6-0.4l1.7-1.1l0.6-0.2l0.7-0.1l0.7,0.1l0.6,0.1l0.4,0.4l0.3,0.6l0.1,0.7l-0.1,0.7l-0.1,0.7l-0.4,1.9l-0.1,0.7
	l-0.3,1.3l-0.1,0.6l-0.2,0.7l-0.1,0.7l-0.2,0.7l-0.1,0.7l-0.3,0.9l-0.2,0.9l-0.1,0.7l-0.2,0.7l-0.1,0.7l-0.2,0.7l-0.1,0.6l-0.2,0.8
	l-0.1,0.7l-0.1,0.5l-0.3,1.3l-0.1,1.3l-0.1,0.7l-0.1,1.3l0.1,0.7l0.1,0.7l0.2,0.7l0.4,0.6l0.9,1l0.6,0.4l0.6,0.3l0.7,0.2l0.7,0.1
	l0.6,0.1h1.4l0.7-0.1l0.6-0.1l0.7-0.2l1.7-0.9l0.6-0.4l1-0.9l0.4-0.4l0.4-0.5l0.9-0.9l0.8-1l0.4-0.6l0.7-1.1l0.4-0.5l1.1-1.7
	l0.4-0.5l0.2-0.3l0.1,0.9l0.1,0.7l0.1,0.6l0.1,0.7l0.2,0.7l0.2,0.6l0.3,0.7l0.3,0.5l0.4,0.6l0.4,0.5l0.5,0.6l0.3,0.4l0.5,0.5
	l0.5,0.4l0.6,0.3l1.2,0.7l0.6,0.3l0.7,0.3l0.7,0.2l0.6,0.1l2.6,0.3h0.7l0.8-0.1l0.9-0.1l1.5-0.1l0.9-0.2l0.9-0.1l0.7-0.2l0.6-0.2
	l1.8-0.8l1.2-0.7l0.7-0.6l0.7-0.6l1-0.9l0.4-0.5l0.5-0.6l0.2-0.3l0.5-0.6l0.4-0.5l0.4-0.4l0.4-0.5l0.7-1l0.4-0.7l0.2-0.4l0.7-1.2
	l0.4-0.7l0.4-0.8l0.4-0.8l0.4-0.8l0.4-0.8l0.3-0.7l0.1-0.7l-0.4-0.7l-0.7-0.4h-0.7l-0.5,0.4l-0.4,0.6l-0.3,0.6l-0.3,0.7l-0.3,0.6
	l-0.4,0.5l-0.3,0.6l-0.4,0.6l-0.3,0.6l-0.4,0.6l-0.7,1l-0.4,0.6l-0.4,0.5l-0.9,1l-1,0.9l-0.5,0.4l-0.5,0.4l-1,0.8l-1.2,0.6l-1.2,0.5
	l-0.6,0.2l-0.7,0.2l-0.7,0.1l-1.9,0.4l-0.7,0.1h-0.7l-0.7-0.1l-0.7-0.1l-0.5-0.1l-0.7-0.2l-0.7-0.2l-1.2-0.7l-0.4-0.4l-0.4-0.5
	l-0.7-1.2l-0.4-1.3l-0.1-0.6l-0.1-0.7V220l0.1-0.7v-0.7l0.1-0.5l0.4-0.3h0.5l1.9,0.4l0.7,0.1l1.3,0.1l1.3,0.1h0.7l0.7-0.1l0.9-0.1
	l0.8-0.1l0.7-0.1l0.7-0.1l0.7-0.2l0.7-0.2l0.7-0.3l0.4-0.2l0.7-0.4l0.4-0.1l0.7-0.4l0.5-0.4l1-0.9l0.9-1l0.4-0.5l0.3-0.6l0.4-0.7
	l0.2-0.4l0.3-0.7l0.3-0.9l0.2-0.9l0.1-0.7l0.1-0.9v-0.9l-0.1-0.7l-0.1-0.7l-0.2-0.7l-0.4-0.9l-0.4-0.7l-0.4-0.5l-1-0.9l-0.4-0.3
	l-0.6-0.3l-0.7-0.3l-0.7-0.2l-0.9-0.2l-1.2-0.2l-0.9-0.1h-1.7l-0.9,0.1l-1.3,0.3l-1.5,0.5l-0.9,0.4l-0.7,0.3l-0.7,0.4l-0.7,0.4
	l-0.7,0.5l-0.7,0.5l-0.7,0.5l-0.6,0.5l-1.1,1.1L237,207l-0.4,0.5l-0.4,0.5l-0.3,0.7l-0.5,0.7l-0.4,0.8l-0.4,0.7l-0.4,0.9l-0.3,0.8
	l-0.2,0.7l-0.1,0.7l-0.2,0.7l-0.1,0.5l-0.1,0.2l-0.4,0.7l-0.2,0.4l-0.7,1.3l-0.3,0.7l-2.5,4l-0.4,0.6l-0.4,0.4l-0.9,1.2l-0.4,0.5
	l-1,1l-0.5,0.4l-0.6,0.4l-0.6,0.3l-0.5,0.3l-0.6,0.1l-0.7,0.1l-0.4-0.4L222,226l-0.1-1.2l0.1-1.2l0.1-0.9l0.1-0.7l0.4-1.7l0.2-0.7
	l0.2-0.9l0.3-0.9l0.2-0.7l0.2-0.8l0.1-0.9l0.2-0.7l0.3-0.9l1.1-3.5l0.2-0.9l0.3-1.3l0.1-0.7l0.1-0.7v-1.3l-0.1-0.6l-0.1-0.7
	l-0.2-0.7l-0.1-0.6l-0.3-0.6l-0.4-0.6l-0.4-0.4l-0.7-0.4l-0.9-0.4l-0.9-0.2l-0.7-0.1H221l-0.5,0.1l-1.2,0.1l-0.9,0.1l-0.7,0.1
	l-0.7,0.3l-0.6,0.3l-0.5,0.4l-0.6,0.4l-1.1,0.9l-0.5,0.4l-0.4,0.5l-0.9,1.1l-0.3,0.4l-0.5,0.6l-0.8,1l-0.4,0.5l-0.4,0.6l-0.3,0.4
	h-0.1l0.1-0.5l0.1-0.9l0.1-0.9v-0.7l-0.1-0.7l-0.2-0.7l-0.2-0.6l-0.6-1.2l-0.4-0.5l-0.4-0.4l-0.5-0.4l-0.6-0.3l-0.6-0.2l-0.7-0.1
	l-0.7-0.1h-1.2l-0.7,0.1l-0.7,0.2l-0.6,0.2l-0.7,0.3l-0.6,0.4l-0.5,0.4l-1.2,0.8l-1,0.9l-0.4,0.4l-0.4,0.4l-0.5,0.7l-0.4,0.5
	l-0.4,0.6l-0.4,0.5L195,207l-0.4,0.6l-0.4,0.7l-0.3,0.1l0.1-0.4l0.3-1.3l0.2-0.7l0.1-0.7l0.2-0.7l0.1-0.7l0.2-0.7l0.2-0.7l0.1-0.7
	l-0.3-0.5l-0.6-0.4l-0.7-0.3l-0.7-0.1l-1.4-0.1l-0.7,0.1l-0.7,0.2l-0.5,0.4l-0.3,0.7l-0.2,0.6l-0.7,3.2l-0.1,0.6l-0.3,1.3l-0.3,0.9
	l-0.3,0.9l-0.1,0.7l-0.2,0.7l-0.1,0.7l-0.1,0.7l-0.2,0.7l-0.2,0.9l-0.2,0.9l-0.1,0.4l-0.2,0.3l-0.2,0.4l-0.6,1.2l-0.6,1.2l-0.4,0.5
	l-0.4,0.6l-0.4,0.5l-0.9,1l-0.9,0.9l-0.5,0.4l-1.1,0.7l-0.5,0.3l-0.7,0.3l-0.6,0.1l-0.5,0.1l-0.8,0.1h-0.4l-0.6-0.1l-0.1-0.5
	l0.4-0.8l0.6-1.3l0.4-0.8l0.2-0.7l0.3-0.8l0.3-0.7l0.2-0.7l0.3-1l0.4-2.2l0.1-0.7l0.1-0.8l0.1-0.9V209l-0.3-1.3l-0.1-0.6l-0.1-0.7
	l-0.2-0.7l-0.9-1.6l-0.4-0.6l-0.4-0.5l-0.4-0.4l-0.5-0.4l-0.8-0.4l-1.3-0.8l-0.6-0.3l-0.6-0.2l-0.6-0.1l-0.9-0.1l-1.1-0.1h-1.7
	l-0.6,0.1l-0.7,0.1l-0.6,0.1l-0.7,0.2l-0.4,0.1l-0.8,0.3l-0.4,0.1l-0.7,0.3l-0.6,0.3l-0.8,0.4l-0.8,0.5l-0.6,0.4l-0.6,0.4l-0.5,0.4
	l-1,0.9l-0.9,0.9l-0.4,0.5l0,0l-0.4,0.3l-2.2,1.7l-0.7,0.4l-0.6,0.4l-0.6,0.4l-0.9,0.4l-1.4,0.5l-1.1,0.4L148,211l-0.9,0.1l-0.6-0.1
	l-0.2-0.3l0.1-0.6l0.2-0.9l0.2-0.9l0.1-0.7l0.1-0.5l0.1-0.7l0.1-0.7l0.2-0.7l0.1-0.7l0.1-0.6l0.1-0.7l0.2-0.7l0.1-0.7l0.2-0.7
	l0.1-0.4l0.1-0.7l0.2-0.7l0.4-1.9l0.2-0.6l0.2-0.7l0.3-0.9l0.2-0.9l0.4-1.3l0.1-0.7l0.2-0.7l0.1-0.6l0.2-0.7l0.3-0.6l0.2-0.7
	l0.3-0.6l0.7-2.2l0.4-0.9l0.3-0.7l0.1-0.6l-0.3-0.4l-0.5-0.4l-0.6-0.3l-0.6-0.1l-0.7-0.1l-0.6-0.1h-0.7l-0.8,0.3l-0.7,0.6l-0.4,0.5
	l-0.4,0.7l-0.2,0.6l-0.2,0.8l-0.1,0.4l-0.2,0.7l-0.2,0.7l-0.2,0.6l-0.4,0.7l-0.2,0.6l-0.2,0.7l-0.1,0.7l-0.1,0.6l-0.4,1.3l-0.3,0.7
	l-0.1,0.6l-0.1,0.7l-0.2,0.7l-0.1,0.7l-0.1,0.7l-0.2,0.6l-0.2,0.7l-0.3,1.3l-0.1,0.6l-0.2,0.7l-0.4,1.9l-0.1,0.7l-0.2,0.7l-0.1,0.7
	l-0.2,0.9l-0.3,1.4l-0.1,0.9l-0.2,0.7l-0.3,1.3l-0.1,0.5l-0.2,0.5l-0.4,0.4l-0.6,0.1l-0.8-0.1l-1.3-0.2l-1.5-0.3l-2.1-0.3l-1.6-0.3
	l-1.1-0.2l-0.9-0.4l-0.4-0.7l0.1-1.1l0.2-0.9l0.2-0.7l0.1-0.6l0.2-0.7l0.2-0.9l0.2-0.9l0.2-0.7l0.2-0.9l0.2-1.2l0.3-0.9l0.2-0.7
	l0.1-0.6l0.2-0.7l0.2-0.6l0.4-1.9l0.6-2l0.2-0.9l0.2-0.7l0.1-0.6l0.2-0.7l0.2-0.9l0.2-0.9l0.2-0.7l0.2-0.9l0.5-1.5l0.3-0.9l0.4-1.2
	l0.2-0.9l-0.2-0.7l-0.6-0.5l-0.6-0.3l-0.7-0.1l-0.7-0.1h-0.6l-0.7,0.1l-0.8,0.2l-0.6,0.4l-0.4,0.5l-0.6,0.5l-0.3,0.3l-0.6,0.5
	l-0.8,0.5l-0.8,0.4l-0.7,0.4l-0.4,0.1l-0.7,0.2l-0.6,0.1l-1.9,0.2h-0.7l-0.6-0.1l-0.7-0.1l-0.6-0.1l-3.6-0.6l-0.9-0.1h-0.6l-0.6-0.1
	h-1.4l-1.3,0.1h-0.6l-0.6,0.1l-1.3,0.3l-0.6,0.2l-0.9,0.2l-0.9,0.3l-0.6,0.3l-0.6,0.3l-0.5,0.4l-0.6,0.4l-0.6,0.4l-0.4,0.3l-1,0.9
	l-0.4,0.4l-0.7,1.2l-0.9,1.7l-0.1,0.7l-0.2,1.9v0.7l0.1,0.7l0.1,0.6l0.1,0.7l0.3,0.7l0.3,0.6l0.4,0.5l0.4,0.6l0.4,0.4l0.5,0.5l1,0.7
	l0.6,0.4l0.6,0.2l0.6,0.3l0.9,0.2l0.9,0.1l0.7,0.1h1.2l1.4-0.1l0.6-0.1l0.6-0.1l0.6-0.1l0.6-0.2l0.6-0.2l0.5-0.4l0.6-0.4l0.5-0.4
	l0.5-0.4l0.4-0.5l0.3-0.6l0.1-0.7l-0.4-0.7l-0.5-0.6l-0.6-0.3h-0.6l-0.6,0.3l-0.6,0.4l-0.6,0.3l-0.6,0.3l-0.6,0.2L111,198l-0.7,0.1
	l-0.6-0.1l-0.6-0.1l-0.6-0.2l-0.6-0.4l-0.5-0.4l-0.5-0.5l-0.4-0.5l-0.3-0.7l-0.1-0.6V194l0.1-0.7l0.1-0.6l0.3-0.7l0.3-0.6l0.5-0.5
	l0.6-0.5l0.5-0.4l0.5-0.3l0.5-0.4l0.6-0.2l1.9-0.6l0.6-0.1h3.8l0.6,0.1l0.9,0.1l2.7,0.3l0.9,0.1h0.7l1.3-0.1l0.9-0.1l0.9-0.1
	l0.6-0.1l0.6-0.2l0.6-0.4l0.6-0.3l0.5-0.4l0.6-0.3l0.4-0.2l0.1,0.1l-0.1,0.4l-0.1,0.6l-0.2,0.7l-0.4,1.2l-0.3,1.3l-0.2,0.9l-0.2,0.9
	l-0.2,0.7l-0.1,0.6l-0.2,0.7l-0.1,0.6l-0.2,0.7l-0.1,0.7l-0.2,0.7l-0.2,0.9l-0.2,0.9l-0.3,0.7l-0.3,0.9l-0.2,1.2L125,203l-0.2,0.7
	l-0.1,0.7l-0.3,0.6l-0.2,0.7l-0.1,0.7l-0.2,0.9l-0.2,0.9l-0.2,0.6l-0.6,0.4l-0.6,0.1l-1.2,0.1h-0.6l-2,0.2l-1.9,0.4l-0.6,0.2
	l-0.6,0.2l-1.9,0.8l-0.6,0.3l-0.6,0.2l-0.6,0.4l-0.6,0.3l-0.6,0.5l-0.4,0.2l-1.7,1.2l-0.5,0.5l-0.4,0.5l-0.4,0.5l-0.9,1l-0.4,0.6
	l-0.4,0.6l-0.3,0.6l-0.3,0.7l-0.2,0.6l-0.2,0.7l-0.1,0.6l-0.2,0.7l-0.1,0.7l-0.1,0.6l-0.1,1.3v1.2l0.1,0.7l0.2,0.7l0.2,0.6l0.4,0.6
	l0.3,0.6l0.4,0.5l0.4,0.5l0.5,0.4l0.5,0.4l0.6,0.4l0.7,0.3l0.6,0.2l0.5,0.1l0.6,0.2l0.6,0.1h0.6l0.6,0.1l1.4,0.1h1.1l0.8-0.1
	l0.6-0.1l0.7-0.2l0.9-0.2l0.9-0.3l0.6-0.3l0.5-0.4l0.6-0.4l1.5-1.3l0.4-0.4l0.4-0.5l0.4-0.5l0.3-0.4l0.8-1.2l0.4-0.6l0.4-0.9
	l0.4-0.9l0.3-0.7l0.9-1.7l0.2-0.7l0.2-0.7l0.1-0.4l0.2-0.7l0.2-0.7l0.2-0.6l0.1-0.7l0.2-0.7l0.1-0.4l0.2-0.8l0.3-0.5l0.7-0.1
	l0.9,0.1l0.4,0.1l1.1,0.2l1.5,0.4l2.6,0.4l1.9,0.3l0.4,0.1l0.9,0.2l0.4,0.7l-0.1,1l-0.2,0.9l-0.2,0.7l-0.1,0.6l-0.4,1.5l-0.3,0.9
	l-0.2,0.7l-0.1,0.9l-0.3,0.8l-0.2,0.7l-0.6,1.9l-0.3,0.9l-0.3,0.7l-0.3,0.9l-0.1,0.9l0.3,0.5l0.8,0.4l1.1,0.3l1.1,0.1l1.2-0.2l1-0.5
	l0.6-0.9l0.3-0.9l0.2-0.7l0.2-0.6l0.2-0.7l0.3-0.9l0.2-0.9l0.2-0.7l0.1-0.7l0.2-0.7l0.1-0.9l0.2-0.9l0.2-0.7l0.1-0.6l0.2-0.7
	l0.1-0.7l0.1-0.6l0.2-0.7l0.3-1.3l0.2-0.5l0.4-0.4l0.6-0.1l0.6-0.1l0.7-0.1l0.6-0.2l0.7-0.1l0.4-0.1l0.8-0.2l0.6-0.2l0.6-0.3
	l1.2-0.6l1-0.5l0,0l-0.3,0.7l-0.2,0.7l-0.2,0.6l-0.1,0.7l-0.1,0.7l-0.2,1.3l-0.1,0.7l-0.1,0.6l-0.1,0.7v2l-0.1,0.7l0.1,0.7l0.1,1.3
	l0.3,1.3l0.4,1.3l0.4,0.6l0.3,0.6l0.4,0.6l0.9,1l0.5,0.4l1.1,0.7l0.6,0.3l0.6,0.2l0.5,0.2l0.6,0.2l0.8,0.2l1.3,0.1h0.6l0.8-0.1h0.6
	l0.6-0.1l0.7-0.1l0.4-0.1l1.3-0.2l0.7-0.2l1.3-0.4l0.6-0.3l1.1-0.7l0.6-0.3l1.1-0.7l1-0.9l0.4-0.5l0.5-0.4l0.5-0.2l0.6,0.1l0.6,0.1
	l0.6,0.1l0.8,0.1l2.6-0.3l0.6-0.1l0.6-0.3l1.1-0.6l0.5-0.3l0.6-0.4l0.5-0.4l0.5-0.4l0.4-0.4l0.3-0.3v0.1l-0.1,0.7l-0.2,0.9l-0.2,0.9
	l-0.1,0.7l-0.2,0.7l-0.1,0.4l-0.4,0.7l-0.1,0.7l0.1,0.9l0.7,0.7l1.1,0.4l1.1,0.1l1.2-0.1l1-0.5l0.5-0.7l0.2-0.7l0.2-0.7l0.1-0.7
	l0.1-0.5l0.1-0.7l0.2-0.7l0.1-0.7l0.2-0.7l0.3-1.3l0.2-0.7l0.4-1.9l0.1-0.7l0.1-0.7l0.4-1.3l0.1-0.7l0.2-0.7l0.3-0.7l0.9-1.9
	l0.5-0.8l0.4-0.7l0.5-0.7l0.5-0.8l0.3-0.4l0.4-0.7l0.3-0.6l0.4-0.5l0.4-0.5l0.7-0.7L198,207.3z M239.8,213.8l0.2-0.6l0.3-0.7
	l0.3-0.9l0.4-0.8l0.4-0.7l0.5-0.7l0.5-0.8l0.5-0.6l0.6-0.7l0.7-0.7l1-0.9l0.6-0.4l0.9-0.5l1-0.4l0.9-0.2l0.7-0.1l0.7,0.1l0.7,0.1
	l0.7,0.3l0.6,0.4l0.4,0.5l0.3,0.7l0.1,0.7l-0.1,0.7l-0.1,0.7l-0.4,1.3l-0.4,0.7l-0.3,0.6l-0.4,0.5l-0.4,0.6l-0.5,0.4l-0.5,0.5
	l-0.5,0.4l-0.5,0.4l-0.7,0.4l-0.4,0.1l-0.7,0.3l-0.7,0.1l-0.7,0.1h-2l-0.7-0.1l-1.4-0.1l-0.9-0.2l-0.4-0.4L239.8,213.8z
	 M121.9,214.5l-0.3,1.3l-0.2,0.7l-0.2,0.6l-0.4,1.3l-0.2,0.6l-0.2,0.7l-0.3,0.6l-0.2,0.6l-0.2,0.7l-0.3,0.6l-0.4,0.6l-0.6,1.2
	l-0.4,0.5l-0.4,0.5l-0.9,0.9l-0.5,0.5l-1.1,0.6l-0.6,0.2l-0.5,0.1l-0.7,0.1l-1-0.1l-1.1-0.4l-0.9-0.7l-0.6-0.9l-0.2-1.2v-1.2
	l0.3-1.2l0.3-0.9l0.4-0.7l0.2-0.4l0.4-0.6l0.4-0.7l0.4-0.5l0.4-0.5l1-0.9l0.5-0.4l0.5-0.4l0.6-0.4l0.5-0.4l1.1-0.6l0.6-0.2l0.6-0.2
	l0.6-0.2l0.6-0.1l0.6-0.1l1.3-0.3l0.8,0.1l0.4,0.5L121.9,214.5z M173.2,212.2l-0.2,1.2l-0.1,0.9l-0.4,1.9l-0.9,2.6l-0.2,0.6
	l-0.3,0.4l-0.4,0.1l-0.5-0.1l-0.6-0.1l-0.6,0.1l-0.6,0.4l-0.5,0.4l-0.3,0.9l-0.1,0.9l0.1,0.7l0.4,0.6l0.3,0.5v0.4l-0.3,0.5l-0.6,0.4
	l-0.5,0.4l-0.6,0.4l-0.6,0.4l-0.6,0.3l-0.6,0.3l-0.7,0.1l-0.7,0.1h-0.9l-1.1-0.3l-0.8-0.4l-0.6-0.5l-0.5-0.7l-0.5-1.1l-0.3-1.2
	L158,222l-0.1-0.9l-0.1-0.7l0.1-0.9l0.1-0.9V218l0.1-0.7l0.2-0.7l0.1-0.6l0.4-1.3l0.1-0.6l0.2-0.7l1.4-2.9l0.4-0.6l0.7-1l0.4-0.6
	l0.4-0.5l0.4-0.5l0.5-0.5l0.5-0.4l0.7-0.6l0.6-0.4l0.6-0.4l0.7-0.4l0.6-0.2l0.6-0.1h0.7l0.9,0.1l1.1,0.2l0.9,0.4l0.6,0.4l0.5,0.7
	l0.4,1.1l0.3,1.2l0.1,1.2L173.2,212.2z"/>
<path class="st0" d="M192.3,275.6l0.1,1l0.1,1l0.7,5.7l2.1-0.2l-1.2-9.9l-1.7,0.2l-2.9,2.9l1.2,1.1l1-1
	C191.8,276.3,192,276,192.3,275.6z"/>
<path class="st0" d="M182.7,284.2h2.3l-3.7-10h-2.6l-3.4,10.1h2.3l0.7-2.4h3.6L182.7,284.2z M178.8,280.1c0.7-2.3,1.1-3.8,1.2-4.3
	c0,0.2,0.1,0.4,0.2,0.7s0.5,1.5,1.2,3.6L178.8,280.1z"/>
<polygon class="st0" points="190.6,300.1 191.1,306.9 184.3,307.2 183.9,300.5 180.2,300.8 181.3,317.9 184.9,317.6 184.5,310.3 
	191.2,309.9 191.7,317.2 195.3,317 194.3,299.9 "/>
</svg>
