<?xml version="1.0" encoding="utf-8"?>
<!-- Generator: Adobe Illustrator 21.1.0, SVG Export Plug-In . SVG Version: 6.00 Build 0)  -->
<svg version="1.1" id="Layer_1" xmlns="http://www.w3.org/2000/svg" xmlns:xlink="http://www.w3.org/1999/xlink" x="0px" y="0px"
	 viewBox="0 0 160 55" style="enable-background:new 0 0 160 55;" xml:space="preserve">
<style type="text/css">
	.st0{fill-rule:evenodd;clip-rule:evenodd;fill:#F6F6F4;}
</style>
<path id="velux" class="st0" d="M160,0.83v53.33H0V0.83H160z M147.75,27.09h0.5c0.53,0,0.99-0.05,1-0.66c0-0.54-0.46-0.66-0.9-0.66
	h-0.61V27.09L147.75,27.09z M147.81,27.85h0.41l1.2,1.97h1.04l-1.33-2.08c0.6-0.13,1.03-0.67,1.01-1.4
	c-0.03-0.96-0.8-1.38-1.69-1.38h-1.58v4.86h0.94V27.85L147.81,27.85z M148.39,31.89c2.37,0,4.4-1.88,4.4-4.45
	c0-2.55-2.03-4.43-4.4-4.43c-2.4,0-4.43,1.88-4.43,4.43C143.96,30.01,145.99,31.89,148.39,31.89L148.39,31.89z M144.84,27.44
	c0,2.09,1.56,3.63,3.55,3.63c1.97,0,3.53-1.54,3.53-3.63c0-2.06-1.56-3.61-3.53-3.61C146.39,23.83,144.84,25.38,144.84,27.44
	L144.84,27.44z M26.56,13.35H13.65v4.88h3.08l7.73,23.73h6.16l7.42-23.73h2.48v-4.88H29.79v4.88h2.84l-4.66,14.6l-4.38-14.6h2.98
	V13.35L26.56,13.35z M65.4,13.35H42.75v4.88h2.88V37.1h-3.12v4.86H65.4v-9.19h-4.95v4.33h-8.06v-7.47h6.5v-4.87h-6.5v-6.53h8.06v4.2
	h4.95V13.35L65.4,13.35z M72.28,18.23V37.1h-3.7v4.86h22.08l0.08-9.19H85.6v4.32l-6.54,0V18.23h3.78v-4.88H68.58v4.88H72.28
	L72.28,18.23z M100.26,18.23h2.25v-4.88h-2.25h-6.79h-3.06v4.88h3.06V33.7c0,5.87,5,8.48,9.66,8.48h0.98c3.92,0,9.98-1.91,9.98-7.96
	V18.23h2.59v-4.88h-2.59h-4.95h-2.32v4.88h2.32v14.69c0,3.02-2,4.41-4.44,4.41l0,0c-2.44,0-4.44-1.17-4.44-4.39V18.23L100.26,18.23z
	 M118.88,13.35v4.88h2.44l6.19,8.9l-6.3,9.98h-2.93v4.86h11.1v-4.62h-2.59l3.86-5.86l3.99,5.86H132v4.62h13.17V37.1h-3.02l-6.75-9.7
	l6.05-9.17h3.71v-4.88h-11.55V18h2.33l-3.47,5.25L128.64,18h2.44v-4.65H118.88L118.88,13.35z"/>
</svg>
