<?xml version="1.0" encoding="utf-8"?>
<!-- Generator: Adobe Illustrator 21.1.0, SVG Export Plug-In . SVG Version: 6.00 Build 0)  -->
<svg version="1.1" id="Layer_1" xmlns="http://www.w3.org/2000/svg" xmlns:xlink="http://www.w3.org/1999/xlink" x="0px" y="0px"
	 viewBox="0 0 160 55" style="enable-background:new 0 0 160 55;" xml:space="preserve">
<style type="text/css">
	.st0{fill:#F6F6F4;}
</style>
<path id="azek" class="st0" d="M69.83,36.38c-0.33,0-0.69,0-1.06,0c-11.2,0-22.39-0.01-33.59,0.02c-0.69,0-1.04-0.23-1.37-0.79
	C30,29.23,26.18,22.86,22.35,16.49c-0.05-0.09-0.12-0.17-0.25-0.34c-0.4,0.68-0.77,1.31-1.15,1.95c-1.1,1.86-2.18,3.72-3.3,5.56
	c-0.33,0.55-0.23,0.69,0.41,0.68c2.37-0.03,4.74-0.01,7.25-0.01c-0.98,1.67-2.05,3.18-2.8,4.83c-0.77,1.7-1.89,2.21-3.66,2.02
	c-1.5-0.16-3.04-0.03-4.55-0.06c-0.46-0.01-0.72,0.15-0.94,0.55c-0.86,1.56-1.77,3.1-2.65,4.65c-0.18,0.31-0.33,0.55-0.77,0.54
	C6.66,36.84,3.38,36.85,0,36.85c0.9-1.71,1.74-3.36,2.65-4.97c0.41-0.71,0.17-0.75-0.48-0.74c-1.73,0.03-1.73,0.01-1.73-1.73
	c0-1.39,0.03-2.77-0.02-4.16c-0.03-0.69,0.11-0.97,0.89-0.94c1.73,0.07,3.47,0.01,5.2,0.03c0.48,0.01,0.77-0.13,1.02-0.56
	c4.21-7.13,8.43-14.24,12.63-21.38c0.34-0.58,0.71-0.81,1.38-0.77c1.12,0.06,2.24,0.04,3.36,0.01c0.5-0.02,0.8,0.12,1.07,0.59
	c4.8,8.14,9.63,16.26,14.43,24.39c0.31,0.52,0.43,0.49,0.8,0.07C46.47,20.84,51.74,15.01,57,9.18c0.09-0.1,0.17-0.19,0.32-0.36
	c-0.46-0.17-0.87-0.06-1.27-0.06c-4.88-0.01-9.76-0.02-14.63-0.02c-0.28,0-0.54,0.04-0.7-0.25c-1.25-2.28-2.49-4.56-3.74-6.84
	c0.24-0.2,0.46-0.12,0.66-0.12c10.1,0,20.21,0,30.31-0.02c0.72,0,0.88,0.2,0.87,0.89c-0.05,2.03-0.04,4.05-0.01,6.08
	c0.01,0.51-0.13,0.89-0.48,1.27c-5.5,6.05-10.99,12.1-16.48,18.16c-0.07,0.07-0.11,0.17-0.17,0.26c0.24,0.25,0.52,0.13,0.77,0.13
	c4.16,0.01,8.32,0.01,12.48-0.01c0.64,0,0.99,0.19,1.28,0.77c1.15,2.28,2.35,4.53,3.53,6.8C69.8,35.99,69.94,36.11,69.83,36.38z
	 M112.61,15.34c0-3.89,0-7.78,0-11.68c0-0.34-0.07-0.69-0.05-1.03c0.03-0.54-0.21-0.65-0.71-0.65c-2.61,0.01-5.22-0.01-7.84-0.02
	c-1,0-1.01,0-1.01,1.05c0,8.34,0,16.69,0,25.03c0,2.74-0.09,5.48-0.02,8.22c0.01,0.58,0.17,0.64,0.65,0.64
	c2.72-0.02,5.44-0.03,8.16,0.01c0.67,0.01,0.84-0.18,0.83-0.84c-0.03-4.19-0.02-8.37-0.01-12.56c0-0.26-0.1-0.56,0.13-0.83
	c3.98,4.62,7.92,9.2,11.86,13.78c0.2,0.24,0.34,0.48,0.75,0.47c3.68-0.03,7.36-0.03,11.04-0.04c0.2,0,0.42,0.09,0.61-0.1
	c-0.05-0.07-0.08-0.13-0.13-0.18c-5.31-5.65-10.61-11.3-15.93-16.93c-0.35-0.37-0.45-0.58-0.04-1.01c4.24-4.49,8.46-9,12.68-13.51
	c0.95-1.02,1.9-2.04,2.93-3.15c-0.26-0.02-0.36-0.04-0.45-0.04c-3.68,0-7.36,0.01-11.04-0.01c-0.44,0-0.73,0.14-1.01,0.48
	c-2.54,3.12-5.1,6.22-7.65,9.32c-1.21,1.47-2.42,2.94-3.78,4.58C112.61,15.85,112.61,15.59,112.61,15.34z M99.27,8.94
	c-1.38-2.34-2.76-4.67-4.12-7.02c-0.23-0.4-0.52-0.44-0.92-0.44c-7.09,0.01-14.18,0.01-21.27-0.01c-0.54,0-0.65,0.16-0.65,0.67
	c0.01,11.3,0.01,22.6,0,33.91c0,0.54,0.06,0.79,0.72,0.79c7.25-0.03,14.5-0.02,21.75-0.01c0.44,0,0.73-0.1,0.98-0.5
	c1.1-1.73,2.24-3.43,3.36-5.14c0.52-0.78,1.03-1.57,1.61-2.46c-0.32,0-0.47,0-0.63,0c-5.97,0-11.94-0.01-17.91,0.01
	c-0.59,0-0.78-0.13-0.76-0.75c0.05-1.52,0.05-3.04,0.01-4.56c-0.02-0.66,0.15-0.84,0.83-0.83c5.04,0.04,10.07,0.04,15.11,0.05
	c1.17,0,1.04,0.15,1.04-1c0.01-1.84-0.04-3.68,0.02-5.52c0.03-0.75-0.23-0.86-0.9-0.86c-5.12,0.03-10.24,0-15.35,0.03
	c-0.6,0-0.77-0.15-0.76-0.75c0.05-1.46,0.05-2.93,0.01-4.4c-0.02-0.62,0.14-0.81,0.78-0.8c4.48,0.03,8.96,0.02,13.43,0.02
	c1.22,0,2.45,0,3.79,0C99.34,9.12,99.32,9.02,99.27,8.94z M132.3,20.12c4.39,5.28,8.78,10.56,13.18,15.84c0.3,0.36,0.3,0.59,0,0.95
	c-4.22,4.97-8.44,9.94-12.64,14.93c-0.5,0.59-1.08,1.13-1.48,1.93c0.37,0,0.63,0,0.89,0c3.65,0,7.31-0.09,10.95,0.04
	c1.67,0.06,2.75-0.41,3.82-1.73c4.16-5.1,8.44-10.09,12.7-15.1c0.41-0.48,0.34-0.74-0.03-1.17c-4.33-5.01-8.68-10.02-12.95-15.09
	c-0.84-1-1.67-1.38-2.96-1.35c-3.94,0.09-7.88,0.03-12,0.03C132.02,19.74,132.15,19.94,132.3,20.12z M62.63,52.68
	c-0.54,0.08-1.06-0.02-1.57-0.19c-0.35-0.12-0.68-0.27-0.75,0.3c-0.05,0.43-0.47,0.92,0.3,1.16c0.76,0.23,1.52,0.22,2.3,0.19
	c1.86-0.06,2.96-1.15,3-3.02c0.03-1.6,0.03-3.2,0.01-4.8c0-0.27,0.32-0.74-0.15-0.81c-0.49-0.07-1.14-0.3-1.49,0.16
	c-0.28,0.38-0.38,0.2-0.58,0.03c-0.17-0.14-0.37-0.2-0.57-0.26c-1.41-0.39-2.79,0.33-3.35,1.74c-0.63,1.57-0.09,3.35,1.22,4.06
	c0.98,0.53,1.9,0.32,2.85-0.24C63.89,52.04,63.5,52.54,62.63,52.68z M63.88,49.27c-0.14,0.51-0.48,0.77-0.96,0.83
	c-0.49,0.06-0.9-0.16-1.13-0.6c-0.35-0.68-0.35-1.4,0.02-2.06c0.28-0.49,0.73-0.8,1.34-0.59c0.58,0.2,0.81,0.64,0.77,1.24
	c-0.01,0.13-0.02,0.26-0.02,0.22C63.88,48.75,63.96,49,63.88,49.27z M30.64,51.54c0.63,0.02,0.33-0.56,0.34-0.86
	c0.04-1.25,0.02-2.5,0.02-3.76c0-1.54,0-1.53-1.57-1.46c-0.41,0.02-0.56,0.15-0.55,0.56c0.02,0.96,0.01,1.92,0.01,2.88
	c-0.01,0.87-0.31,1.25-0.99,1.24c-0.82-0.02-0.9-0.61-0.92-1.23c-0.02-0.67-0.01-1.33-0.01-2c0-1.57,0-1.55-1.58-1.44
	c-0.37,0.03-0.53,0.13-0.52,0.51c0.02,1.15-0.04,2.29,0.03,3.44c0.09,1.65,1.13,2.48,2.71,2.28c0.55-0.07,0.99-0.37,1.48-0.79
	C29.3,51.97,30.09,51.53,30.64,51.54z M104.97,46.84c-0.04-1.55,0.33-1.33-1.4-1.38c-0.48-0.01-0.66,0.13-0.64,0.63
	c0.04,0.93-0.02,1.86,0.03,2.79c0.04,0.71-0.27,1.13-0.94,1.24c-0.59,0.09-1-0.36-1.04-1.14c-0.04-0.72-0.02-1.44-0.02-2.15
	c0-1.43-0.22-1.6-1.65-1.37c-0.32,0.05-0.39,0.21-0.39,0.48c0.01,1.14-0.07,2.3,0.04,3.43c0.24,2.29,1.94,3.04,3.86,1.77
	c0.11-0.07,0.31-0.31,0.36-0.09c0.18,0.87,0.84,0.4,1.28,0.5c0.52,0.11,0.66-0.2,0.59-0.65c-0.14-0.87-0.04-1.75-0.08-2.49
	C104.97,47.8,104.98,47.32,104.97,46.84z M52.01,50.29c0,1.3,0,1.27,1.32,1.29c0.55,0.01,0.75-0.14,0.73-0.71
	c-0.04-0.96-0.03-1.92,0.01-2.87c0.02-0.64,0.38-1.05,1.05-1.07c0.64-0.01,0.86,0.42,0.95,0.97c0.13,0.79,0.04,1.59,0.06,2.39
	c0.04,1.45-0.29,1.25,1.33,1.29c0.46,0.01,0.68-0.08,0.66-0.61c-0.04-1.04,0-2.07-0.02-3.11c-0.02-0.95-0.27-1.83-1.19-2.27
	c-0.93-0.45-1.86-0.31-2.69,0.34c-0.11,0.09-0.34,0.29-0.37,0.1c-0.14-0.88-0.8-0.46-1.25-0.55c-0.44-0.08-0.61,0.11-0.59,0.58
	c0.04,0.82,0.01,1.65,0.01,2.47C52.01,49.12,52.01,49.7,52.01,50.29z M120.78,51.62c1.11-0.26,1.66-0.86,1.73-1.81
	c0.06-0.82-0.42-1.43-1.46-1.86c-0.27-0.11-0.55-0.2-0.81-0.32c-0.23-0.11-0.52-0.22-0.43-0.58c0.09-0.34,0.39-0.34,0.65-0.34
	c0.32,0,0.66,0.01,0.94,0.13c0.4,0.19,0.5,0.12,0.66-0.3c0.28-0.74,0.02-1.01-0.68-1.12c-0.64-0.1-1.27-0.1-1.9,0.05
	c-0.91,0.22-1.57,0.9-1.65,1.73c-0.07,0.74,0.41,1.41,1.31,1.8c0.32,0.14,0.64,0.25,0.96,0.39c0.25,0.11,0.5,0.23,0.42,0.58
	c-0.08,0.34-0.38,0.33-0.64,0.36c-0.43,0.04-0.86-0.02-1.25-0.19c-0.44-0.19-0.61-0.14-0.76,0.37c-0.2,0.67-0.05,0.97,0.64,1.1
	c0.4,0.08,0.79,0.09,1.32,0.14C120.05,51.71,120.42,51.7,120.78,51.62z M113.3,48.65c0,0.24-0.01,0.48,0,0.72
	c0.05,1.86,0.93,2.58,2.77,2.35c0.57-0.07,0.6-0.41,0.58-0.84c-0.02-0.35,0.13-0.79-0.5-0.75c-0.63,0.04-0.84-0.33-0.83-0.91
	c0.01-0.53,0.03-1.07-0.01-1.6c-0.05-0.57,0.18-0.79,0.73-0.7c0.75,0.12,0.6-0.42,0.66-0.85c0.08-0.55-0.21-0.64-0.65-0.6
	c-0.46,0.05-0.74-0.02-0.74-0.62c0.01-1.06-0.02-1.05-1.11-0.77c-0.55,0.14-1.04,0.26-0.91,1.01c0.04,0.21-0.1,0.37-0.33,0.36
	c-0.61-0.01-0.47,0.43-0.49,0.78c-0.02,0.36-0.04,0.72,0.5,0.69c0.29-0.01,0.33,0.2,0.33,0.44C113.3,47.79,113.3,48.22,113.3,48.65
	C113.3,48.65,113.3,48.65,113.3,48.65z M110.58,51.69c0.42-0.09,1.01,0.02,0.93-0.76c-0.07-0.66-0.24-1.05-1-0.78
	c-0.09,0.03-0.21,0.01-0.32,0.01c-1.08-0.01-1.73-0.64-1.73-1.66c0-1.01,0.65-1.65,1.72-1.66c0.24,0,0.48,0.03,0.71,0.07
	c0.58,0.09,0.44-0.42,0.54-0.69c0.09-0.25,0.23-0.55-0.17-0.74c-1.11-0.52-3.48,0.11-4.22,1.14c-0.79,1.1-0.89,2.29-0.31,3.47
	c0.62,1.28,1.79,1.65,3.13,1.6C110.1,51.7,110.35,51.75,110.58,51.69z M36.48,50.91c-0.01,0.53,0.17,0.73,0.69,0.66
	c0.18-0.02,0.38-0.03,0.56,0c0.62,0.09,0.83-0.13,0.82-0.78c-0.04-2.26-0.01-4.53-0.02-6.79c-0.01-1.43,0.22-1.29-1.33-1.32
	c-0.56-0.01-0.74,0.16-0.72,0.72c0.04,1.25,0.01,2.5,0.01,3.76C36.49,48.4,36.52,49.66,36.48,50.91z M78.71,45.48
	c-0.43-0.03-0.6,0.1-0.59,0.58c0.04,1.41,0.02,2.82,0.03,4.23c0.01,1.48-0.14,1.23,1.27,1.3c0.67,0.03,0.81-0.23,0.78-0.83
	c-0.04-0.77-0.02-1.54-0.01-2.31c0.01-0.66,0.32-1.24,0.99-1.23c1.06,0.01,0.9-0.63,0.92-1.29c0.01-0.54-0.22-0.63-0.68-0.56
	c-0.62,0.09-1.02,0.49-1.51,1.14C80.08,45.18,79.28,45.52,78.71,45.48z M50.26,48.6c0-0.61,0.01-1.23,0-1.84
	c-0.02-1.45,0.25-1.25-1.33-1.3c-0.56-0.02-0.74,0.16-0.72,0.72c0.04,1.33-0.01,2.66,0.02,3.99c0.03,1.58-0.34,1.36,1.47,1.4
	c0.51,0.01,0.63-0.18,0.6-0.66C50.23,50.15,50.26,49.37,50.26,48.6C50.26,48.6,50.26,48.6,50.26,48.6z M34.73,46.78
	c-0.02-1.48,0.24-1.25-1.31-1.31c-0.63-0.03-0.75,0.22-0.74,0.78c0.03,1.33,0,2.65,0.01,3.98c0.02,1.53-0.27,1.29,1.35,1.35
	c0.59,0.02,0.72-0.21,0.7-0.74c-0.04-0.77-0.01-1.54-0.01-2.31C34.74,47.94,34.74,47.36,34.73,46.78z M138.09,3.95
	c-0.01,1.72,1.42,3.15,3.14,3.14c1.7,0,3.08-1.38,3.1-3.09c0.02-1.78-1.31-3.15-3.08-3.15C139.47,0.84,138.1,2.18,138.09,3.95z
	 M138.62,3.95c0.07-1.49,1.21-2.61,2.62-2.58c1.43,0.03,2.61,1.25,2.56,2.64c-0.04,1.45-1.26,2.55-2.75,2.51
	C139.73,6.47,138.56,5.24,138.62,3.95z M48.19,43.8c-0.03,0.56,0.49,1.03,1.1,1c0.6-0.03,1-0.37,1.06-0.98
	c0.05-0.51-0.55-1.01-1.23-1C48.63,42.87,48.23,43.17,48.19,43.8z M34.79,43.86c0.05-0.56-0.46-1.06-1.07-1.04
	c-0.62,0.02-1,0.35-1.06,0.98c-0.04,0.52,0.47,1,1.07,1.02C34.26,44.73,34.73,44.52,34.79,43.86z M23.13,44.91
	c-0.22-1.01-1.01-1.45-1.95-1.65c-1.21-0.25-2.43-0.17-3.66-0.06c-0.43,0.04-0.59,0.2-0.59,0.65c0.02,2.37,0.02,4.74,0,7.12
	c-0.01,0.5,0.19,0.65,0.63,0.69c1.2,0.09,2.4,0.1,3.58-0.15c0.92-0.19,1.72-0.59,2.13-1.5c0.5-1.11,0.09-2.05-1.37-2.99
	C22.75,46.51,23.35,45.89,23.13,44.91z M21.31,49.08c-0.02,0.76-0.65,1.23-1.76,1.16c-1.27-0.08-0.51-1.09-0.61-1.65
	c-0.13-0.7-0.02-0.72,0.65-0.71C20.73,47.9,21.33,48.32,21.31,49.08z M21.13,45.52c-0.03,0.64-0.58,0.92-1.57,0.97
	c-1.06,0.04-0.54-0.72-0.64-1.16c-0.13-0.61,0.11-0.92,0.7-0.79C20.65,44.55,21.15,44.88,21.13,45.52z M43.2,45.36
	c-1.9-0.18-3.3,1.18-3.27,3.25c0.02,1.17,0.38,2.23,1.49,2.81c1,0.53,2,0.46,2.9-0.29c0.08-0.07,0.26-0.25,0.3-0.07
	c0.19,0.92,0.9,0.39,1.36,0.5c0.47,0.11,0.56-0.17,0.56-0.6c-0.02-2.34-0.01-4.68-0.03-7.03c-0.01-1.37,0.25-1.2-1.3-1.26
	c-0.62-0.02-0.78,0.22-0.75,0.8c0.04,0.76,0.01,1.52,0.01,2.4C43.99,45.62,43.63,45.4,43.2,45.36z M43.29,50.16
	c-0.81,0.01-1.34-0.64-1.35-1.63c-0.01-0.95,0.63-1.75,1.39-1.72c0.79,0.03,1.15,0.58,1.15,1.74
	C44.47,49.65,44.11,50.15,43.29,50.16z M91.23,46.51c-0.92,1.24-0.8,3.33,0.26,4.44c0.98,1.02,2.27,1.04,3.84,0.03
	c0.12,0.97,0.87,0.5,1.37,0.59c0.4,0.07,0.54-0.11,0.53-0.54c-0.03-2.34-0.01-4.68-0.02-7.02c-0.01-1.52,0.17-1.3-1.31-1.31
	c-0.05,0-0.11,0.01-0.16,0c-0.41-0.05-0.56,0.13-0.55,0.55c0.02,0.85,0.01,1.7,0.01,2.63C93.54,45.06,92.12,45.31,91.23,46.51z
	 M95.19,48.5c0,1.16-0.38,1.68-1.23,1.66c-0.8-0.02-1.31-0.63-1.31-1.58c-0.01-1.03,0.53-1.76,1.31-1.78
	C94.76,46.78,95.2,47.38,95.19,48.5z M70.59,50.15c0,1.51,0,1.5,1.52,1.43c0.44-0.02,0.55-0.18,0.53-0.58
	c-0.02-0.59,0.02-1.17-0.01-1.76c-0.02-0.45,0.12-0.62,0.58-0.59c0.76,0.05,1.49-0.11,2.18-0.42c1.04-0.47,1.66-1.55,1.54-2.65
	c-0.13-1.21-0.81-2.02-2-2.3c-1.24-0.3-2.48-0.19-3.73-0.09c-0.47,0.04-0.63,0.24-0.61,0.71c0.03,1.17,0.01,2.34,0.01,3.52
	C70.59,48.34,70.59,49.24,70.59,50.15z M73.3,44.57c1.01,0,1.62,0.46,1.61,1.26c-0.01,0.79-0.62,1.26-1.59,1.3
	c-1.18,0.05-0.48-0.85-0.72-1.27C72.76,45.37,72.25,44.57,73.3,44.57z M89.57,48.45c-0.01-1.85-1.35-3.11-3.31-3.11
	c-2.01,0-3.38,1.31-3.38,3.24c0.01,1.87,1.33,3.14,3.27,3.14C88.23,51.72,89.58,50.43,89.57,48.45z M85.17,49.61
	c0.21,0.43,0.51,0.71,1.04,0.71c0.53,0,0.88-0.27,1.05-0.71c0.3-0.73,0.29-1.5-0.03-2.24c-0.19-0.44-0.55-0.62-1.02-0.63
	c-0.45-0.02-0.76,0.18-0.96,0.57c-0.2,0.38-0.32,0.78-0.29,1.27C84.92,48.91,85.01,49.27,85.17,49.61z M141.8,5.36
	c-0.12-0.23-0.28-0.45-0.42-0.67c-0.17-0.27-0.42-0.44-0.73-0.37c-0.38,0.09-0.18,0.44-0.23,0.67c-0.06,0.24,0.18,0.68-0.31,0.65
	c-0.46-0.03-0.24-0.45-0.25-0.7c-0.03-0.72,0.01-1.43-0.02-2.15c-0.01-0.38,0.14-0.53,0.51-0.5c0.42,0.03,0.85,0,1.27,0.06
	c0.76,0.11,1.13,1,0.57,1.47c-0.5,0.43-0.32,0.67-0.02,1.04c0.17,0.2,0.27,0.45,0.44,0.73C142.2,5.74,141.96,5.68,141.8,5.36z
	 M141.06,2.79c-0.32-0.02-0.67-0.08-0.65,0.47c0.01,0.34,0.05,0.58,0.47,0.5c0.35-0.06,0.88,0.14,0.92-0.46
	C141.83,2.85,141.47,2.77,141.06,2.79z"/>
</svg>
