<?xml version="1.0" encoding="utf-8"?>
<!-- Generator: Adobe Illustrator 21.1.0, SVG Export Plug-In . SVG Version: 6.00 Build 0)  -->
<svg version="1.1" id="Layer_1" xmlns="http://www.w3.org/2000/svg" xmlns:xlink="http://www.w3.org/1999/xlink" x="0px" y="0px"
	 viewBox="0 0 160 32" style="enable-background:new 0 0 160 32;" xml:space="preserve">
<style type="text/css">
	.st0{fill:#F6F6F4;}
</style>
<path id="buderus" class="st0" d="M107.74,22.89L107.74,22.89l-6.33,0V6.93h6.06v3.36h0.07c0.89-2.94,2.86-3.99,7.01-3.99l0,4.8
	c-0.61-0.11-1.19-0.23-2.34-0.08c-2.89,0.39-4.48,2.09-4.48,4.79V22.89L107.74,22.89z M139.4,17.76c1.11,4.56,5.59,5.93,11.33,5.93
	c4.49,0,9.27-1.65,9.27-6.05c0-6.67-13.67-4.14-13.67-6.89c0-1.07,2.08-1.35,3.1-1.35c0.87,0.03,2.29,0.28,2.71,0.59
	c0.43,0.36,0.96,0.69,1.03,1.38h6.06c-1.08-3.45-4.95-5.32-9.54-5.32c-5.55,0-9.92,1.76-9.92,5.9c0,6.31,13.63,3.87,13.63,6.82
	c0,1.25-2.16,1.55-3.52,1.49c-0.92-0.04-2.11-0.19-2.99-0.8c-0.54-0.27-1.07-1.03-1.19-1.68H139.4L139.4,17.76L139.4,17.76z
	 M91.41,18.38L91.41,18.38h6.3c-1.72,3.68-5.91,5.36-10.4,5.36c-5.93,0-11.22-2.9-11.22-8.52c0-5.97,4.73-9.07,11.3-9.07
	c8.5,0,11.62,5.6,10.98,10.2H82.99c0.24,2.45,1.83,3.81,4.39,3.81C89.02,20.15,90.59,19.79,91.41,18.38L91.41,18.38z M83.1,12.98
	L83.1,12.98h8.29c-0.25-1.88-1.81-3.37-4.12-3.37C84.91,9.61,83.39,11.09,83.1,12.98L83.1,12.98z M40.86,7v8.77
	c-0.01,1.96-1.3,3.84-3.65,3.84c-2.34,0-3.66-1.91-3.66-4.01V7l-6.37,0.01v9.37c0,4.67,3.89,7.16,7.81,7.16
	c2.29,0,4.36-0.8,5.98-2.42h0.07v1.81h6.2V7H40.86L40.86,7L40.86,7z M130.18,6.88v8.77c-0.01,1.96-1.3,3.84-3.65,3.84
	c-2.34,0-3.66-1.91-3.66-4.01v-8.6l-6.37-0.03l-0.01,9.41c0,4.67,3.89,7.16,7.81,7.16c2.29,0,4.36-0.8,5.98-2.42h0.07v1.81h6.2V6.88
	H130.18L130.18,6.88L130.18,6.88z M0,29.7L0,29.7v1.74h160V29.7H0L0,29.7z M13.78,13.55L13.78,13.55H6.72v5.29h5.49
	c4.08,0,5.13-0.77,5.13-2.49C17.33,14.43,16.32,13.55,13.78,13.55L13.78,13.55z M13.27,4.89L13.27,4.89H6.72v4.65h6.55
	c2.81,0,3.52-1.14,3.52-2.54C16.79,5.72,16.07,4.89,13.27,4.89L13.27,4.89z M0,23.15L0,23.15V0.57h14.2
	c8.69-0.19,9.65,3.15,9.8,5.25c0.21,2.9-1.72,4.9-4.75,5.38l0.03-0.06c3.49,0.42,5.7,2.67,5.69,5.5c-0.01,3.27-2.69,6.56-8.97,6.48
	L0,23.15L0,23.15z M66.59,8.07L66.59,8.07V0.64h6.46v22.44h-6.27v-1.93h-0.08c-1.15,1.69-3.6,2.52-6.37,2.52
	c-4.19,0-10-3.14-10-8.49c0-3.83,3.19-8.9,9.91-9C62.48,6.17,64.98,6.58,66.59,8.07L66.59,8.07z M57.17,14.88L57.17,14.88
	c0,2.6,2.18,4.71,4.87,4.71c2.69,0,4.87-2.11,4.87-4.71s-2.18-4.71-4.87-4.71C59.35,10.17,57.17,12.28,57.17,14.88L57.17,14.88z"/>
</svg>
