<?xml version="1.0" encoding="utf-8"?>
<!-- Generator: Adobe Illustrator 21.1.0, SVG Export Plug-In . SVG Version: 6.00 Build 0)  -->
<svg version="1.1" id="Layer_1" xmlns="http://www.w3.org/2000/svg" xmlns:xlink="http://www.w3.org/1999/xlink" x="0px" y="0px"
	 viewBox="0 0 160 30" style="enable-background:new 0 0 160 30;" xml:space="preserve">
<style type="text/css">
	.st0{fill:#F6F6F4;}
</style>
<path id="wolf" class="st0" d="M16.29,14.37c0,0-2.07-4.48,3.04-7.51c0,0,0,4.19,2.07,3.75c0,0,2.07-0.58,0.28-2.74
	c0,0-1.31-3.37,1.18-5.54c0,0,0.99-0.84,0.89,0.92c0,0-0.55,3.03,2.9,4.91c0,0,1.8,1.3,1.93,3.18c0,0,0.69,5.2-2.9,5.49
	c0,0,0.97-2.46-0.83-4.48c0,0,1.38,4.62-2.21,5.05C22.65,17.4,18.23,18.84,16.29,14.37z M85.24,9.25v11.11
	c0,4.73-5.05,8.59-9.77,8.59H60.29c-4.73,0-10.07-3.87-10.07-8.59V9.25c0-4.73,5.35-8.59,10.07-8.59h15.17
	C80.19,0.65,85.24,4.52,85.24,9.25z M76.18,11.26c0-3.01-2.46-4.84-5.48-4.84h-5.97c-3.01,0-5.48,1.82-5.48,4.84v7.08
	c0,3.01,2.46,4.78,5.48,4.78h5.97c3.01,0,5.48-1.76,5.48-4.78V11.26z M34.22,7.87v13.86c0,0-5.11-2.86-12.42-3.03
	C14.46,19,9.38,21.73,9.38,21.73V7.87C7.94,0.94,0,0.8,0,0.8v24.4c0.43,3.61,4.47,3.75,4.47,3.75c2.89,0,4.76-1.01,4.76-1.01
	c6.49-3.02,9.73-3.56,12.43-3.72c2.68,0.13,6.19,0.71,12.69,3.72c0,0,1.88,1.01,4.76,1.01c0,0,4.04-0.15,4.48-3.75V0.8
	C43.6,0.8,35.66,0.94,34.22,7.87z M159.83,1.39h-0.46l-0.5,1.34c-0.12,0.35-0.22,0.66-0.29,0.94h-0.01
	c-0.07-0.29-0.17-0.59-0.28-0.94l-0.47-1.34h-0.46l-0.19,2.78h0.34l0.08-1.19c0.02-0.42,0.04-0.88,0.05-1.23h0.01
	c0.08,0.33,0.19,0.69,0.32,1.08l0.45,1.32h0.27l0.49-1.35c0.14-0.38,0.26-0.73,0.35-1.06h0.01c-0.01,0.35,0.02,0.81,0.04,1.2
	l0.07,1.22H160L159.83,1.39z M154.87,1.7h0.84v2.47h0.36V1.7h0.85V1.39h-2.06V1.7z M116.21,22.22h-14.52h-0.52l0.01-0.49V7.87
	c-1.44-6.93-9.38-7.08-9.38-7.08v24.4c0.43,3.61,4.47,3.75,4.47,3.75h20.01c0,0,2.4-0.49,2.4-3.41
	C118.67,25.54,118.87,23.07,116.21,22.22z M125.03,1.43c-3.61,0.43-3.75,4.48-3.75,4.48v20.01c0,0-0.03,3.44,4.63,3.44
	c0,0,4.23,0.06,4.76-3.5v-5.99h15.07c0,0,2.67-0.32,2.73-3.27c0,0-0.12-2.65-2.79-3.17h-15v-2.87v-0.52l0.49,0.01h14.66
	c7.26-1.39,6.66-8.61,6.66-8.61H125.03z"/>
</svg>
