<?xml version="1.0" encoding="utf-8"?>
<!-- Generator: Adobe Illustrator 21.1.0, SVG Export Plug-In . SVG Version: 6.00 Build 0)  -->
<svg version="1.1" id="Layer_1" xmlns="http://www.w3.org/2000/svg" xmlns:xlink="http://www.w3.org/1999/xlink" x="0px" y="0px"
	 viewBox="0 0 160 30" style="enable-background:new 0 0 160 30;" xml:space="preserve">
<style type="text/css">
	.st0{fill-rule:evenodd;clip-rule:evenodd;fill:#F6F6F4;}
</style>
<path id="miele" class="st0" d="M67.71,4.2c-2.23,1.11-4.46,2.17-6.68,3.26l-1.84-3.73l6.68-3.29C66.51,1.67,67.12,2.92,67.71,4.2
	L67.71,4.2z M26.77,12.2L18.55,1.58H0v4.09l3.62,0.03L3.59,24.42H0v4.15h12.2v-4.15l-3.59-0.03l0.03-12.09l0.06,0.03l13.04,17.02
	h0.03l11.09-17.44l0.03,0.03l-0.03,12.48h-3.31v4.15H50.3v-4.15l-3.18-0.03l0.03-18.72h3.15V1.58H33.56l-6.8,10.64V12.2L26.77,12.2z
	 M124.58,24.39V1.58h-17.6v4.09l3.51,0.03l-0.03,18.72h-3.48v4.15h21.06v-4.15L124.58,24.39L124.58,24.39z M104.47,13.03
	c-0.89-1.31-2.23-2.34-3.51-3.06c-5.51-3.01-13.62-2.81-19.41-0.56c-3.34,1.23-6.46,4.54-6.52,8.27c-0.36,4.12,1.84,7.91,5.51,9.69
	c4.85,2.51,11.7,2.76,17.1,1.23c3.18-0.81,6.32-3.51,7.66-6.6h-8.13c-0.25,1.06-0.84,2.03-1.75,2.79c-1.23,0.92-3.29,1.11-4.6,0.31
	c-1.75-1.03-2.67-2.92-2.4-4.96h17.46C106.17,17.57,105.9,14.98,104.47,13.03L104.47,13.03z M157.65,12.06l-1.03-1
	c-5.43-4.12-14.04-4.01-20.36-1.92c-3.37,1.03-6.91,4.23-7.19,7.94c-0.58,4.29,1.48,8.27,5.26,10.22c4.9,2.65,11.92,2.84,17.38,1.28
	c3.15-0.84,6.24-3.54,7.6-6.57l-8.19,0.03c-0.25,1.11-0.89,2.12-1.87,2.84c-1.28,0.95-3.31,0.95-4.62,0.11
	c-1.67-1.09-2.48-2.87-2.2-4.85h17.44C160.29,17.13,159.71,14.2,157.65,12.06L157.65,12.06z M70.72,24.39V8.3H53.06v4.15l3.34,0.03
	l-0.03,11.95h-3.31v4.15h21.22v-4.15L70.72,24.39L70.72,24.39z M146.64,11.86c-0.7-0.81-1.89-1-2.87-0.64
	c-0.67,0.25-1.23,0.92-1.34,1.59l-0.03,3.43h4.71C147.12,13.82,147.45,12.84,146.64,11.86L146.64,11.86z M92.67,11.86
	c-0.7-0.81-1.89-1-2.87-0.64c-0.67,0.25-1.23,0.92-1.34,1.59l-0.03,3.43h4.71C93.14,13.82,93.47,12.84,92.67,11.86L92.67,11.86z"/>
</svg>
