<?xml version="1.0" encoding="utf-8"?>
<!-- Generator: Adobe Illustrator 21.1.0, SVG Export Plug-In . SVG Version: 6.00 Build 0)  -->
<svg version="1.1" id="Layer_2" xmlns="http://www.w3.org/2000/svg" xmlns:xlink="http://www.w3.org/1999/xlink" x="0px" y="0px"
	 viewBox="0 0 64 64" style="enable-background:new 0 0 64 64;" xml:space="preserve">
<style type="text/css">
	.st0{fill:#FFFFFF;}
</style>
<path class="st0" d="M60,4c0-1.1-0.9-2-2-2H2C0.9,2,0,2.9,0,4s0.9,2,2,2h56C59.1,6,60,5.1,60,4z M62,10H12c-1.1,0-2,0.9-2,2
	s0.9,2,2,2h50c1.1,0,2-0.9,2-2S63.1,10,62,10z M52,18H8c-1.1,0-2,0.9-2,2s0.9,2,2,2h44c1.1,0,2-0.9,2-2S53.1,18,52,18z M44,28
	c0-1.1-0.9-2-2-2H12c-1.1,0-2,0.9-2,2s0.9,2,2,2h30C43.1,30,44,29.1,44,28z M48,36c0-1.1-0.9-2-2-2H18c-1.1,0-2,0.9-2,2s0.9,2,2,2
	h28C47.1,38,48,37.1,48,36z M46,42H26c-1.1,0-2,0.9-2,2s0.9,2,2,2h20c1.1,0,2-0.9,2-2S47.1,42,46,42z M40,50H30c-1.1,0-2,0.9-2,2
	s0.9,2,2,2h10c1.1,0,2-0.9,2-2S41.1,50,40,50z M32,58h-4c-1.1,0-2,0.9-2,2s0.9,2,2,2h4c1.1,0,2-0.9,2-2S33.1,58,32,58z"/>
</svg>
