<?xml version="1.0" encoding="utf-8"?>
<!-- Generator: Adobe Illustrator 21.1.0, SVG Export Plug-In . SVG Version: 6.00 Build 0)  -->
<svg version="1.1" id="Layer_2" xmlns="http://www.w3.org/2000/svg" xmlns:xlink="http://www.w3.org/1999/xlink" x="0px" y="0px"
	 viewBox="0 0 64 64" style="enable-background:new 0 0 64 64;" xml:space="preserve">
<style type="text/css">
	.st0{fill:#FFFFFF;}
</style>
<path class="st0" d="M21.2,22.8c-0.7,0.7-1,1.5-1,2.4c0,0.8,0.3,1.7,1,2.4c0.7,0.7,1.5,1,2.4,1s1.7-0.3,2.4-1c0.7-0.7,1-1.5,1-2.4
	c0-0.8-0.3-1.7-1-2.4C24.8,21.5,22.4,21.5,21.2,22.8z M10.1,21.8c0.8,0,1.7-0.3,2.4-1s1-1.5,1-2.4s-0.3-1.7-1-2.4
	c-1.3-1.2-3.5-1.2-4.7,0c-0.7,0.5-1,1.5-1,2.4s0.3,1.7,1,2.4C8.4,21.5,9.3,21.8,10.1,21.8z M5.7,34.3c0.7-0.7,1-1.5,1-2.4
	s-0.3-1.7-1-2.4c-1.3-1.2-3.5-1.2-4.7,0C0.3,30,0,31,0,31.9s0.3,1.7,1,2.4s1.5,1,2.4,1S5.1,35,5.7,34.3z M7.7,47.8
	c0.7,0.7,1.5,1,2.4,1s1.7-0.3,2.4-1s1-1.5,1-2.4c0-0.8-0.3-1.7-1-2.4c-1.3-1.2-3.5-1.2-4.7,0c-0.7,0.5-1,1.5-1,2.4
	C6.7,46.3,7.1,47.1,7.7,47.8z M23.6,38.7c0,0.8,0.3,1.7,1,2.4s1.5,1,2.4,1s1.7-0.3,2.4-1c0.7-0.7,1-1.5,1-2.4s-0.3-1.7-1-2.4
	c-1.3-1.2-3.5-1.2-4.7,0C23.9,36.8,23.6,37.8,23.6,38.7z M38.1,29.6c-0.7,0.5-1,1.5-1,2.4c0,0.9,0.3,1.7,1,2.4s1.5,1,2.4,1
	c0.8,0,1.7-0.3,2.4-1s1-1.5,1-2.4s-0.3-1.7-1-2.4C41.6,28.2,39.2,28.2,38.1,29.6z M46.1,16.1c-1.3-1.2-3.5-1.2-4.7,0
	c-0.7,0.5-1,1.5-1,2.4s0.3,1.7,1,2.4c0.7,0.7,1.5,1,2.4,1c0.8,0,1.7-0.3,2.4-1s1-1.5,1-2.4S46.8,16.6,46.1,16.1z M63,24.2
	c0.7-0.7,1-1.5,1-2.4c0-0.8-0.3-1.7-1-2.4c-1.3-1.2-3.5-1.2-4.7,0c-0.7,0.5-1,1.3-1,2.4c0,0.8,0.3,1.7,1,2.4c0.7,0.7,1.5,1,2.4,1
	C61.5,25.2,62.3,24.9,63,24.2z M54.9,36.3c-0.7,0.5-1,1.5-1,2.4s0.3,1.7,1,2.4s1.5,1,2.4,1c0.8,0,1.7-0.3,2.4-1s1-1.5,1-2.4
	s-0.3-1.7-1-2.4C58.4,35,56.1,35,54.9,36.3z M41.4,43.1c-0.7,0.5-1,1.5-1,2.4c0,0.8,0.3,1.7,1,2.4s1.5,1,2.4,1c0.8,0,1.7-0.3,2.4-1
	s1-1.5,1-2.4c0-0.8-0.3-1.7-1-2.4C45,41.7,42.6,41.7,41.4,43.1z"/>
</svg>
