<?xml version="1.0" encoding="utf-8"?>
<!-- Generator: Adobe Illustrator 21.1.0, SVG Export Plug-In . SVG Version: 6.00 Build 0)  -->
<svg version="1.1" id="Layer_2" xmlns="http://www.w3.org/2000/svg" xmlns:xlink="http://www.w3.org/1999/xlink" x="0px" y="0px"
	 viewBox="0 0 64 64" style="enable-background:new 0 0 64 64;" xml:space="preserve">
<style type="text/css">
	.st0{fill:#FFFFFF;}
</style>
<path class="st0" d="M22,4v6c0,1.1,0.9,2,2,2s2-0.9,2-2V4c0-1.1-0.9-2-2-2S22,2.9,22,4z M2,28h6c1.1,0,2-0.9,2-2s-0.9-2-2-2H2
	c-1.1,0-2,0.9-2,2S0.9,28,2,28z M11.3,16.1c0.4,0.4,0.9,0.6,1.4,0.6s1-0.2,1.4-0.6c0.8-0.8,0.8-2,0-2.8L9.9,9C9.1,8.3,7.8,8.3,7,9
	c-0.8,0.8-0.8,2,0,2.8L11.3,16.1z M38.2,9l-4.3,4.3c-0.8,0.8-0.8,2,0,2.8c0.4,0.4,0.9,0.6,1.4,0.6s1-0.2,1.4-0.6l4.3-4.3
	c0.8-0.8,0.8-2,0-2.8S38.9,8.3,38.2,9z M7,43c0.4,0.4,0.9,0.6,1.4,0.6s1-0.2,1.4-0.6l4.3-4.3c0.8-0.8,0.8-2,0-2.8s-2-0.8-2.8,0
	L7,40.2C6.2,40.9,6.2,42.2,7,43z M53.3,26.1c-2.5-5-7.6-8.1-13.3-8.1c-2.2,0-4.2,0.5-6.1,1.3C31.7,16,28,14,24,14
	c-6.6,0-12,5.4-12,12c0,3.9,1.9,7.5,5,9.7c-0.3,0.6-0.5,1.2-0.7,1.8c-0.3,1.1,0.4,2.2,1.4,2.4c0.2,0,0.3,0.1,0.5,0.1
	c0.9,0,1.7-0.6,1.9-1.5c0.7-2.6,3.1-4.5,5.8-4.5c0.2,0,0.4,0,0.6,0.1l2.3,0.3l0.1-2.1C29.5,26.5,34.3,22,40,22
	c4.5,0,8.4,2.7,10.2,6.8l0.5,1.2H52c4.4,0,8,3.6,8,8c0,1.1,0.9,2,2,2s2-0.9,2-2C64,31.8,59.3,26.7,53.3,26.1z M25.3,30
	c-2.3,0.2-4.3,1.1-6,2.5C17.3,31,16,28.6,16,26c0-4.4,3.6-8,8-8c2.6,0,5,1.3,6.5,3.4C27.9,23.6,26,26.6,25.3,30z M63.9,44
	c0-1.1-0.9-2-2-2H18c-1.1,0-2,0.9-2,2s0.9,2,2,2h43.9C63,46,63.9,45.1,63.9,44z M59.9,52c0-1.1-0.9-2-2-2H22c-1.1,0-2,0.9-2,2
	s0.9,2,2,2h35.9C59,54,59.9,53.1,59.9,52z M30,58c-1.1,0-2,0.9-2,2s0.9,2,2,2h23.9c1.1,0,2-0.9,2-2s-0.9-2-2-2H30z M20.1,58
	c-1.1,0-2,0.9-2,2s0.9,2,2,2H24c1.1,0,2-0.9,2-2s-0.9-2-2-2H20.1z"/>
</svg>
