<?xml version="1.0" encoding="utf-8"?>
<!-- Generator: Adobe Illustrator 21.1.0, SVG Export Plug-In . SVG Version: 6.00 Build 0)  -->
<svg version="1.1" id="Layer_2" xmlns="http://www.w3.org/2000/svg" xmlns:xlink="http://www.w3.org/1999/xlink" x="0px" y="0px"
	 viewBox="0 0 64 64" style="enable-background:new 0 0 64 64;" xml:space="preserve">
<style type="text/css">
	.st0{fill:#FFFFFF;}
</style>
<path class="st0" d="M49.7,10C46.5,3.9,40,0,33,0c-8.6,0-16.2,5.9-18.3,14.1C14.1,14,13.6,14,13,14C5.8,14,0,19.8,0,27s5.8,13,13,13
	h36c8.3,0,15-6.7,15-15C64,17,57.7,10.4,49.7,10z M49,36H13c-5,0-9-4-9-9s4-9,9-9c0.9,0,1.8,0.1,2.6,0.4l2.2,0.7l0.3-2.3
	C19.3,9.5,25.6,4,33,4c5.9,0,11.3,3.5,13.7,8.9l0.6,1.2l1.6-0.1c0.1,0,0.1,0,0.2,0c6.1,0,11,4.9,11,11C60,31.1,55.1,36,49,36z
	 M3.6,59.7l2-2.5c0.7-0.9,0.6-2.1-0.3-2.8s-2.1-0.6-2.8,0.3l-2,2.5c-0.7,0.9-0.6,2.1,0.3,2.8c0.4,0.3,0.8,0.4,1.2,0.4
	C2.6,60.5,3.2,60.2,3.6,59.7z M13.2,44.4c-0.9-0.7-2.1-0.5-2.8,0.3l-3.5,4.4C6.2,50,6.3,51.3,7.2,52c0.4,0.3,0.8,0.4,1.2,0.4
	c0.6,0,1.2-0.3,1.6-0.8l3.5-4.4C14.2,46.4,14.1,45.1,13.2,44.4z M14,58.4c-0.9-0.7-2.1-0.5-2.8,0.3l-1.6,2c-0.7,0.9-0.6,2.1,0.3,2.8
	c0.4,0.3,0.8,0.4,1.2,0.4c0.6,0,1.2-0.3,1.6-0.8l1.6-2C15,60.4,14.9,59.1,14,58.4z M25.2,44.4c-0.9-0.7-2.1-0.6-2.8,0.3l-6.4,8
	c-0.7,0.9-0.6,2.1,0.3,2.8c0.4,0.3,0.8,0.4,1.2,0.4c0.6,0,1.2-0.3,1.6-0.8l6.4-8C26.2,46.4,26.1,45.1,25.2,44.4z M27.6,59.7l3.7-4.6
	c0.7-0.9,0.6-2.1-0.3-2.8s-2.1-0.5-2.8,0.3l-3.7,4.6c-0.7,0.9-0.6,2.1,0.3,2.8c0.4,0.3,0.8,0.4,1.2,0.4
	C26.6,60.5,27.2,60.2,27.6,59.7z M37.2,44.4c-0.9-0.7-2.1-0.6-2.8,0.3l-1.6,2c-0.7,0.9-0.6,2.1,0.3,2.8c0.4,0.3,0.8,0.4,1.2,0.4
	c0.6,0,1.2-0.3,1.6-0.8l1.6-2C38.2,46.4,38.1,45.1,37.2,44.4z M33.9,63.6c0.4,0.3,0.8,0.4,1.2,0.4c0.6,0,1.2-0.3,1.6-0.8l4.2-5.2
	c0.7-0.9,0.6-2.1-0.3-2.8c-0.9-0.7-2.1-0.6-2.8,0.3l-4.2,5.2C32.9,61.6,33.1,62.9,33.9,63.6z M44.1,52.9c0.6,0,1.2-0.3,1.6-0.8
	l3.9-4.9c0.7-0.9,0.6-2.1-0.3-2.8c-0.9-0.7-2.1-0.6-2.8,0.3l-3.9,4.9c-0.7,0.9-0.6,2.1,0.3,2.8C43.2,52.7,43.7,52.9,44.1,52.9z"/>
</svg>
